<?xml version="1.0" standalone="no"?>
<!DOCTYPE svg PUBLIC "-//W3C//DTD SVG 20010904//EN"
 "http://www.w3.org/TR/2001/REC-SVG-20010904/DTD/svg10.dtd">
<svg version="1.0" xmlns="http://www.w3.org/2000/svg"
 width="2048.000000pt" height="1536.000000pt" viewBox="0 0 2048.000000 1536.000000"
 preserveAspectRatio="xMidYMid meet">
<metadata>
Created by potrace 1.16, written by Peter Selinger 2001-2019
</metadata>
<g transform="translate(0.000000,1536.000000) scale(0.100000,-0.100000)"
fill="#000000" stroke="none">
<path d="M9384 15246 c5 -115 16 -175 16 -85 0 32 3 40 10 29 8 -13 10 -12 10
3 0 9 -4 17 -10 17 -5 0 -10 26 -11 58 0 31 -5 66 -10 77 -6 13 -8 -21 -5 -99z"/>
<path d="M14552 15233 c-32 -190 -90 -475 -101 -506 -8 -20 -18 -27 -38 -28
-186 -4 -258 -13 -318 -39 -11 -5 -41 -11 -66 -15 -33 -4 -54 -14 -74 -35 -29
-30 -55 -39 -55 -19 0 6 -12 9 -27 7 -22 -2 -29 -9 -31 -30 -4 -35 -29 -57
-38 -34 -8 22 -30 20 -57 -5 -12 -11 -46 -32 -76 -46 -29 -14 -56 -34 -58 -44
-3 -10 -13 -21 -22 -24 -45 -15 -93 -85 -58 -85 6 0 -4 -13 -23 -28 -19 -15
-35 -25 -36 -22 -6 16 -44 -38 -44 -62 0 -56 -54 -148 -87 -148 -7 0 -13 -11
-13 -25 0 -28 -35 -49 -175 -104 -44 -18 -84 -37 -90 -44 -10 -12 -37 -24
-125 -54 -25 -9 -52 -20 -60 -24 -8 -5 -22 -12 -30 -15 -8 -3 -27 -12 -42 -20
-14 -8 -34 -14 -45 -14 -15 0 -16 -2 -3 -10 12 -8 11 -10 -7 -10 -12 0 -25 -4
-28 -10 -3 -5 -14 -10 -25 -10 -20 0 -103 -40 -108 -52 -2 -5 -10 -8 -18 -8
-8 0 -14 -4 -14 -10 0 -5 -9 -10 -21 -10 -29 0 -111 -39 -131 -63 -10 -10 -24
-17 -31 -14 -8 3 -20 1 -28 -4 -11 -7 -10 -9 4 -9 30 0 9 -19 -30 -26 -20 -4
-52 -17 -70 -30 -19 -13 -40 -21 -47 -18 -7 3 -21 -4 -31 -16 -11 -12 -31 -20
-52 -20 -21 0 -40 -7 -50 -20 -10 -11 -24 -20 -33 -20 -23 0 -100 -43 -100
-57 0 -6 -10 -13 -22 -15 -16 -2 -22 -9 -20 -20 2 -11 -3 -18 -12 -18 -16 0
-31 -34 -21 -50 8 -14 33 -12 80 5 48 17 68 19 60 5 -3 -6 1 -17 9 -26 9 -8
16 -28 16 -43 0 -32 27 -64 73 -87 18 -9 40 -23 49 -31 13 -12 31 -14 80 -9
93 10 97 6 103 -134 2 -63 7 -214 10 -335 3 -121 7 -272 10 -335 2 -63 7 -207
10 -320 4 -113 8 -257 10 -320 2 -63 7 -212 10 -330 4 -118 8 -240 11 -270 4
-53 10 -278 13 -468 1 -59 5 -91 11 -87 6 4 10 -6 10 -24 0 -16 3 -37 7 -47 4
-12 3 -15 -5 -10 -9 5 -12 -5 -12 -34 0 -28 4 -39 11 -34 8 4 9 -3 3 -27 -8
-36 -13 -159 -7 -171 6 -12 20 -429 22 -708 1 -52 6 -110 12 -129 9 -26 9 -35
-2 -43 -9 -6 -10 -11 -3 -14 7 -3 9 -24 6 -56 -3 -30 -1 -49 4 -45 6 3 8 -10
6 -31 -11 -114 4 -539 24 -660 3 -20 1 -32 -4 -28 -5 3 -7 -7 -5 -22 2 -15 4
-84 3 -154 -1 -90 2 -128 10 -128 7 0 9 -8 5 -20 -3 -10 -2 -35 4 -55 6 -21 6
-37 0 -41 -5 -3 -7 -50 -3 -112 3 -59 7 -156 8 -217 l2 -110 42 -7 c22 -4 49
-11 59 -16 16 -9 149 -46 308 -87 28 -7 95 -20 150 -30 55 -9 116 -23 135 -30
19 -8 60 -16 90 -20 30 -3 70 -11 89 -17 31 -10 95 -25 200 -48 24 -6 49 -14
56 -20 6 -5 96 -30 201 -55 104 -25 205 -50 224 -55 19 -6 136 -35 260 -65
124 -30 248 -61 275 -69 28 -8 127 -33 220 -56 477 -116 502 -124 547 -173 30
-33 38 -48 34 -68 -3 -14 0 -31 6 -37 8 -8 8 -15 -1 -26 -7 -8 -14 -25 -16
-38 -3 -12 -16 -72 -31 -133 -14 -60 -29 -133 -34 -161 -10 -64 -19 -95 -33
-113 -6 -7 -12 -18 -13 -25 -5 -33 -47 -207 -59 -246 -8 -25 -18 -67 -21 -95
-3 -27 -12 -70 -19 -95 -7 -25 -25 -99 -40 -165 -15 -66 -36 -156 -46 -199
-10 -44 -19 -89 -19 -101 0 -12 -4 -25 -8 -31 -5 -5 -14 -40 -21 -79 -17 -101
-30 -145 -42 -145 -7 0 -8 10 -4 27 8 31 24 99 29 123 3 18 24 119 36 175 5
22 14 69 20 105 6 36 18 90 25 120 8 30 21 91 29 135 9 44 38 188 67 320 119
559 122 577 115 638 -6 58 -35 101 -84 126 -21 10 -89 30 -152 45 -63 15 -124
30 -135 32 -11 3 -54 14 -95 25 -41 11 -118 30 -170 43 -116 29 -760 193 -925
236 -66 17 -237 60 -380 96 -143 36 -289 73 -325 83 -61 18 -93 26 -280 71
-41 10 -147 37 -235 60 -329 85 -441 112 -472 113 -56 2 -94 -58 -114 -181 -5
-37 -14 -76 -19 -87 -5 -11 -16 -58 -25 -105 -9 -47 -25 -121 -35 -165 -17
-69 -83 -370 -97 -445 -7 -33 -149 -707 -177 -834 l-21 -100 -35 -8 c-19 -5
-51 -12 -70 -17 -19 -5 -125 -26 -235 -46 -110 -21 -254 -48 -320 -62 -66 -13
-149 -28 -185 -33 -36 -6 -78 -14 -94 -20 -16 -5 -44 -10 -62 -10 -18 0 -44
-4 -57 -9 -35 -14 -177 -23 -177 -12 0 10 -58 12 -74 3 -4 -2 -3 -8 4 -12 7
-5 -1 -9 -21 -12 -26 -4 -29 -3 -16 7 13 9 15 24 11 69 -4 51 -2 58 12 52 8
-3 18 -6 20 -6 6 0 28 -53 26 -62 -1 -5 9 -8 22 -8 18 0 25 7 29 28 3 15 9 35
12 45 5 12 2 17 -10 17 -9 0 -24 7 -32 16 -15 14 -17 14 -25 0 -9 -16 -48 -23
-48 -8 0 4 4 22 9 40 6 20 6 32 0 32 -5 0 -9 18 -9 40 0 22 -4 40 -10 40 -5 0
-10 8 -11 18 0 10 -3 12 -6 5 -2 -7 -9 -13 -14 -13 -14 0 -10 27 5 33 17 7 15
65 -2 76 -16 10 -5 41 14 41 10 0 13 -8 9 -27 -5 -27 -5 -27 6 -5 7 12 16 22
21 22 4 0 8 13 8 29 0 21 5 28 18 27 9 0 20 -8 24 -16 5 -8 5 0 2 18 -3 18
-12 45 -19 59 -8 15 -11 39 -8 54 3 18 0 34 -10 44 -23 23 -27 19 -27 -25 0
-22 5 -40 11 -40 14 0 7 -52 -8 -57 -17 -6 -43 53 -30 66 8 8 7 11 -3 11 -10
0 -16 12 -17 34 -3 30 0 35 25 41 25 5 28 10 27 45 0 31 -4 40 -17 40 -10 0
-18 -5 -18 -10 0 -6 -8 -5 -20 2 -25 16 -29 88 -4 88 8 0 12 5 9 10 -3 6 -14
10 -23 10 -34 0 -45 15 -31 41 7 13 12 28 11 33 -2 5 4 31 13 58 17 52 7 79
-26 71 -9 -3 -19 3 -23 12 -4 12 -2 16 8 12 9 -4 16 3 20 16 3 12 1 24 -4 25
-6 2 -10 10 -10 18 0 8 -6 14 -14 14 -23 0 -27 42 -6 63 11 10 20 23 19 30 0
9 -2 9 -6 0 -12 -30 -23 -9 -23 45 0 31 -6 69 -14 83 -9 19 -12 51 -9 110 4
74 2 87 -16 106 -13 14 -18 28 -14 39 4 12 3 15 -5 10 -8 -5 -12 0 -12 14 0
12 4 19 9 15 5 -3 12 -1 15 4 8 12 -4 42 -13 36 -4 -2 -5 9 -3 26 3 17 0 29
-7 29 -6 0 -11 11 -11 25 0 14 5 25 10 25 13 0 10 70 -2 87 -5 7 -5 14 2 18 8
5 7 12 -4 24 -11 12 -17 44 -20 104 -2 48 -8 86 -12 85 -9 -3 -7 -147 1 -178
3 -8 7 -42 9 -75 8 -95 34 -432 41 -520 3 -44 7 -96 9 -115 3 -19 12 -132 20
-250 9 -118 21 -258 26 -310 13 -129 53 -643 54 -705 l1 -50 -50 -13 c-46 -13
-154 -35 -234 -49 -23 -4 -29 -8 -20 -14 10 -6 8 -9 -8 -9 -13 0 -23 4 -23 9
0 15 -120 -26 -144 -48 -24 -22 -96 -30 -96 -10 0 6 -17 8 -47 4 -72 -9 -133
-28 -133 -40 0 -6 -23 -17 -51 -24 -51 -13 -75 -8 -49 10 12 8 11 9 -5 5 -11
-2 -53 -10 -94 -17 -56 -10 -75 -17 -79 -31 -3 -14 -11 -17 -41 -12 -33 5 -40
1 -83 -41 -62 -60 -62 -84 3 -195 30 -51 52 -100 47 -106 -6 -6 -104 -30 -243
-59 -82 -17 -232 -50 -325 -70 -36 -8 -90 -19 -120 -25 -68 -12 -211 -47 -216
-53 -10 -9 205 6 254 18 28 7 61 11 72 8 12 -3 29 2 40 12 14 12 41 18 101 21
51 2 91 9 105 19 13 8 38 15 56 15 18 0 48 4 66 9 20 6 32 6 32 0 0 -5 13 -3
30 6 16 8 34 15 39 15 6 0 35 11 65 25 33 15 73 25 101 25 25 0 59 7 76 15 21
11 74 18 182 22 123 4 165 10 220 29 38 13 72 23 75 22 4 -1 23 5 43 14 20 9
56 19 80 23 58 9 209 53 223 64 6 5 31 12 56 16 25 4 54 14 65 21 11 8 29 14
42 14 12 0 25 4 28 10 3 5 14 10 24 10 10 0 24 7 31 15 7 8 27 15 46 15 18 0
36 5 39 10 9 15 98 12 172 -7 58 -14 82 -15 178 -5 60 6 148 15 195 18 l85 6
24 -31 c16 -21 33 -31 51 -31 27 0 60 -26 60 -48 0 -6 10 -19 23 -29 13 -10
22 -24 19 -31 -2 -7 4 -19 14 -27 17 -12 20 -11 24 13 4 22 15 30 74 49 96 32
139 38 157 21 8 -7 32 -21 54 -31 22 -10 51 -27 65 -39 23 -19 23 -21 7 -33
-16 -12 -16 -13 8 -19 14 -4 30 -4 35 -1 5 3 17 1 27 -4 10 -5 37 -14 61 -21
23 -6 41 -14 39 -18 -3 -4 4 -16 14 -26 20 -20 20 -19 23 28 1 11 8 21 16 23
13 4 13 3 0 -7 -10 -8 -11 -13 -4 -16 7 -3 10 -14 7 -24 -4 -14 0 -20 11 -20
9 0 16 -4 16 -10 0 -5 19 -18 43 -29 23 -10 58 -26 77 -35 19 -8 49 -24 65
-33 17 -10 73 -42 125 -71 52 -29 102 -57 110 -62 8 -5 31 -17 50 -27 19 -9
63 -34 97 -54 33 -21 78 -46 100 -56 42 -21 152 -82 168 -93 10 -7 224 -121
280 -149 17 -8 51 -29 78 -47 26 -18 58 -36 70 -40 12 -4 24 -9 27 -13 3 -3
25 -16 50 -28 25 -12 68 -36 95 -52 28 -17 77 -44 110 -60 33 -17 67 -35 75
-41 22 -15 211 -120 216 -120 7 0 177 -99 198 -115 19 -15 19 -15 1 -28 -10
-8 -15 -19 -11 -25 10 -17 41 -15 56 3 7 8 17 12 24 8 6 -3 8 -3 4 2 -4 4 -2
15 4 23 10 11 7 18 -12 33 -14 10 -36 25 -50 32 -14 7 -34 18 -45 24 -11 6
-45 24 -75 39 -30 15 -68 37 -85 49 -16 12 -46 28 -65 35 -19 7 -48 23 -65 35
-16 12 -73 43 -125 70 -122 61 -183 96 -207 118 -11 9 -22 15 -25 12 -3 -3
-27 7 -54 24 -27 16 -82 46 -121 67 -40 21 -73 42 -73 46 0 4 -9 8 -19 8 -11
0 -26 6 -33 13 -7 6 -49 30 -93 52 -44 21 -109 57 -144 78 -36 21 -72 42 -80
45 -9 4 -48 26 -88 50 -39 23 -76 42 -81 42 -5 0 -21 9 -36 21 -14 11 -26 17
-26 13 0 -4 -8 0 -17 9 -15 13 -151 87 -268 145 -16 8 -58 33 -92 55 -53 34
-63 44 -63 68 0 16 5 29 11 29 21 0 167 -81 173 -96 3 -8 10 -13 15 -9 9 5 30
-5 176 -87 28 -15 85 -44 128 -64 42 -20 77 -41 77 -45 0 -5 9 -9 19 -9 11 0
22 -4 25 -9 3 -5 25 -18 48 -30 141 -72 168 -88 161 -95 -5 -4 -3 -6 2 -5 11
4 100 -39 150 -71 28 -18 72 -41 140 -76 17 -8 41 -21 55 -29 14 -8 54 -30 90
-50 36 -19 72 -39 80 -43 8 -5 31 -17 50 -27 97 -49 167 -88 181 -101 8 -8 25
-14 37 -14 12 0 22 -4 22 -9 0 -5 10 -13 23 -17 12 -4 24 -9 27 -13 3 -3 39
-23 80 -44 41 -20 111 -57 155 -82 44 -25 92 -50 108 -57 23 -11 27 -18 27
-54 0 -31 5 -43 18 -48 28 -10 145 -75 162 -91 9 -8 22 -15 29 -15 7 0 25 -8
39 -19 15 -10 44 -26 65 -34 20 -9 37 -19 37 -23 0 -3 -11 -19 -25 -36 -33
-39 -32 -48 10 -48 20 0 59 -13 92 -32 32 -17 90 -48 128 -68 39 -21 70 -43
70 -51 0 -7 -17 -18 -37 -24 -20 -5 -40 -13 -44 -18 -7 -7 -60 -33 -164 -79
-25 -11 -62 -29 -83 -39 -22 -11 -43 -19 -48 -19 -5 0 -28 -12 -50 -26 -23
-14 -48 -27 -58 -29 -23 -5 -70 -27 -116 -55 -22 -14 -49 -25 -60 -25 -11 0
-26 -8 -34 -18 -7 -10 -20 -16 -28 -13 -8 3 -11 1 -8 -4 3 -6 1 -10 -5 -10 -6
0 -42 -15 -80 -34 -38 -19 -87 -40 -109 -47 -22 -7 -48 -20 -57 -31 -10 -10
-21 -18 -27 -18 -5 0 -64 -27 -131 -59 -66 -33 -132 -64 -146 -70 -14 -6 -32
-15 -40 -20 -24 -15 -329 -161 -336 -161 -8 0 -121 -57 -159 -80 -16 -10 -40
-19 -52 -19 -12 -1 -25 -6 -29 -12 -6 -10 -86 -49 -111 -55 -7 -1 -25 -11 -40
-21 -44 -30 -589 -294 -688 -334 -79 -31 -209 -7 -283 54 -22 17 -68 55 -103
82 -35 28 -70 57 -78 67 -9 9 -33 30 -55 47 -36 29 -74 60 -186 156 -26 22
-68 58 -95 80 -70 59 -144 121 -195 165 -25 22 -76 66 -115 98 -38 32 -81 68
-95 80 -69 59 -173 142 -179 142 -3 0 -22 15 -41 33 -19 18 -53 46 -75 62 -22
16 -72 56 -111 90 -39 33 -90 76 -114 95 -63 52 -121 101 -160 137 -19 17 -54
46 -77 65 -65 52 -222 184 -287 241 -122 107 -123 106 -102 -79 8 -77 20 -195
26 -264 11 -127 13 -145 30 -350 5 -63 14 -160 19 -215 6 -55 15 -156 21 -225
6 -69 15 -172 20 -230 5 -58 12 -136 15 -175 6 -72 13 -116 22 -148 3 -14 8
-15 18 -7 30 25 148 39 265 31 90 -6 118 -5 128 6 7 7 20 13 28 13 8 0 14 4
14 9 0 6 8 10 18 11 9 0 53 3 97 6 80 5 245 -7 360 -26 33 -6 83 -13 112 -16
29 -4 58 -14 66 -23 15 -17 120 -210 115 -212 -2 -1 -25 -2 -53 -4 -87 -4
-298 -45 -343 -65 -23 -11 -53 -20 -66 -20 -12 0 -51 -9 -85 -20 -34 -12 -65
-18 -70 -16 -4 3 -25 1 -45 -5 -25 -7 -40 -18 -46 -35 -13 -32 -13 -30 7 -49
13 -14 14 -18 2 -25 -17 -11 -13 -15 37 -32 28 -10 49 -12 65 -6 13 5 40 7 60
4 57 -9 92 2 119 39 14 19 30 34 35 33 38 -3 76 4 87 16 8 7 25 17 38 21 14 4
30 11 35 16 12 9 102 5 113 -5 3 -4 0 -16 -7 -28 -7 -11 -18 -39 -25 -62 -7
-22 -25 -58 -39 -79 -21 -30 -24 -43 -17 -62 5 -13 6 -26 1 -29 -8 -5 -25 -77
-37 -156 -8 -56 -28 -80 -68 -80 -17 0 -37 -4 -44 -9 -17 -11 -21 -63 -5 -76
10 -8 10 -26 2 -84 -6 -41 -8 -86 -6 -100 7 -35 -11 -193 -23 -205 -13 -13
-13 -76 -1 -76 16 0 105 41 122 56 10 9 15 25 12 42 -20 145 -9 263 32 323 14
19 25 42 25 50 0 9 11 26 25 39 13 12 22 27 19 32 -3 5 0 16 7 24 10 13 10 17
0 23 -10 7 -10 13 -2 29 6 11 11 48 11 81 0 33 5 63 10 66 6 3 10 19 10 36 0
16 4 29 8 29 14 0 42 57 42 85 0 48 22 105 40 105 9 0 25 7 36 15 39 29 68 17
102 -42 28 -52 15 -68 -63 -75 -27 -3 -30 -7 -33 -40 -3 -31 0 -37 12 -32 13
5 16 -1 16 -31 0 -20 4 -44 10 -54 12 -23 -4 -83 -33 -131 -12 -19 -29 -62
-38 -95 -21 -76 -73 -221 -86 -237 -6 -7 -16 -31 -23 -53 -7 -22 -16 -44 -21
-50 -5 -5 -9 -17 -9 -27 0 -10 -4 -18 -10 -18 -14 0 -13 -33 2 -48 15 -15 31
-16 22 0 -4 6 -3 8 3 5 21 -13 72 5 79 27 3 11 22 53 40 92 19 39 45 102 59
139 13 37 31 75 40 85 8 9 15 28 15 43 0 16 11 36 27 52 33 30 35 30 58 5 26
-28 12 -53 -25 -48 -35 5 -40 -4 -44 -98 -2 -32 -7 -84 -11 -115 -9 -70 1 -79
52 -44 21 14 42 25 48 25 6 0 28 9 50 20 22 11 46 20 53 20 8 0 36 16 63 35
52 37 87 50 105 38 7 -5 31 -44 54 -88 23 -44 52 -98 65 -120 26 -43 24 -49
-16 -59 -21 -4 -33 1 -58 24 -36 35 -45 36 -69 12 -46 -46 -31 -64 35 -40 40
14 53 4 26 -19 -11 -10 -18 -23 -16 -29 4 -13 -65 -74 -83 -74 -6 0 -16 -11
-22 -25 -6 -14 -17 -25 -23 -25 -6 0 -29 -15 -49 -32 -21 -18 -60 -49 -86 -68
-47 -35 -100 -79 -136 -113 -10 -9 -28 -17 -41 -17 -26 0 -116 54 -134 80 -28
39 -135 31 -149 -12 -4 -15 2 -28 26 -49 17 -16 37 -29 43 -29 7 0 29 -17 50
-36 l39 -37 -21 -20 c-11 -12 -35 -26 -53 -31 -24 -8 -34 -19 -40 -44 -5 -18
-15 -35 -23 -39 -50 -18 23 -23 378 -23 292 0 396 3 405 12 9 9 12 9 12 0 0
-7 16 -12 40 -12 28 0 40 4 40 14 0 9 7 12 19 9 11 -3 27 -1 36 4 23 13 65 4
65 -13 0 -8 10 -14 25 -14 18 0 23 4 19 15 -4 8 -15 15 -25 15 -10 0 -19 5
-19 10 0 6 -9 10 -20 10 -16 0 -20 7 -20 30 0 25 4 30 24 30 13 0 34 11 47 24
17 18 27 22 36 14 7 -5 17 -7 24 -3 8 6 8 10 -2 15 -18 12 12 39 45 42 14 1
26 7 27 13 1 25 18 -34 18 -68 1 -21 5 -47 11 -57 8 -15 6 -17 -10 -13 -11 3
-23 17 -27 31 -5 21 -8 23 -17 10 -8 -11 -26 -14 -69 -12 -43 2 -57 0 -57 -11
0 -7 -10 -17 -22 -21 -22 -7 -22 -7 -3 -15 32 -12 55 -10 55 6 0 8 5 15 10 15
6 0 10 -6 10 -14 0 -7 8 -16 18 -20 9 -3 31 -14 47 -25 35 -23 71 -27 78 -8 4
9 7 9 18 -1 10 -9 887 -12 4316 -12 l4303 0 0 6160 c0 4912 -3 6160 -13 6161
-6 1 -41 3 -77 5 -68 3 -248 37 -278 53 -9 5 -61 19 -115 31 -53 12 -104 28
-112 37 -27 27 -18 63 28 107 137 133 260 246 268 246 5 0 9 5 9 10 0 7 -6 7
-19 0 -24 -12 -71 -13 -71 -2 0 17 36 40 73 47 40 8 77 44 77 78 0 19 -1 19
-50 5 -8 -3 -11 -3 -7 0 5 2 12 15 17 28 6 14 26 34 45 45 19 12 32 25 29 30
-3 5 8 12 24 15 16 3 43 19 60 35 17 16 34 29 37 29 4 0 22 12 41 26 l34 26 0
1094 0 1094 -2186 0 c-1946 0 -2186 -2 -2180 -15 9 -25 -5 -77 -20 -71 -7 3
-16 1 -19 -4 -4 -6 -29 -10 -56 -10 -28 0 -48 -4 -45 -9 3 -5 -4 -11 -15 -14
-11 -3 -23 -14 -25 -24 -3 -11 -34 -30 -87 -51 -45 -19 -90 -38 -99 -43 -43
-22 -58 -30 -148 -72 -52 -25 -105 -48 -117 -51 -11 -4 -27 -13 -33 -21 -7 -8
-23 -15 -35 -15 -12 0 -28 -6 -34 -14 -6 -7 -32 -19 -56 -26 -25 -7 -48 -17
-51 -21 -3 -5 -13 -9 -21 -9 -9 0 -44 -13 -77 -29 -34 -16 -75 -35 -93 -42
-17 -7 -30 -16 -27 -20 2 -4 -18 -12 -44 -19 -26 -6 -67 -22 -91 -36 -24 -13
-52 -24 -62 -24 -10 0 -21 -4 -24 -10 -3 -5 -13 -10 -21 -10 -15 0 -76 -39
-82 -52 -2 -5 -10 -8 -17 -8 -8 0 -30 -9 -49 -21 -20 -11 -44 -22 -53 -23 -10
-2 -18 -9 -18 -17 0 -14 -64 -53 -73 -44 -3 3 5 14 18 25 16 14 21 26 16 44
-5 19 4 42 33 90 22 35 49 82 60 104 18 35 26 41 83 56 95 27 105 36 114 103
9 63 8 62 16 83 3 8 11 42 18 75 6 33 15 76 20 95 5 19 12 61 16 93 l7 57
-175 0 -174 0 -22 -127z m-248 -752 c3 -4 23 -5 45 -1 22 4 46 3 53 -1 8 -6
-3 -9 -29 -9 -31 0 -48 -6 -67 -25 -14 -14 -30 -25 -35 -25 -15 0 -34 39 -27
56 6 15 51 19 60 5z m-244 -46 c7 -8 17 -12 24 -8 6 3 3 -3 -6 -14 -10 -11
-18 -24 -18 -30 0 -13 -47 -26 -60 -18 -13 8 -1 35 16 35 8 0 14 5 14 10 0 6
-7 10 -15 10 -18 0 -20 16 -2 23 22 9 34 7 47 -8z m-137 -31 c14 -14 -15 -43
-48 -50 -40 -7 -48 -24 -36 -77 8 -35 7 -39 -16 -50 -21 -9 -27 -8 -39 8 -8
10 -14 25 -14 33 0 10 -8 12 -29 7 -23 -5 -30 -2 -35 13 -9 27 1 47 30 60 13
7 24 18 24 25 0 8 10 19 23 25 24 12 130 16 140 6z m4800 -35 c15 -6 27 -17
27 -24 0 -7 9 -15 20 -18 30 -8 25 -52 -11 -97 -31 -38 -32 -41 -24 -107 4
-37 8 -83 9 -102 2 -20 13 -46 27 -60 49 -53 54 -77 21 -110 -11 -11 -13 -29
-8 -71 9 -79 -1 -137 -25 -143 -11 -3 -19 -13 -19 -22 0 -22 -43 -63 -124
-118 -7 -5 0 -17 22 -37 17 -16 32 -33 32 -37 0 -4 16 -23 35 -43 31 -32 36
-45 45 -114 6 -51 6 -84 0 -96 -12 -23 -13 -43 -1 -36 13 8 23 -24 12 -38 -5
-6 -8 -54 -5 -106 2 -52 4 -98 4 -102 0 -5 8 -8 18 -8 16 -1 16 -2 -1 -15 -13
-9 -18 -24 -16 -49 4 -40 -5 -54 -24 -38 -34 28 -36 -30 -3 -78 12 -19 26 -52
30 -72 4 -21 11 -38 17 -38 11 0 33 -49 30 -66 0 -6 5 -17 13 -23 10 -8 12
-21 6 -44 -9 -39 -50 -117 -62 -117 -4 0 -8 -22 -8 -50 0 -33 4 -50 13 -50 8
0 7 -4 -3 -10 -12 -8 -9 -10 11 -10 30 0 48 -28 27 -42 -7 -4 -38 -8 -68 -8
-30 0 -62 -5 -70 -10 -13 -8 -13 -11 0 -24 8 -8 28 -17 44 -20 40 -7 46 -20
46 -100 0 -55 -3 -67 -12 -58 -16 16 -28 15 -28 -3 0 -8 -7 -15 -15 -15 -19 0
-19 -9 0 -34 8 -11 15 -28 15 -38 0 -17 -5 -20 -40 -22 -10 -1 -15 -12 -16
-33 0 -20 -9 -42 -23 -57 -20 -22 -29 -24 -76 -19 -33 4 -55 1 -59 -6 -4 -6
-16 -11 -27 -11 -21 0 -27 -20 -6 -20 6 0 4 -5 -7 -11 -18 -11 -33 -14 -156
-29 -36 -4 -69 -9 -75 -10 -24 -6 -37 2 -46 30 -17 47 -37 42 -126 -30 -16
-13 -46 -13 -38 0 3 5 -14 15 -37 21 -24 7 -47 16 -53 19 -5 4 -44 8 -85 9
-109 2 -176 11 -231 31 -27 10 -57 16 -68 13 -11 -3 -21 2 -24 11 -4 9 -11 16
-17 16 -6 0 -9 -4 -6 -9 3 -5 -1 -14 -10 -21 -12 -11 -17 -11 -27 0 -9 10 -9
13 1 17 26 10 10 23 -25 22 -21 -1 -30 -3 -20 -6 9 -2 17 -9 17 -15 0 -6 -9
-7 -22 -3 -13 4 -39 9 -58 11 -27 3 -31 2 -15 -5 19 -9 19 -10 -2 -10 -39 -2
-101 29 -107 52 -3 12 -2 25 2 29 9 9 77 11 123 2 34 -6 37 -4 48 27 6 18 10
33 9 33 -39 19 -61 25 -97 29 -24 3 -48 11 -52 19 -11 16 -11 79 -1 95 15 24
64 33 166 30 58 -1 107 1 110 4 9 9 25 144 34 290 6 98 12 130 25 143 9 10 17
24 17 32 0 9 11 14 29 14 17 0 33 5 36 11 4 5 17 9 28 8 12 -1 33 1 47 4 14 3
49 9 79 12 87 9 101 15 101 40 0 42 49 66 140 69 l45 1 3 -106 3 -107 29 -4
c17 -3 30 -2 31 1 1 3 3 40 5 81 2 41 5 95 8 120 2 25 6 110 9 189 4 82 11
149 18 157 8 10 8 22 -1 48 -9 29 -8 39 5 60 11 16 13 26 6 31 -6 3 -11 21
-11 40 0 38 37 75 76 75 18 0 64 14 82 26 2 1 -1 12 -8 23 -17 33 20 91 59 91
11 0 26 7 35 15 8 8 22 15 30 15 9 0 16 6 16 13 0 18 -84 41 -106 29 -20 -11
-51 -5 -57 12 -3 7 0 85 7 174 10 146 13 163 32 176 31 22 84 218 86 316 0 30
5 61 10 67 6 7 8 24 6 38 -4 19 2 31 24 50 16 14 37 25 46 25 9 1 27 6 39 13
30 17 82 19 116 6z m-5036 -53 c0 -8 -6 -12 -14 -9 -7 3 -10 9 -7 14 8 14 21
11 21 -5z m-25 -72 c18 -5 40 -56 29 -70 -5 -8 -56 -30 -86 -38 -5 -1 -22 -9
-37 -16 -29 -14 -55 -8 -64 14 -7 19 37 114 56 120 15 4 71 -1 102 -10z m6438
-1349 c-13 -14 -30 -23 -37 -21 -7 3 -13 -1 -13 -9 0 -10 -11 -15 -35 -15 -24
0 -35 -5 -35 -15 0 -8 -7 -15 -15 -15 -8 0 -15 -3 -15 -7 0 -9 -48 -33 -65
-33 -7 0 -20 -9 -30 -20 -20 -22 -49 -27 -43 -7 3 6 13 14 24 16 10 2 23 9 29
16 5 7 37 27 70 45 33 18 74 44 92 57 30 23 83 44 92 37 3 -2 -6 -15 -19 -29z
m-1130 -310 c19 -23 18 -137 -5 -515 -3 -41 -7 -107 -9 -145 -8 -126 -51 -169
-77 -77 -7 26 -12 51 -11 56 2 5 -2 12 -7 16 -21 12 -18 90 4 90 10 0 15 10
15 29 0 16 5 52 12 80 8 38 9 54 0 63 -8 8 -7 16 3 32 8 13 15 57 16 116 3 83
1 95 -14 98 -12 3 -17 13 -17 39 0 29 2 33 14 24 10 -8 16 -9 21 -1 3 5 -1 13
-9 16 -14 5 -14 9 -1 34 8 16 15 36 15 45 0 19 34 20 50 0z m-4765 -195 c4 -6
-6 -10 -22 -10 -22 0 -25 2 -13 10 19 12 27 12 35 0z m-170 -40 c-28 -12 -78
-12 -70 0 3 6 25 10 48 9 33 0 38 -2 22 -9z m-126 -20 c-24 -14 -106 -25 -94
-12 10 11 43 19 85 20 20 1 22 0 9 -8z m-129 -19 c0 -10 -90 -34 -98 -26 -10
10 13 24 48 28 19 2 38 5 43 5 4 1 7 -2 7 -7z m225 -50 c-16 -14 -55 -23 -55
-13 0 12 17 20 45 21 11 1 15 -3 10 -8z m198 -2 c40 2 46 -13 16 -36 -9 -7
-22 -26 -29 -42 -9 -23 -21 -32 -47 -37 -18 -4 -31 -9 -28 -12 7 -8 -77 -32
-132 -39 -24 -3 -41 -8 -39 -12 3 -4 -11 -6 -30 -6 -19 1 -34 -3 -34 -8 0 -5
-12 -7 -26 -4 -14 2 -47 -3 -72 -13 -71 -26 -307 -54 -331 -38 -34 21 -43 91
-13 103 35 15 108 28 157 27 28 -1 80 6 117 14 37 8 80 14 97 14 17 0 34 7 39
15 10 19 91 41 184 50 36 3 74 13 85 20 10 8 25 12 33 8 8 -3 32 -5 53 -4z
m5902 -87 c6 -4 10 -20 10 -37 0 -27 3 -30 31 -30 27 0 64 -23 64 -39 0 -10
-34 -6 -60 7 -14 7 -33 11 -43 9 -16 -3 -18 -11 -14 -50 3 -26 6 -48 6 -49 1
0 16 -10 34 -22 37 -24 14 -30 -31 -7 -15 7 -45 16 -67 18 -23 3 -59 15 -80
26 -22 11 -74 37 -115 58 -74 37 -90 49 -90 69 0 6 4 4 8 -3 7 -10 19 -10 57
-2 27 6 76 9 108 6 56 -5 61 -4 86 24 26 29 72 40 96 22z m241 -29 c-10 -10
-19 5 -10 18 6 11 8 11 12 0 2 -7 1 -15 -2 -18z m-41 -133 c10 -11 16 -23 12
-26 -11 -11 -62 12 -65 29 -5 24 31 22 53 -3z m-5190 -37 c6 -12 16 -27 23
-35 6 -8 9 -18 5 -21 -10 -10 18 -37 38 -37 11 0 19 -4 19 -10 0 -5 -11 -10
-25 -10 -14 0 -25 -5 -25 -11 0 -6 -9 -9 -20 -6 -24 6 -36 -8 -14 -17 25 -9
64 -7 64 4 0 6 5 10 10 10 6 0 10 -9 10 -19 0 -10 7 -22 17 -25 14 -6 14 -9
-5 -27 -41 -38 -24 -45 37 -16 19 9 25 9 28 0 3 -8 21 -13 44 -13 29 0 39 4
39 16 0 12 5 14 18 9 9 -5 32 -13 50 -19 30 -10 44 -26 22 -26 -5 0 -10 -7
-10 -16 0 -10 6 -13 18 -10 12 4 26 -1 37 -14 33 -36 -6 -49 -107 -36 -50 6
-61 5 -97 -18 -22 -14 -52 -26 -66 -26 -20 0 -25 -4 -21 -17 6 -21 -49 -53
-90 -53 -29 0 -35 13 -61 123 l-18 77 -62 0 c-58 0 -63 2 -69 25 -3 13 -14 27
-25 30 -18 6 -76 -17 -130 -52 -45 -29 -59 -13 -59 66 0 60 3 72 20 81 12 6
20 7 20 1 0 -5 13 -12 29 -16 16 -3 31 -14 34 -24 3 -14 12 -17 38 -13 56 7
68 26 66 94 -2 59 -2 59 23 53 14 -3 38 -6 55 -5 27 1 28 -1 12 -13 -10 -7
-17 -17 -16 -22 4 -17 -13 -45 -27 -45 -8 0 -14 -7 -14 -15 0 -8 5 -15 10 -15
6 0 10 5 10 10 0 19 27 10 52 -19 l26 -28 -24 -17 c-24 -19 -22 -51 2 -42 22
8 44 -4 44 -26 0 -10 4 -17 8 -14 4 3 7 29 6 58 -2 32 2 55 9 60 9 5 9 10 0
19 -16 16 1 39 28 39 12 0 19 7 19 20 0 24 -13 26 -35 4 -18 -18 -45 -12 -45
10 0 8 -8 17 -17 19 -15 4 -14 5 3 6 11 0 29 10 39 21 22 24 36 22 50 -7z
m1728 -13 c-5 -49 -14 -70 -28 -70 -8 0 -15 -4 -15 -9 0 -16 -36 -22 -79 -12
-24 5 -43 5 -47 0 -3 -5 -14 -9 -26 -9 -14 0 -18 5 -14 16 3 9 9 26 12 39 4
17 18 28 42 36 21 6 42 15 47 19 13 10 53 18 85 16 20 -1 25 -6 23 -26z m-433
-10 c8 -11 20 -20 27 -20 17 0 17 -62 1 -78 -14 -14 -84 -16 -92 -4 -3 5 -6
28 -7 51 -2 23 -8 45 -13 49 -6 3 0 9 14 13 42 12 55 10 70 -11z m-430 -49 c0
-6 15 -11 33 -13 24 -2 33 -8 35 -24 4 -27 -13 -40 -64 -48 -36 -6 -41 -5 -54
18 -7 15 -19 26 -27 26 -7 0 -13 5 -13 11 0 7 12 9 35 5 22 -4 35 -3 35 4 0 5
-6 10 -12 10 -9 0 -8 4 2 10 19 12 30 13 30 1z m175 -41 l29 -30 -25 0 c-25 0
-54 33 -44 50 8 13 8 14 40 -20z m803 -34 c3 -3 -1 -6 -9 -6 -8 0 -1 -7 15
-15 16 -9 29 -14 30 -13 10 26 28 44 47 46 13 2 28 8 34 13 14 13 67 10 88 -5
16 -13 16 -14 -5 -29 -23 -16 -22 -16 21 -16 36 -1 42 -3 32 -15 -10 -12 -8
-15 11 -18 19 -3 16 -6 -17 -16 -22 -7 -56 -12 -76 -12 -24 0 -39 -5 -43 -15
-3 -8 -12 -15 -20 -15 -10 0 -13 -6 -10 -15 4 -10 0 -15 -11 -15 -15 0 -52
-28 -44 -34 2 -1 29 -8 59 -15 37 -7 60 -19 68 -32 10 -16 10 -19 1 -14 -7 5
-10 4 -6 -2 8 -12 205 -7 241 7 38 14 56 13 56 -5 0 -23 97 -21 103 3 3 9 5
-1 6 -24 1 -33 6 -43 27 -54 22 -12 27 -12 34 0 6 8 10 25 10 37 0 16 5 20 20
16 26 -7 25 -18 -2 -37 -12 -9 -19 -19 -15 -23 4 -3 13 -1 19 5 15 15 58 16
58 2 0 -5 -4 -10 -10 -10 -16 0 -11 -27 6 -34 9 -3 31 -6 50 -6 28 0 38 6 52
30 9 16 20 30 23 30 3 0 14 -18 25 -40 21 -44 28 -47 52 -24 13 14 30 16 106
10 50 -4 93 -12 97 -18 4 -7 9 -7 13 1 9 13 112 15 120 2 4 -5 0 -12 -6 -14
-12 -5 22 -9 103 -11 20 -1 42 -6 50 -13 8 -6 43 -15 78 -19 57 -6 64 -5 58
10 -5 13 0 16 23 16 17 0 30 5 30 12 0 6 3 8 6 5 4 -4 1 -13 -5 -21 -7 -8 -8
-17 -3 -20 5 -3 15 6 22 19 18 33 60 35 61 3 l0 -23 9 22 c8 20 15 22 67 19
43 -2 59 -7 61 -19 2 -8 -6 -18 -17 -22 -24 -7 -26 -16 -8 -34 10 -11 9 -13
-5 -8 -14 5 -18 1 -18 -19 0 -14 3 -23 8 -21 11 7 303 17 594 21 145 3 268 5
273 6 42 9 95 -2 120 -26 l28 -26 -7 -106 c-3 -59 -11 -152 -16 -207 -6 -55
-12 -138 -15 -185 -10 -186 -15 -242 -25 -261 -7 -11 -8 -34 -3 -57 10 -50 7
-82 -11 -136 -9 -26 -18 -84 -20 -129 -2 -45 -9 -129 -15 -187 -6 -58 -14
-139 -17 -180 -4 -41 -12 -112 -18 -156 -7 -46 -9 -91 -4 -103 4 -13 4 -30 -1
-39 -4 -9 -6 -23 -4 -30 3 -8 -1 -34 -8 -59 -7 -26 -13 -103 -15 -172 -1 -69
-7 -148 -13 -176 -6 -27 -15 -72 -19 -100 -5 -27 -13 -59 -20 -71 -8 -15 -8
-24 -1 -31 8 -8 7 -18 -1 -33 -7 -14 -10 -38 -6 -62 4 -26 2 -46 -6 -55 -9
-11 -9 -19 -1 -33 8 -12 8 -21 1 -28 -6 -6 -13 -52 -15 -104 -3 -51 -10 -99
-15 -105 -6 -7 -8 -20 -4 -28 3 -8 -1 -50 -8 -93 -7 -42 -11 -92 -8 -111 3
-21 0 -36 -9 -41 -9 -6 -14 -36 -15 -94 -2 -46 -12 -132 -24 -190 -15 -76 -18
-111 -11 -124 6 -11 7 -23 3 -26 -12 -12 -30 -137 -31 -216 0 -41 -5 -94 -11
-116 -5 -23 -12 -72 -15 -110 -4 -38 -11 -100 -17 -139 -17 -114 -19 -127 -23
-200 -2 -39 -9 -101 -14 -139 -6 -38 -8 -73 -5 -77 2 -4 0 -10 -6 -14 -5 -3
-10 -20 -10 -38 2 -134 1 -159 -10 -172 -6 -7 -11 -39 -11 -71 -1 -33 -7 -84
-14 -114 -8 -30 -19 -111 -25 -180 -7 -69 -16 -134 -20 -145 -29 -77 -58 -177
-54 -188 2 -7 -1 -20 -8 -30 -12 -16 -16 -16 -68 2 -30 11 -75 24 -100 31 -25
7 -54 16 -65 20 -11 5 -38 12 -60 15 -22 4 -87 22 -145 40 -170 54 -244 75
-263 75 -9 0 -25 4 -35 10 -15 8 -68 23 -242 70 -34 9 -166 47 -325 94 -44 13
-106 31 -137 40 -32 9 -84 23 -115 32 -32 9 -69 20 -83 24 -14 4 -50 15 -80
23 -30 9 -104 30 -165 48 -60 17 -126 35 -145 39 -19 4 -71 19 -115 33 -93 30
-439 129 -570 163 -160 43 -228 62 -315 89 -47 15 -110 33 -141 40 -30 8 -89
25 -130 38 -66 22 -95 30 -149 42 -8 2 -68 20 -132 39 -64 20 -122 36 -129 36
-8 0 -59 14 -114 31 -55 16 -125 37 -155 46 -30 9 -64 19 -75 23 -21 8 -85 24
-175 45 -98 23 -204 54 -255 74 -27 10 -88 29 -135 41 -47 12 -93 26 -102 31
-10 5 -26 9 -37 9 -10 0 -32 7 -47 15 -16 8 -42 15 -57 15 -15 0 -47 9 -69 20
-23 11 -50 20 -59 20 -10 0 -20 4 -23 9 -3 5 -20 11 -38 14 -65 11 -254 55
-281 66 -16 6 -47 11 -69 11 -23 0 -46 6 -52 14 -6 7 -105 41 -221 75 -293 86
-320 101 -328 176 -2 17 -7 36 -11 43 -7 12 -2 607 9 942 3 85 7 310 10 500 3
190 10 482 15 650 5 168 12 422 15 565 8 333 21 621 29 633 3 5 48 13 98 16
51 4 120 11 153 17 79 13 137 2 141 -29 2 -12 -1 -22 -6 -22 -6 0 -10 -7 -10
-15 0 -8 -4 -15 -10 -15 -5 0 -10 -6 -10 -14 0 -8 -7 -16 -14 -19 -24 -10 -48
-65 -41 -97 4 -20 15 -32 37 -39 17 -6 32 -11 34 -11 4 0 22 60 34 110 10 41
36 116 51 146 9 17 21 21 61 23 28 1 55 4 61 8 16 10 76 15 166 14 46 0 90 4
97 10 7 5 68 12 136 15 134 5 186 17 167 40 -9 11 -7 14 11 14 13 0 24 -8 27
-20 4 -16 14 -20 43 -20 47 0 72 9 64 22 -4 7 0 7 12 0 29 -15 166 -14 210 2
31 11 35 15 21 21 -10 4 -32 0 -51 -9 -45 -21 -56 -20 -27 4 l23 20 -26 0
c-27 0 -30 8 -20 48 5 16 12 21 24 17 13 -4 21 2 28 25 11 29 26 38 36 21 9
-14 55 -1 49 14 -3 10 6 14 37 13 22 0 44 2 47 5 3 4 14 2 24 -4 12 -6 19 -6
19 0 0 15 70 -11 81 -31 8 -15 6 -18 -16 -18 -14 0 -25 5 -25 10 0 6 -9 10
-20 10 -11 0 -20 -4 -20 -10 0 -5 7 -10 15 -10 8 0 15 -7 15 -16 0 -12 6 -15
25 -10 17 4 25 2 25 -6 1 -7 10 -2 21 11 19 23 20 23 40 5 17 -15 23 -16 40
-6 18 11 21 9 30 -18 6 -16 15 -30 20 -30 5 0 9 -7 9 -16 0 -8 5 -12 11 -9 6
4 13 -2 16 -13 7 -29 48 -34 213 -22 80 6 205 13 279 16 73 2 136 6 140 8 3 2
33 7 66 11 77 8 83 15 15 15 -68 0 -59 10 15 17 65 6 106 -5 65 -17 -22 -7
-20 -8 14 -9 29 -1 37 2 33 13 -9 23 14 33 71 28 36 -3 52 -8 52 -18 0 -8 5
-14 10 -14 6 0 10 13 10 28 0 28 -1 28 -48 26 -26 -2 -126 -6 -222 -9 -353
-12 -426 -15 -482 -21 -50 -6 -58 -4 -58 10 0 20 -16 21 -24 1 -3 -8 -15 -15
-28 -15 -16 0 -19 3 -11 11 6 6 9 18 6 25 -3 10 3 14 18 14 31 0 53 15 45 29
-4 6 0 11 8 11 9 0 16 -6 16 -14 0 -9 7 -12 23 -9 18 4 19 3 7 -6 -12 -8 -7
-11 22 -11 20 0 38 -4 40 -9 2 -5 21 -10 43 -11 55 -3 65 -1 65 8 0 13 -75 33
-94 26 -9 -3 -16 -1 -16 5 0 6 4 11 9 11 19 0 22 35 5 47 -16 12 -15 13 10 13
16 0 35 -9 45 -21 14 -17 21 -20 36 -12 17 10 17 11 -3 17 -13 4 -22 16 -22
26 0 12 5 17 13 14 8 -3 20 2 27 11 7 8 19 15 26 15 8 0 14 5 14 10 0 20 19 9
22 -12 2 -13 11 -24 22 -26 15 -3 18 1 14 21 -4 19 0 27 14 30 10 3 22 16 27
29 l10 23 0 -22 c1 -18 7 -23 28 -23 21 0 24 3 15 12 -7 7 -12 20 -12 29 0 14
7 16 40 12 26 -4 40 -2 40 6 0 6 -8 11 -17 12 -13 0 -10 3 7 10 14 6 43 9 65
8 22 -1 47 1 55 4 32 12 160 23 174 15 10 -5 24 -4 36 2 30 16 44 8 45 -25 0
-15 6 -30 14 -33 10 -3 12 3 6 26 -7 34 13 52 57 52 22 -1 22 -1 5 -14 -23
-18 -20 -69 4 -74 18 -3 36 31 20 36 -6 2 -9 8 -6 12 3 5 12 7 20 3 9 -3 15 1
15 11 0 9 -7 16 -16 16 -13 0 -14 3 -4 15 10 13 14 13 27 0 8 -8 12 -19 8 -24
-10 -18 18 -24 31 -7 8 12 14 14 19 6 5 -9 9 -9 14 -1 5 7 15 4 30 -10 17 -16
26 -18 34 -10 6 6 21 11 34 11 13 0 23 5 23 10 0 6 -17 10 -38 10 -38 0 -62
14 -62 36 0 13 202 25 208 12 4 -8 76 0 109 13 l26 10 -23 24 c-18 19 -20 25
-8 25 9 0 21 6 27 14 32 38 165 15 211 -36 16 -18 84 -30 79 -13 -2 5 -13 11
-23 12 -31 5 -38 21 -37 76 1 24 -2 27 -29 27 -17 0 -39 4 -49 10 -14 7 -30 4
-62 -11 -32 -16 -52 -20 -83 -15 -23 4 -45 7 -51 7 -26 0 -71 -16 -84 -29 -11
-10 -25 -12 -55 -7 -23 4 -57 9 -76 10 -19 2 -38 4 -42 4 -5 1 -8 7 -8 14 0
16 33 34 75 41 17 2 59 13 95 24 63 18 65 20 62 50 -4 33 0 35 78 47 25 4 56
13 69 20 20 10 34 10 74 -1 27 -7 52 -15 55 -18z m-1148 -6 c0 -5 -2 -10 -4
-10 -3 0 -8 5 -11 10 -3 6 -1 10 4 10 6 0 11 -4 11 -10z m-530 -35 c0 -8 -4
-15 -9 -15 -13 0 -22 16 -14 24 11 11 23 6 23 -9z m409 -9 c9 -11 10 -20 1
-35 -10 -20 -12 -20 -35 -5 -30 19 -31 29 -7 43 23 14 28 13 41 -3z m-1379
-73 c0 -20 -3 -24 -11 -16 -7 7 -9 19 -6 27 10 24 17 19 17 -11z m74 -126 c34
-35 52 -67 37 -67 -10 0 -43 37 -66 73 -24 37 -10 34 29 -6z m3538 -28 c2 -6
27 -11 55 -12 49 -2 90 -17 45 -17 -14 0 -22 -7 -24 -22 l-3 -23 -23 23 c-18
18 -30 22 -50 18 -20 -5 -23 -4 -12 4 12 8 11 10 -7 10 -25 0 -31 15 -10 23
20 8 25 8 29 -4z m-2898 -22 c13 -13 5 -16 -62 -30 -89 -19 -308 -31 -316 -19
-3 5 0 16 7 25 9 11 40 17 122 22 61 3 115 11 120 17 14 14 112 3 129 -15z
m3426 -18 c0 -4 -11 -10 -25 -13 -14 -4 -25 -11 -25 -16 0 -5 -7 -7 -15 -4 -8
4 -15 10 -15 15 0 5 7 9 15 9 8 0 15 4 15 10 0 5 11 9 25 8 14 -1 25 -5 25 -9z
m4 -84 c-4 -8 -9 -15 -13 -15 -4 0 -8 7 -8 15 0 8 6 15 13 15 8 0 11 -6 8 -15z
m-2841 -25 c14 -17 14 -20 2 -20 -8 0 -15 7 -15 15 0 11 -11 15 -36 15 -23 0
-33 -4 -28 -11 3 -6 0 -15 -7 -20 -11 -6 -10 -9 3 -14 9 -4 14 -13 11 -21 -7
-19 -23 -18 -23 1 0 8 -7 15 -15 15 -17 0 -18 6 -5 35 6 14 9 15 10 5 0 -12 3
-11 11 3 14 24 70 22 92 -3z m66 -7 c0 -28 0 -28 -10 -4 -7 17 -15 22 -29 18
-11 -3 -20 -1 -20 4 0 5 14 9 30 9 26 0 30 -3 29 -27z m3231 4 c0 -5 -7 -7
-15 -3 -8 3 -15 1 -15 -5 0 -6 -4 -7 -10 -4 -18 11 -11 21 15 21 14 0 25 -4
25 -9z m-3752 -104 c-27 -3 -38 -9 -38 -21 0 -12 -3 -13 -12 -4 -17 17 -31 15
-24 -3 3 -8 0 -26 -6 -40 -11 -24 -11 -24 -25 -5 -12 17 -11 23 7 47 18 25 27
28 78 29 31 0 40 -1 20 -3z m129 -15 c-3 -8 -6 -5 -6 6 -1 11 2 17 5 13 3 -3
4 -12 1 -19z m-297 -8 c0 -5 -7 -10 -15 -10 -8 0 -15 5 -15 10 0 6 7 10 15 10
8 0 15 -4 15 -10z m-1287 -17 c-9 -3 -7 -12 8 -32 11 -15 17 -34 14 -43 -6
-15 -9 -14 -26 3 -10 10 -21 30 -25 43 -3 15 -15 27 -27 29 -12 2 -2 5 23 5
25 0 39 -2 33 -5z m1572 -2 c3 -5 1 -12 -5 -16 -5 -3 -10 1 -10 9 0 18 6 21
15 7z m-796 -55 c8 -2 17 -8 19 -14 6 -18 42 -14 42 4 0 8 5 12 10 9 6 -3 10
-14 10 -23 0 -14 -7 -17 -40 -14 -29 3 -40 0 -40 -9 -1 -9 -8 -5 -19 9 -11 12
-27 22 -36 22 -15 0 -15 3 -5 15 8 9 20 13 29 9 9 -3 23 -7 30 -8z m721 -51
c0 -16 -35 -21 -44 -6 -8 12 4 21 26 21 10 0 18 -7 18 -15z m-916 -14 c3 -5
-6 -11 -19 -14 -29 -5 -45 9 -18 16 29 8 32 7 37 -2z m-184 -55 c0 -3 -4 -8
-10 -11 -5 -3 -10 -1 -10 4 0 6 5 11 10 11 6 0 10 -2 10 -4z m-1673 -453 c-3
-10 -5 -4 -5 12 0 17 2 24 5 18 2 -7 2 -21 0 -30z m423 -707 c0 -3 -4 -8 -10
-11 -5 -3 -10 -1 -10 4 0 6 5 11 10 11 6 0 10 -2 10 -4z m-20 -161 c0 -14 -4
-25 -10 -25 -5 0 -10 11 -10 25 0 14 5 25 10 25 6 0 10 -11 10 -25z m25 -579
c-8 -42 -24 -50 -18 -8 7 39 13 56 19 49 3 -3 2 -21 -1 -41z m-2728 -2718 c-3
-8 -6 -5 -6 6 -1 11 2 17 5 13 3 -3 4 -12 1 -19z m63 -365 c0 -20 -3 -24 -11
-16 -7 7 -9 19 -6 27 10 24 17 19 17 -11z m47 -155 c-3 -7 -5 -2 -5 12 0 14 2
19 5 13 2 -7 2 -19 0 -25z m0 -250 c-3 -7 -5 -2 -5 12 0 14 2 19 5 13 2 -7 2
-19 0 -25z m-497 -522 c0 -5 -11 3 -25 18 -14 15 -30 24 -35 21 -12 -7 -12 -3
-3 21 5 14 10 12 34 -17 16 -19 29 -38 29 -43z m1771 -107 c11 -5 17 -14 14
-19 -3 -6 1 -7 9 -4 28 11 87 -36 107 -84 21 -49 21 -49 -1 -52 -30 -4 -40 0
-40 18 0 20 -33 52 -54 52 -20 0 -86 64 -86 84 0 18 22 21 51 5z m3492 -97
c-20 -77 -36 -101 -28 -42 8 60 25 111 35 105 4 -3 1 -31 -7 -63z m-33 -136
c0 -3 -4 -8 -10 -11 -5 -3 -10 -1 -10 4 0 6 5 11 10 11 6 0 10 -2 10 -4z m-18
-68 c-7 -7 -12 -8 -12 -2 0 14 12 26 19 19 2 -3 -1 -11 -7 -17z m-45 -230 c-9
-32 -13 -37 -15 -21 -3 19 13 63 22 63 2 0 -1 -19 -7 -42z m-427 -1072 c50
-29 116 -62 143 -70 21 -7 23 -51 3 -72 -13 -12 -23 -10 -78 13 -35 14 -72 34
-83 43 -18 16 -62 42 -75 46 -38 9 -53 37 -25 48 8 3 12 12 9 20 -8 21 49 6
106 -28z m-5 -341 c0 -27 -31 -32 -38 -6 -6 24 1 33 23 29 8 -2 15 -12 15 -23z
m480 -390 c213 -70 316 -90 555 -108 194 -15 184 -3 176 -210 -3 -82 -9 -153
-12 -159 -8 -13 -167 -2 -244 17 -30 7 -98 21 -150 30 -52 9 -103 19 -113 21
-17 5 -17 3 -7 -18 10 -19 10 -21 -1 -10 -7 6 -19 12 -27 12 -12 0 -12 -3 -2
-15 9 -10 9 -15 1 -15 -6 0 -11 -4 -11 -10 0 -5 7 -10 16 -10 15 0 15 -2 0
-25 -20 -30 -12 -49 17 -41 23 6 67 -2 67 -13 0 -3 -26 -19 -58 -35 -85 -44
-92 -52 -81 -89 11 -40 12 -87 1 -69 -9 13 -42 6 -42 -9 0 -4 -7 -6 -16 -2
-15 6 -15 8 2 20 10 7 27 13 37 13 15 0 17 3 9 13 -14 17 -101 15 -112 -3 -5
-8 -18 -11 -39 -7 -35 7 -50 -7 -24 -22 15 -8 16 -12 4 -23 -11 -10 -14 -10
-18 0 -7 19 -41 14 -53 -7 -5 -11 -7 -27 -4 -36 5 -12 2 -16 -12 -15 -42 5
-60 -1 -69 -22 -8 -18 -18 -23 -50 -23 -83 -2 -101 -5 -85 -15 16 -10 13 -11
-35 -14 -23 -1 -30 4 -35 23 -13 56 -87 53 -104 -4 -13 -44 -46 -114 -57 -120
-5 -4 -9 -16 -9 -29 0 -12 -7 -31 -15 -42 -29 -38 -9 -74 23 -42 6 6 15 8 19
3 5 -4 2 -10 -4 -12 -7 -3 -13 -14 -13 -25 0 -14 5 -18 19 -13 12 3 30 -3 49
-20 38 -32 43 -31 82 5 18 17 38 30 46 30 8 0 14 5 14 10 0 6 12 10 26 10 22
0 24 2 14 15 -23 28 -5 44 37 34 58 -13 100 -11 107 6 3 8 13 15 22 15 9 0 27
9 41 20 14 11 39 19 57 18 17 -1 40 3 51 9 60 31 294 42 303 15 2 -8 11 -7 27
4 30 20 45 11 45 -27 0 -25 -4 -29 -29 -29 -15 0 -40 -9 -54 -20 -32 -25 -37
-25 -37 3 -1 20 -2 20 -11 4 -6 -10 -23 -23 -37 -29 -22 -9 -23 -12 -10 -15
10 -3 21 -16 24 -30 5 -20 1 -30 -16 -43 -13 -10 -30 -15 -39 -12 -9 3 -12 1
-7 -6 4 -7 1 -12 -7 -12 -19 0 -34 -73 -17 -78 9 -3 10 -6 0 -12 -8 -5 -7 -11
5 -23 15 -16 14 -18 -12 -28 -15 -6 -42 -18 -60 -26 -18 -9 -38 -13 -46 -10
-8 3 -19 1 -25 -5 -7 -7 -19 -4 -38 9 -26 17 -28 17 -21 0 5 -14 1 -17 -28
-17 -41 0 -58 19 -18 21 l28 1 -30 7 c-20 4 -31 2 -33 -6 -5 -18 -107 -28
-142 -13 -17 7 -30 16 -30 21 0 10 -31 12 -54 3 -9 -3 -16 -10 -16 -15 0 -5
-9 -18 -20 -29 -11 -11 -20 -27 -20 -35 0 -18 -12 -19 -27 -4 -8 8 -15 3 -25
-18 -8 -17 -20 -27 -31 -25 -11 2 -17 -4 -17 -17 0 -31 -11 -50 -25 -45 -8 4
-20 -7 -29 -25 -15 -28 -15 -30 3 -33 18 -3 19 -5 5 -37 -13 -32 -16 -33 -30
-19 -15 15 -18 14 -40 -5 -13 -11 -24 -27 -24 -34 0 -8 -14 -19 -31 -25 -21
-7 -36 -22 -45 -45 -8 -19 -21 -36 -29 -40 -20 -7 -19 -33 0 -33 8 0 15 -9 15
-19 0 -11 5 -21 11 -23 7 -2 12 -30 13 -68 1 -50 -2 -65 -13 -65 -11 0 -14 15
-12 68 2 67 2 67 -25 67 l-27 0 6 60 c4 37 3 60 -3 60 -6 0 -10 18 -10 40 0
22 -4 40 -10 40 -5 0 -10 -20 -10 -44 0 -34 -7 -51 -29 -77 -27 -30 -28 -34
-13 -45 13 -9 20 -9 30 -1 10 8 16 7 23 -4 6 -10 3 -18 -10 -27 -12 -8 -17
-21 -13 -37 5 -31 17 -32 28 -3 6 18 8 13 11 -26 3 -31 0 -52 -7 -56 -9 -6 -9
-9 0 -15 14 -8 34 -55 31 -72 -1 -7 5 -13 13 -13 18 0 27 -13 31 -45 2 -21 -1
-23 -24 -19 -22 5 -29 1 -39 -20 -6 -14 -18 -26 -26 -26 -8 0 -17 -9 -21 -20
-5 -16 -14 -19 -45 -18 -25 1 -47 -6 -65 -20 -30 -24 -80 -29 -89 -9 -3 8 -8
7 -16 -5 -6 -10 -19 -18 -30 -18 -10 0 -20 -5 -22 -11 -6 -18 -178 -13 -192 5
-6 8 -48 24 -94 35 -46 11 -94 27 -107 35 -14 9 -46 16 -74 16 -51 0 -101 16
-101 32 0 5 -10 8 -22 6 -17 -2 -24 -11 -26 -31 -2 -19 -9 -27 -23 -27 -10 0
-19 -3 -19 -7 0 -5 -12 -13 -25 -20 -22 -10 -28 -8 -45 9 -13 14 -16 25 -10
37 5 9 11 24 14 35 5 16 13 18 49 13 23 -3 49 -2 57 3 13 8 13 10 1 10 -10 0
-5 10 14 30 16 17 36 29 44 28 9 -2 16 4 16 13 0 9 7 24 15 34 13 15 12 19 -3
30 -23 17 -22 42 3 50 11 3 23 17 26 31 3 13 10 24 15 24 14 0 49 33 49 46 0
6 -6 17 -14 23 -11 9 -15 9 -20 -1 -3 -7 -3 -2 0 12 4 14 7 25 8 25 14 0 42
28 46 45 6 24 30 41 30 21 0 -6 9 -11 20 -11 14 0 20 -7 20 -24 0 -36 44 -41
89 -10 21 14 50 24 72 24 38 0 52 7 43 21 -3 5 -14 4 -25 -1 -16 -9 -19 -7
-19 15 0 20 5 25 25 25 14 0 25 -4 25 -9 0 -5 19 -19 42 -31 40 -20 47 -21 98
-9 67 15 85 26 69 45 -15 18 -3 34 28 34 l25 0 -7 78 c-7 80 -16 96 -50 87
-11 -2 -27 -5 -36 -5 -9 0 -19 -9 -22 -19 -6 -23 -66 -39 -77 -22 -8 14 -92
-11 -98 -29 -2 -5 -12 -10 -23 -10 -24 0 -26 -35 -3 -48 23 -13 10 -52 -15
-45 -10 3 -22 0 -25 -6 -11 -17 -56 -14 -56 4 0 8 5 15 10 15 6 0 10 18 10 39
0 33 4 40 23 44 12 2 3 5 -20 6 -33 1 -45 -3 -53 -19 -13 -25 -45 -26 -59 -3
-6 11 -11 13 -11 5 0 -7 -5 -10 -11 -6 -6 3 -8 17 -5 30 4 16 1 26 -13 33 -10
6 -21 24 -24 41 -8 38 -27 39 -27 1 0 -22 -6 -30 -25 -35 -14 -4 -25 -11 -25
-16 0 -5 11 -12 25 -16 30 -7 33 -24 6 -24 -11 0 -23 -4 -26 -10 -10 -16 -48
-12 -42 4 3 8 3 17 -1 21 -4 4 -7 15 -7 26 0 10 -4 18 -10 18 -5 0 -9 -10 -7
-21 3 -25 -35 -69 -53 -62 -19 8 -52 -12 -59 -34 -5 -16 -13 -17 -56 -12 -88
11 -96 45 -10 41 36 -1 50 2 50 11 0 8 17 20 38 28 76 27 73 70 -5 70 l-45 0
23 19 c12 10 24 31 26 47 7 76 17 116 29 121 8 3 14 12 14 20 0 9 6 13 15 9 9
-3 19 3 25 14 6 11 17 20 25 20 8 0 15 13 17 33 3 36 -45 116 -72 117 -12 0
-12 3 3 14 10 8 22 28 27 45 8 28 6 33 -16 43 -27 12 -32 43 -9 52 9 3 12 12
8 22 -4 12 -3 15 5 10 7 -4 12 -14 12 -22 0 -8 5 -12 10 -9 6 3 10 15 10 25 0
11 9 24 21 30 13 7 18 17 15 27 -5 12 -1 14 18 11 20 -4 26 0 31 20 5 21 8 23
17 11 8 -11 8 -9 3 6 -14 39 -10 49 20 55 22 4 29 11 27 24 -3 17 32 56 50 56
4 0 8 7 8 15 0 8 7 15 15 15 8 0 23 9 32 20 10 11 21 20 25 20 5 0 32 24 61
53 29 28 71 65 95 81 24 16 46 34 50 40 7 11 39 31 102 62 19 10 38 22 41 26
3 5 14 10 25 13 10 2 43 13 73 24 30 11 91 25 135 31 133 18 174 30 178 48 2
13 15 17 48 18 74 2 80 3 80 17 0 32 106 47 146 20 20 -13 27 -13 40 -3 12 11
18 11 29 -1 18 -19 7 -119 -15 -129 -28 -14 -86 -30 -109 -30 -12 0 -24 -7
-27 -15 -4 -10 -19 -15 -43 -15 -20 0 -45 -6 -56 -14 -11 -7 -38 -19 -60 -26
-22 -7 -50 -19 -62 -27 -12 -8 -27 -12 -32 -8 -12 7 -26 -39 -17 -54 5 -7 15
-7 31 1 19 9 29 7 50 -6 14 -9 23 -21 21 -25 -7 -11 40 -35 53 -27 6 4 24 0
40 -9 45 -23 99 -18 169 15 35 17 74 30 86 30 34 0 87 21 109 43 14 14 27 18
50 13 25 -5 38 0 69 24 21 17 43 28 49 25 5 -4 16 -1 24 5 9 7 35 12 59 12 56
-1 66 18 32 62 -24 32 -120 86 -153 86 -10 0 -34 9 -54 19 -19 11 -55 25 -78
32 -43 13 -43 13 -37 53 3 23 8 69 12 104 4 39 14 72 26 87 23 29 23 29 173
-20z m252 -490 c0 -8 -6 -16 -13 -19 -19 -7 -29 14 -13 25 20 12 26 11 26 -6z
m-2010 -607 c-3 -8 -6 -5 -6 6 -1 11 2 17 5 13 3 -3 4 -12 1 -19z m2086 -43
c-2 -8 -13 -10 -26 -7 -20 5 -20 6 -1 13 10 4 15 8 11 8 -5 1 -5 6 -1 12 9 14
24 -9 17 -26z m-56 9 c-3 -3 -12 -4 -19 -1 -8 3 -5 6 6 6 11 1 17 -2 13 -5z
m115 -6 c-9 -9 -15 -9 -24 0 -9 9 -7 12 12 12 19 0 21 -3 12 -12z m-4336 -234
c-2 -6 1 -17 7 -23 8 -8 6 -16 -7 -29 -12 -14 -15 -30 -12 -63 l6 -44 -13 37
c-7 21 -21 48 -32 60 -25 29 -29 86 -6 91 23 5 63 -15 57 -29z m4340 -209 c4
-9 18 -15 38 -14 68 1 136 -13 136 -29 0 -12 9 -14 46 -8 28 3 43 2 39 -4 -3
-6 -12 -10 -20 -10 -7 0 -17 -9 -20 -20 -6 -18 -8 -18 -21 -5 -9 8 -28 15 -43
15 -15 0 -32 5 -38 11 -14 14 -101 21 -108 8 -4 -5 -14 -9 -24 -9 -10 0 -26
-9 -36 -20 -12 -13 -31 -20 -55 -20 -23 0 -40 -5 -43 -14 -8 -20 1 -26 36 -26
53 0 20 -12 -45 -17 -44 -3 -69 -10 -84 -24 -11 -10 -34 -19 -52 -19 -18 0
-32 -4 -32 -10 0 -13 -100 -59 -116 -53 -7 2 -17 -5 -24 -16 -6 -12 -21 -21
-34 -21 -29 0 -39 -10 -25 -27 9 -10 8 -13 -5 -13 -12 0 -16 9 -16 34 0 30 4
35 31 41 16 4 28 12 26 18 -6 18 -27 20 -27 3 0 -21 -19 -20 -49 3 -17 13 -22
25 -19 39 3 12 1 23 -5 25 -8 2 -6 10 6 21 9 10 17 28 17 41 0 28 41 61 85 68
72 13 101 21 120 34 11 7 35 13 55 14 19 1 46 5 60 9 14 4 74 8 133 9 87 1
109 -2 113 -14z m-1546 -35 c0 -5 -2 -10 -4 -10 -3 0 -8 5 -11 10 -3 6 -1 10
4 10 6 0 11 -4 11 -10z m2115 0 c-4 -6 -2 -10 2 -10 5 0 14 -13 20 -30 8 -23
8 -32 -2 -40 -13 -11 -35 12 -63 65 -9 18 -7 20 19 22 17 1 27 -2 24 -7z
m-2965 -30 c0 -5 -9 -10 -20 -10 -11 0 -20 5 -20 10 0 6 9 10 20 10 11 0 20
-4 20 -10z m490 -7 c0 -7 -10 -13 -22 -12 -13 0 -30 -1 -38 -2 -36 -5 -100 2
-100 11 0 6 15 8 40 4 22 -4 40 -3 40 2 0 5 18 9 40 9 26 1 40 -3 40 -12z
m280 7 c0 -5 -4 -10 -10 -10 -5 0 -10 5 -10 10 0 6 5 10 10 10 6 0 10 -4 10
-10z m-640 -55 c-7 -8 -19 -15 -26 -15 -8 0 -14 -6 -14 -14 0 -8 -9 -18 -20
-21 -11 -3 -20 -11 -20 -18 0 -6 -6 -2 -14 8 -18 25 -12 35 21 35 16 0 27 7
30 20 4 13 14 20 30 20 22 0 24 -2 13 -15z m-120 -35 c0 -11 -5 -20 -12 -20
-31 0 -96 -42 -102 -66 -5 -18 -12 -24 -24 -20 -15 5 -17 -3 -20 -60 -2 -50 0
-69 12 -77 21 -16 10 -56 -19 -67 -29 -11 -42 -72 -22 -103 15 -24 7 -67 -14
-67 -6 0 -30 -19 -54 -42 -50 -50 -82 -71 -96 -62 -5 3 -7 14 -4 25 7 23 -20
27 -28 5 -4 -9 -14 -12 -28 -9 -20 6 -21 7 -5 19 15 10 11 14 -34 23 -28 6
-53 11 -56 11 -3 0 4 -12 15 -26 12 -15 21 -32 21 -38 0 -7 -4 -6 -9 2 -6 10
-10 10 -21 -3 -7 -8 -24 -15 -37 -15 -21 0 -24 4 -19 23 4 18 1 23 -14 23 -11
0 -21 -9 -25 -23 -3 -14 -13 -23 -25 -23 -18 0 -20 5 -14 40 5 33 4 40 -10 40
-14 0 -17 -9 -15 -50 3 -60 -10 -78 -45 -63 -16 8 -27 8 -34 1 -7 -7 -17 -6
-31 2 -12 6 -26 8 -31 5 -11 -7 -24 14 -25 39 0 27 -25 32 -32 7 -7 -29 -63
-29 -81 -1 -10 17 -9 25 4 45 9 14 25 25 35 25 11 0 19 5 19 11 0 17 32 38 58
39 12 0 22 5 22 10 0 6 -18 10 -40 10 -45 0 -52 10 -18 25 13 6 25 19 27 30 5
30 21 45 47 45 18 0 24 -6 24 -21 0 -20 3 -21 58 -14 31 4 61 11 66 16 6 5 22
9 37 9 15 0 32 7 39 15 18 22 27 19 39 -15 16 -48 40 -39 34 14 -6 45 8 88 21
67 4 -6 2 -11 -3 -11 -17 0 -13 -17 5 -24 10 -4 23 3 36 19 17 22 21 23 34 11
16 -16 19 -86 4 -86 -5 0 -10 4 -10 9 0 14 -37 23 -60 16 -15 -5 -18 -12 -14
-35 6 -26 4 -28 -36 -35 -30 -5 -45 -3 -50 5 -4 7 -13 9 -19 6 -25 -16 -8 -26
44 -26 30 0 55 -4 55 -10 0 -5 5 -10 10 -10 6 0 10 9 10 20 0 18 7 20 54 20
75 0 86 6 86 46 0 43 31 75 73 76 18 1 26 3 20 5 -7 3 -13 15 -13 28 0 22 -2
22 -29 12 -16 -6 -32 -20 -36 -31 -5 -19 -6 -20 -16 -4 -12 21 -12 33 0 33 4
0 23 16 42 35 27 29 34 32 37 18 4 -18 42 -26 42 -9 0 6 -13 24 -30 42 -16 18
-26 37 -23 42 3 5 9 4 13 -3 5 -9 16 0 35 29 28 41 45 52 45 29 0 -7 10 -1 21
15 13 17 30 27 47 27 15 0 34 5 42 10 26 17 50 12 50 -10z m3010 -10 c0 -5 -7
-10 -15 -10 -8 0 -15 5 -15 10 0 6 7 10 15 10 8 0 15 -4 15 -10z m-1630 -31
c0 -5 -22 -9 -50 -9 -58 0 -68 17 -12 22 43 4 62 0 62 -13z m-3290 -24 c0 -8
-4 -15 -10 -15 -5 0 -10 7 -10 15 0 8 5 15 10 15 6 0 10 -7 10 -15z m3199 -22
c11 -9 18 -20 16 -24 -7 -10 22 -32 37 -27 12 4 48 -31 48 -47 0 -4 -10 -5
-21 -2 -20 5 -21 3 -15 -31 3 -20 6 -45 6 -55 0 -15 3 -15 20 -5 14 9 20 24
20 48 0 28 5 37 27 48 15 6 31 12 35 12 15 0 8 -48 -7 -54 -8 -3 -15 -14 -15
-26 0 -12 -15 -29 -40 -45 -22 -14 -42 -25 -44 -25 -3 0 -13 17 -22 38 -10 20
-27 48 -38 61 -14 16 -17 25 -9 28 15 5 -5 43 -23 43 -16 0 -24 51 -10 66 14
17 12 17 35 -3z m-1609 -59 c0 -8 -5 -12 -10 -9 -6 4 -8 11 -5 16 9 14 15 11
15 -7z m1855 -110 c0 -13 -6 -18 -19 -16 -10 2 -23 -2 -28 -10 -6 -8 -7 -4 -2
12 11 42 49 53 49 14z m-2168 -56 c-3 -8 -6 -5 -6 6 -1 11 2 17 5 13 3 -3 4
-12 1 -19z m1929 -65 c-12 -12 -29 15 -21 34 7 17 8 16 18 -5 5 -12 7 -25 3
-29z m-2286 -43 c0 -5 -5 -10 -11 -10 -5 0 -7 5 -4 10 3 6 8 10 11 10 2 0 4
-4 4 -10z m110 -35 c0 -16 -42 -30 -65 -21 -22 8 -18 24 8 29 44 9 57 7 57 -8z
m-140 -75 c0 -25 -24 -36 -53 -23 -21 10 -21 10 8 25 41 21 45 21 45 -2z
m-142 -52 c7 -7 12 -21 12 -31 0 -18 -3 -17 -25 7 -14 15 -25 29 -25 32 0 9
26 4 38 -8z m169 -28 c2 -11 -2 -20 -7 -20 -6 0 -10 12 -10 27 0 29 12 24 17
-7z m124 -21 c14 -14 29 -19 45 -16 13 2 24 0 24 -5 0 -4 11 -6 24 -2 16 4 25
1 30 -11 10 -26 -3 -36 -27 -23 -24 13 -77 12 -91 -2 -6 -6 2 -13 17 -19 29
-11 37 -41 12 -41 -8 0 -29 -9 -47 -20 -41 -25 -48 -25 -48 0 0 11 -7 20 -15
20 -8 0 -15 8 -15 18 -1 16 -1 16 -14 0 -14 -18 -36 -24 -36 -10 0 4 4 12 9
18 5 5 11 25 13 44 2 28 7 35 23 33 10 -1 31 7 45 17 31 24 26 24 51 -1z
m-396 -9 c3 -5 1 -10 -4 -10 -6 0 -11 5 -11 10 0 6 2 10 4 10 3 0 8 -4 11 -10z
m205 -40 c0 -12 -28 -20 -45 -14 -28 11 -17 31 15 26 17 -2 30 -8 30 -12z m25
-76 c44 -29 23 -74 -34 -74 -18 0 -21 6 -21 38 0 56 12 64 55 36z m-298 -21
c2 -6 -3 -13 -12 -16 -10 -5 -15 0 -15 14 0 21 21 22 27 2z m-27 -43 c0 -5
-10 -10 -22 -9 -22 0 -22 1 -3 9 11 5 21 9 23 9 1 1 2 -3 2 -9z m-81 -22 c0
-16 -2 -18 -6 -8 -3 8 -11 18 -17 22 -7 5 -4 8 7 8 11 0 17 -7 16 -22z m401
-19 c0 -11 -27 -12 -34 0 -3 4 -3 11 0 14 8 8 34 -3 34 -14z m50 -9 c0 -5 -7
-10 -15 -10 -8 0 -15 5 -15 10 0 6 7 10 15 10 8 0 15 -4 15 -10z m-490 -20 c0
-11 -6 -20 -14 -20 -9 0 -12 7 -9 20 3 11 9 20 14 20 5 0 9 -9 9 -20z m-40
-21 c0 -11 -4 -17 -10 -14 -5 3 -10 13 -10 21 0 8 5 14 10 14 6 0 10 -9 10
-21z m100 -3 c0 -3 -4 -8 -10 -11 -5 -3 -10 -1 -10 4 0 6 5 11 10 11 6 0 10
-2 10 -4z m390 -18 c0 -12 -1 -19 -3 -17 -1 2 -9 12 -16 22 -12 14 -11 17 3
17 10 0 16 -8 16 -22z m-510 -18 c0 -5 -9 -10 -20 -10 -11 0 -20 5 -20 10 0 6
9 10 20 10 11 0 20 -4 20 -10z"/>
<path d="M17966 12487 c-23 -14 -45 -32 -78 -61 -13 -11 -38 -33 -56 -48 -48
-40 -128 -135 -145 -171 -8 -18 -18 -47 -22 -64 -8 -42 7 -43 62 -5 21 15 46
32 55 37 9 6 47 31 85 56 37 26 78 52 91 58 12 6 22 16 22 22 0 6 6 17 14 25
10 9 13 26 9 49 -4 26 -1 41 13 56 32 35 -8 73 -50 46z"/>
<path d="M17718 12483 c7 -3 16 -2 19 1 4 3 -2 6 -13 5 -11 0 -14 -3 -6 -6z"/>
<path d="M18094 12406 c-10 -8 -29 -12 -41 -9 -14 3 -23 1 -23 -7 0 -6 5 -8
10 -5 6 3 10 1 10 -4 0 -6 3 -10 8 -10 32 5 52 -3 52 -21 0 -16 7 -20 34 -20
31 0 35 4 41 32 6 24 3 35 -11 45 -23 17 -55 17 -80 -1z"/>
<path d="M18114 12026 c-3 -14 -7 -60 -7 -103 -2 -77 -2 -78 23 -78 21 0 25 5
28 35 1 19 7 54 12 78 14 58 4 92 -26 92 -17 0 -25 -7 -30 -24z"/>
<path d="M17695 12000 c-16 -3 -39 -10 -49 -16 -18 -11 -19 -16 -7 -68 17 -75
35 -93 97 -100 42 -5 56 -2 78 15 34 27 33 39 -2 39 -41 0 -62 28 -62 82 0 50
-8 57 -55 48z"/>
<path d="M17927 12003 c-4 -3 -7 -15 -7 -25 0 -13 -7 -18 -25 -18 -18 0 -25 5
-25 20 0 11 -7 20 -15 20 -8 0 -15 -9 -15 -20 0 -11 5 -20 10 -20 6 0 10 -7
10 -15 0 -21 43 -19 62 3 26 30 31 81 5 55z"/>
<path d="M17858 11790 c24 -26 102 -39 102 -17 0 19 -23 29 -77 33 -42 3 -42
2 -25 -16z"/>
<path d="M19905 12080 c-3 -5 -2 -10 4 -10 5 0 13 5 16 10 3 6 2 10 -4 10 -5
0 -13 -4 -16 -10z"/>
<path d="M17045 11750 c27 -12 35 -12 35 0 0 6 -12 10 -27 9 -25 0 -26 -1 -8
-9z"/>
<path d="M17400 11541 c0 -18 27 -37 38 -26 3 3 0 5 -6 5 -7 0 -12 9 -12 20 0
11 -4 20 -10 20 -5 0 -10 -9 -10 -19z"/>
<path d="M16960 11536 c0 -9 5 -16 10 -16 6 0 10 4 10 9 0 6 -4 13 -10 16 -5
3 -10 -1 -10 -9z"/>
<path d="M17505 11450 c-3 -5 -1 -10 4 -10 6 0 11 5 11 10 0 6 -2 10 -4 10 -3
0 -8 -4 -11 -10z"/>
<path d="M17530 11450 c0 -5 9 -10 21 -10 11 0 17 5 14 10 -3 6 -13 10 -21 10
-8 0 -14 -4 -14 -10z"/>
<path d="M15870 11425 c0 -8 4 -15 9 -15 5 0 11 7 15 15 3 9 0 15 -9 15 -8 0
-15 -7 -15 -15z"/>
<path d="M17860 11420 c0 -5 12 -10 28 -10 21 0 24 2 12 10 -20 13 -40 13 -40
0z"/>
<path d="M18672 11408 c2 -5 8 -9 13 -9 5 0 11 4 13 9 1 5 -4 9 -13 9 -9 0
-14 -4 -13 -9z"/>
<path d="M18620 11320 c0 -5 5 -10 10 -10 6 0 10 5 10 10 0 6 -4 10 -10 10 -5
0 -10 -4 -10 -10z"/>
<path d="M14755 11179 c-10 -16 1 -22 26 -14 17 6 19 9 8 16 -19 12 -26 11
-34 -2z"/>
<path d="M15368 11173 c6 -2 18 -2 25 0 6 3 1 5 -13 5 -14 0 -19 -2 -12 -5z"/>
<path d="M16148 11155 c-6 -29 -1 -36 18 -28 11 4 12 9 3 19 -6 7 -8 18 -4 24
3 5 2 10 -3 10 -5 0 -12 -11 -14 -25z"/>
<path d="M16058 11133 c7 -3 16 -2 19 1 4 3 -2 6 -13 5 -11 0 -14 -3 -6 -6z"/>
<path d="M14945 11103 c-15 -10 -15 -12 2 -15 33 -6 83 4 83 17 0 17 -62 15
-85 -2z"/>
<path d="M15088 11113 c7 -3 16 -2 19 1 4 3 -2 6 -13 5 -11 0 -14 -3 -6 -6z"/>
<path d="M14835 11103 c22 -3 43 -10 47 -16 4 -6 10 -8 15 -4 13 14 -20 27
-62 25 l-40 -1 40 -4z"/>
<path d="M15053 11093 c9 -2 23 -2 30 0 6 3 -1 5 -18 5 -16 0 -22 -2 -12 -5z"/>
<path d="M14823 11083 c9 -2 23 -2 30 0 6 3 -1 5 -18 5 -16 0 -22 -2 -12 -5z"/>
<path d="M15052 2475 c-10 -21 -9 -25 3 -25 9 0 15 10 15 25 0 14 -2 25 -3 25
-2 0 -9 -11 -15 -25z"/>
<path d="M15109 2498 c-1 -2 -3 -16 -5 -31 -2 -19 1 -27 9 -24 15 5 22 57 8
57 -6 0 -12 -1 -12 -2z"/>
<path d="M14335 2430 c-3 -5 1 -10 9 -10 9 0 16 5 16 10 0 6 -4 10 -9 10 -6 0
-13 -4 -16 -10z"/>
<path d="M13480 2031 c0 -5 9 -11 21 -14 16 -4 18 -3 8 9 -13 16 -29 19 -29 5z"/>
<path d="M15092 1620 c-11 -18 -10 -20 8 -20 13 0 20 7 20 20 0 11 -3 20 -8
20 -4 0 -13 -9 -20 -20z"/>
<path d="M15078 1583 c7 -3 16 -2 19 1 4 3 -2 6 -13 5 -11 0 -14 -3 -6 -6z"/>
<path d="M14413 1513 c9 -2 25 -2 35 0 9 3 1 5 -18 5 -19 0 -27 -2 -17 -5z"/>
<path d="M14835 1399 c-10 -15 3 -25 16 -12 7 7 7 13 1 17 -6 3 -14 1 -17 -5z"/>
<path d="M13225 1350 c4 -6 11 -8 16 -5 14 9 11 15 -7 15 -8 0 -12 -5 -9 -10z"/>
<path d="M13506 1201 c-12 -18 10 -31 54 -31 39 0 69 15 56 27 -5 4 -11 2 -13
-4 -3 -8 -21 -13 -43 -13 -29 0 -39 4 -42 18 -3 13 -5 14 -12 3z"/>
<path d="M13458 1169 c-24 -13 -23 -29 1 -29 21 0 45 23 34 33 -8 9 -15 8 -35
-4z"/>
<path d="M14081 1164 c0 -11 3 -14 6 -6 3 7 2 16 -1 19 -3 4 -6 -2 -5 -13z"/>
<path d="M14120 1140 c0 -13 7 -20 20 -20 23 0 26 10 8 28 -18 18 -28 15 -28
-8z"/>
<path d="M14080 1098 c0 -16 5 -28 10 -28 13 0 13 20 0 40 -8 12 -10 9 -10
-12z"/>
<path d="M14160 984 c0 -8 5 -12 10 -9 6 3 10 10 10 16 0 5 -4 9 -10 9 -5 0
-10 -7 -10 -16z"/>
<path d="M13993 953 c9 -2 25 -2 35 0 9 3 1 5 -18 5 -19 0 -27 -2 -17 -5z"/>
<path d="M13840 920 c0 -5 5 -10 10 -10 6 0 10 5 10 10 0 6 -4 10 -10 10 -5 0
-10 -4 -10 -10z"/>
<path d="M13440 890 c0 -5 9 -10 20 -10 11 0 20 5 20 10 0 6 -9 10 -20 10 -11
0 -20 -4 -20 -10z"/>
<path d="M13980 886 c0 -2 7 -7 16 -10 8 -3 12 -2 9 4 -6 10 -25 14 -25 6z"/>
<path d="M13425 851 c-3 -5 -1 -12 5 -16 5 -3 10 1 10 9 0 18 -6 21 -15 7z"/>
<path d="M13352 719 c-15 -23 -15 -39 -2 -39 6 0 10 9 10 19 0 11 5 21 12 23
7 3 8 7 2 11 -5 3 -15 -3 -22 -14z"/>
<path d="M14118 628 c9 -9 15 -9 24 0 9 9 7 12 -12 12 -19 0 -21 -3 -12 -12z"/>
<path d="M13240 571 c0 -5 7 -12 16 -15 22 -9 24 -8 18 9 -7 16 -34 21 -34 6z"/>
<path d="M13128 483 c6 -2 18 -2 25 0 6 3 1 5 -13 5 -14 0 -19 -2 -12 -5z"/>
<path d="M13565 460 c27 -12 43 -12 25 0 -8 5 -22 9 -30 9 -10 0 -8 -3 5 -9z"/>
<path d="M15388 1113 c7 -3 16 -2 19 1 4 3 -2 6 -13 5 -11 0 -14 -3 -6 -6z"/>
<path d="M12176 601 c-3 -5 1 -14 9 -21 13 -10 15 -9 15 9 0 21 -14 28 -24 12z"/>
<path d="M12297 584 c-12 -12 4 -24 34 -24 16 0 29 5 29 10 0 6 -6 10 -14 10
-8 0 -21 2 -28 5 -8 3 -17 3 -21 -1z"/>
<path d="M12424 529 c-10 -17 13 -36 27 -22 12 12 4 33 -11 33 -5 0 -12 -5
-16 -11z"/>
<path d="M12568 473 c7 -3 16 -2 19 1 4 3 -2 6 -13 5 -11 0 -14 -3 -6 -6z"/>
<path d="M15230 15357 c0 -2 9 -22 20 -45 11 -22 20 -58 20 -79 -1 -32 -6 -41
-33 -58 -39 -25 -45 -47 -18 -74 38 -38 68 -23 97 48 11 27 22 41 34 41 31 0
50 11 50 30 0 11 5 22 10 25 15 9 12 19 -10 45 -11 13 -20 34 -20 47 0 22 -3
23 -75 23 -41 0 -75 -1 -75 -3z"/>
<path d="M15489 15239 c14 -13 26 -18 30 -12 3 6 13 13 21 17 8 3 5 4 -7 2
-13 -2 -26 0 -29 5 -3 5 -13 9 -21 9 -13 0 -12 -4 6 -21z"/>
<path d="M15600 15240 c0 -5 -9 -10 -19 -10 -11 0 -26 -6 -33 -13 -7 -7 -25
-18 -40 -24 -54 -24 -30 -39 52 -33 62 4 124 50 69 50 -16 0 -20 5 -16 20 3
11 1 20 -4 20 -5 0 -9 -4 -9 -10z"/>
<path d="M9407 15013 c-4 -17 -4 -33 1 -134 1 -23 8 -39 17 -43 13 -5 15 1 10
37 -3 23 -5 65 -5 94 1 50 -14 80 -23 46z"/>
<path d="M9410 14743 c0 -7 5 -15 10 -18 6 -3 10 -18 10 -33 0 -15 4 -34 9
-41 6 -10 8 1 4 30 -5 39 -33 92 -33 62z"/>
<path d="M9440 14503 c0 -66 6 -93 22 -93 14 0 5 127 -10 142 -9 9 -12 -2 -12
-49z"/>
<path d="M9456 14357 c3 -74 4 -78 13 -72 13 7 9 115 -4 115 -5 0 -9 -19 -9
-43z"/>
<path d="M9460 14252 c0 -10 6 -19 14 -19 8 0 11 8 8 19 -2 10 -8 18 -13 18
-5 0 -9 -8 -9 -18z"/>
<path d="M9480 14199 c0 -5 5 -7 10 -4 6 3 10 8 10 11 0 2 -4 4 -10 4 -5 0
-10 -5 -10 -11z"/>
<path d="M20369 13000 l-24 -19 26 -1 c24 0 49 16 49 32 0 15 -27 8 -51 -12z"/>
<path d="M1575 11420 c-91 -10 -191 -27 -235 -39 -19 -5 -57 -16 -85 -23 -43
-12 -52 -20 -70 -56 -11 -23 -27 -41 -37 -42 -9 0 -19 -4 -22 -9 -4 -5 -21 -5
-42 2 -24 7 -38 8 -42 0 -4 -5 -19 -13 -35 -17 -15 -3 -37 -17 -50 -29 -39
-39 -87 -67 -117 -67 -16 0 -31 -4 -34 -9 -4 -5 -40 -13 -82 -16 -95 -9 -106
-1 -112 87 -3 35 -10 66 -16 71 -7 5 -5 11 7 18 16 10 16 12 -3 37 -13 15 -17
28 -11 30 19 6 12 22 -9 22 -11 0 -23 -6 -26 -14 -3 -8 -31 -26 -62 -41 -31
-15 -69 -40 -84 -55 -25 -27 -47 -94 -35 -106 3 -3 1 -18 -5 -34 -7 -22 -6
-34 8 -55 15 -22 15 -28 3 -35 -25 -16 -89 -22 -104 -10 -7 6 -26 10 -42 8
-27 -3 -28 -5 -34 -74 -7 -76 -15 -99 -48 -128 -18 -16 -25 -17 -46 -8 -14 6
-25 18 -25 25 0 18 -37 94 -50 102 -5 3 -10 15 -10 25 0 10 -4 22 -10 25 -7 4
-10 -427 -10 -1285 l0 -1291 32 -14 c49 -22 67 -39 80 -76 6 -19 19 -45 30
-58 10 -13 18 -29 18 -36 0 -25 53 -94 82 -106 37 -15 33 -40 -9 -51 -18 -5
-35 -13 -38 -19 -8 -13 23 -49 42 -49 7 0 13 -7 13 -16 0 -12 6 -15 21 -11 17
5 34 -7 75 -50 29 -31 58 -68 64 -84 7 -15 30 -39 52 -54 36 -24 39 -29 34
-59 -9 -45 15 -132 53 -191 17 -27 31 -55 31 -63 0 -12 20 -41 103 -152 19
-25 37 -58 41 -75 4 -16 27 -51 52 -77 24 -26 44 -54 44 -62 0 -9 16 -31 36
-51 40 -40 40 -71 1 -62 -37 9 -139 46 -151 55 -19 15 -120 33 -227 41 -144
11 -308 -6 -431 -45 l-48 -16 0 -3524 0 -3524 3136 0 c2983 0 3136 1 3129 17
-24 57 -29 94 -17 139 10 38 10 50 -1 63 -20 24 -64 127 -118 275 -27 73 -31
93 -22 116 6 15 7 34 3 41 -5 7 -12 40 -15 73 -5 38 -17 74 -32 97 -33 49 -53
118 -63 210 -6 54 -18 95 -40 139 -25 50 -31 72 -27 104 8 71 -51 346 -75 346
-4 0 -8 16 -8 37 0 37 -64 164 -107 211 -7 7 -13 21 -13 30 0 42 -51 155 -108
240 -34 51 -62 97 -62 103 0 6 -4 8 -9 4 -5 -3 -12 -1 -16 5 -3 6 1 13 9 16
24 9 85 -34 106 -76 11 -21 25 -44 32 -51 91 -97 218 -321 218 -386 0 -8 28
-72 62 -142 58 -118 62 -131 66 -211 4 -71 10 -94 37 -145 26 -48 34 -76 38
-136 5 -79 22 -132 53 -168 32 -36 51 -117 47 -197 -3 -63 1 -83 28 -151 17
-43 43 -100 56 -127 51 -100 64 -176 38 -212 -13 -19 -12 -25 14 -65 15 -25
45 -79 66 -122 l38 -77 1009 0 c955 0 1055 3 994 26 -8 3 -17 17 -21 31 -7 31
-35 73 -35 55 0 -7 -4 -10 -10 -7 -5 3 -9 32 -7 63 2 50 0 57 -17 57 -13 0
-20 8 -21 25 -1 13 -7 26 -14 28 -6 2 -9 8 -5 13 3 5 -2 19 -10 31 -30 43 -21
69 38 112 14 10 26 25 26 32 0 12 40 49 63 57 7 2 9 8 5 12 -4 4 -31 -5 -62
-19 -63 -30 -88 -32 -106 -11 -7 8 -16 15 -20 15 -13 0 -86 75 -122 125 -44
61 -151 164 -193 185 -68 35 -124 76 -125 91 0 9 7 22 15 29 8 6 13 25 12 41
-2 24 -6 29 -29 29 -16 0 -28 5 -28 10 0 16 -23 11 -50 -10 -29 -23 -87 -26
-115 -6 -21 14 -131 59 -175 71 -14 4 -42 20 -62 36 -20 16 -47 29 -60 29 -13
0 -40 9 -61 20 -20 11 -43 20 -49 20 -7 0 -22 14 -33 30 -15 23 -27 30 -53 30
-22 0 -40 8 -56 25 -13 14 -28 25 -33 25 -19 0 -101 87 -137 147 -37 59 -82
111 -90 102 -2 -2 0 -25 5 -51 14 -80 -2 -93 -77 -62 -46 19 -83 50 -95 82 -5
12 -19 26 -32 31 -13 5 -36 26 -52 48 -15 21 -42 51 -58 68 -16 16 -65 75
-110 130 -44 55 -94 112 -112 127 -34 29 -75 104 -75 137 0 11 -4 21 -8 23
-13 5 -55 79 -48 85 11 11 46 -30 71 -84 27 -60 45 -65 60 -15 5 18 12 32 16
32 3 0 25 -22 48 -50 37 -44 41 -53 35 -88 -5 -31 -1 -44 18 -68 27 -35 45
-62 57 -89 5 -11 23 -33 40 -49 17 -17 31 -35 31 -42 0 -7 20 -34 45 -61 24
-26 45 -54 45 -60 0 -7 4 -13 9 -13 5 0 14 -13 21 -30 13 -31 40 -41 40 -15 0
23 -44 83 -141 193 -26 30 -39 72 -22 72 20 0 78 -51 108 -96 27 -41 42 -53
69 -58 19 -4 37 -12 39 -19 2 -7 8 -8 13 -4 5 4 4 11 -1 15 -6 4 -14 14 -20
23 -26 43 -104 151 -152 211 -69 88 -153 198 -153 203 0 1 -15 19 -32 37 -18
19 -46 52 -63 73 -16 20 -66 74 -110 120 -56 56 -85 96 -95 125 -8 23 -23 54
-34 67 -29 38 -25 81 10 107 39 28 77 50 154 88 36 17 67 34 70 38 5 7 159 83
335 166 55 26 122 57 149 70 28 13 56 24 64 24 8 0 26 6 40 14 69 36 187 79
442 162 136 44 200 42 266 -6 43 -31 38 -66 -32 -216 -19 -41 -34 -80 -34 -87
0 -7 -4 -17 -9 -23 -5 -5 -21 -43 -35 -86 -14 -42 -34 -96 -44 -120 -70 -165
-164 -492 -212 -738 -12 -63 -26 -122 -31 -131 -5 -9 -11 -43 -14 -75 -4 -33
-8 -66 -10 -74 -5 -17 -9 -49 -25 -208 -11 -103 -10 -115 5 -132 14 -16 26
-18 69 -13 28 3 53 10 54 15 2 4 7 6 12 3 11 -7 150 25 150 35 0 4 -9 10 -20
13 -11 3 -23 13 -26 24 -12 32 -45 52 -80 46 -64 -11 -54 33 20 82 59 39 97
55 132 55 30 0 30 -12 1 -44 -14 -15 -24 -39 -25 -57 -1 -26 2 -30 19 -26 10
3 19 1 19 -4 0 -5 -4 -9 -10 -9 -17 0 -11 -49 8 -58 25 -14 107 9 107 29 0 9
6 23 13 32 20 23 5 87 -19 87 -11 0 -19 5 -19 10 0 6 9 10 20 10 11 0 20 4 20
9 0 6 17 11 38 13 34 3 37 5 34 33 -7 87 -8 360 -1 425 4 41 13 127 19 190 23
229 84 503 126 567 8 12 14 29 14 38 0 22 23 65 86 162 30 46 54 86 54 89 0 9
64 96 123 169 57 69 119 130 197 195 29 25 72 62 94 82 23 21 49 40 59 43 9 4
17 11 17 16 0 5 6 9 14 9 25 0 46 42 46 90 0 36 7 53 35 89 39 48 42 68 20
110 -13 27 -18 28 -62 24 -132 -13 -248 -53 -358 -122 -81 -51 -171 -91 -206
-91 -44 0 -103 28 -177 84 -90 68 -230 149 -296 171 -24 8 -92 26 -152 40
-168 39 -197 46 -229 60 -16 7 -79 16 -140 20 -60 4 -120 11 -133 16 -20 8
-23 7 -18 -6 4 -11 -2 -15 -24 -15 -31 0 -43 20 -12 21 12 0 10 3 -7 10 -30
12 -55 -6 -31 -21 9 -6 10 -10 3 -10 -7 0 -18 6 -25 13 -10 11 -16 11 -38 0
-14 -7 -32 -13 -40 -12 -10 0 -11 2 -2 6 6 2 12 9 12 13 0 12 -181 3 -214 -10
-17 -6 -35 -6 -53 1 -15 6 -42 8 -60 4 -26 -5 -34 -2 -43 15 -13 24 -40 27
-40 4 0 -8 -5 -12 -11 -8 -6 3 -9 17 -6 30 2 13 0 24 -5 24 -4 0 -14 11 -20
25 -17 37 -54 31 -50 -8 2 -23 -1 -28 -15 -25 -11 2 -19 13 -20 28 0 14 -1 31
-2 38 -1 10 -9 7 -30 -7 -16 -12 -34 -21 -40 -21 -12 0 -90 -56 -131 -94 -31
-28 -90 -56 -136 -63 -44 -7 -51 -31 -35 -123 17 -106 15 -125 -20 -161 -17
-17 -37 -48 -43 -68 -10 -26 -26 -43 -62 -65 -42 -24 -56 -27 -99 -23 -67 8
-125 26 -125 38 0 6 -9 18 -21 27 -11 10 -21 24 -22 32 -1 8 -10 26 -20 40 -9
13 -17 29 -17 35 0 10 -27 43 -94 118 -14 15 -23 34 -19 42 4 12 -52 111 -77
135 -3 3 -14 19 -24 35 -43 67 -89 116 -97 103 -15 -23 -10 -54 11 -73 12 -11
20 -31 20 -50 0 -21 9 -40 25 -55 31 -30 31 -39 -2 -100 l-28 -51 29 -25 c29
-26 29 -26 12 -56 -13 -22 -16 -41 -12 -72 6 -36 2 -48 -24 -87 -33 -50 -36
-62 -16 -78 32 -27 23 -128 -16 -180 -22 -29 -23 -45 -3 -61 19 -16 19 -41 -1
-77 -16 -28 -15 -31 64 -192 53 -107 95 -178 121 -205 21 -23 49 -63 61 -91
22 -50 68 -109 154 -197 43 -45 93 -125 83 -134 -11 -11 -63 29 -93 73 -19 26
-51 64 -72 84 -20 20 -55 62 -77 93 -56 78 -98 128 -185 217 -143 147 -154
164 -180 268 -29 117 -28 139 5 191 25 39 25 43 11 65 -20 31 -20 64 0 93 23
33 24 110 1 126 -16 13 -16 15 1 52 9 22 26 52 36 67 16 24 17 31 6 52 -8 15
-10 37 -6 60 4 20 2 61 -5 91 -11 51 -11 57 9 84 27 37 27 38 -3 62 -20 16
-25 28 -25 68 0 31 -5 52 -16 61 -11 9 -15 25 -12 53 3 35 1 41 -29 59 -51 29
-58 51 -33 92 17 28 20 43 14 80 -4 27 -14 51 -25 59 -10 7 -22 29 -26 50 -5
20 -13 37 -18 38 -6 1 -17 13 -26 27 -9 14 -38 46 -64 71 -154 145 -276 277
-302 327 -8 15 -39 53 -68 83 -30 30 -64 69 -77 85 -12 17 -31 39 -43 50 -11
11 -31 37 -44 58 -12 20 -27 37 -32 37 -5 0 -9 6 -9 14 0 8 -16 31 -35 52 -19
22 -35 47 -35 56 0 9 -11 25 -25 36 -14 11 -25 23 -25 27 0 4 -22 38 -50 75
-27 37 -50 73 -50 79 0 26 -53 114 -71 118 -10 3 -19 10 -19 17 0 6 -9 17 -19
23 -16 10 -18 18 -11 43 9 33 4 60 -11 60 -5 0 -9 10 -9 23 0 26 -28 70 -40
62 -10 -6 -23 42 -15 55 3 5 -3 29 -14 53 -20 44 -51 252 -51 344 0 42 -29
151 -59 218 -5 11 -13 31 -19 45 -10 26 -182 276 -237 344 -68 85 -75 94 -75
101 0 15 -155 155 -171 155 -10 0 -46 24 -81 53 -35 29 -76 61 -93 71 -16 11
-36 28 -43 38 -7 10 -31 27 -52 38 -21 11 -56 35 -77 55 -21 19 -45 35 -53 35
-24 0 -95 -27 -96 -37 -6 -35 -21 -54 -52 -66 -49 -20 -179 -20 -206 -1 -11 7
-16 14 -11 14 6 1 -1 7 -14 14 l-24 13 26 7 c14 3 37 2 51 -4 23 -8 26 -7 26
10 0 11 4 20 9 20 5 0 16 12 25 26 17 24 16 27 -8 69 -48 81 -25 193 47 225
18 7 38 21 45 29 11 14 13 14 23 -1 16 -29 29 -21 14 9 -13 25 -12 29 23 65
23 23 43 36 53 33 9 -3 23 5 35 20 27 36 52 31 45 -9 -1 -5 9 -21 23 -35 13
-14 26 -35 28 -45 1 -10 10 -22 18 -27 25 -13 55 -22 64 -20 5 1 17 -6 27 -15
13 -12 28 -15 53 -10 48 9 56 -10 18 -45 -16 -15 -33 -25 -36 -22 -3 4 -16 7
-29 8 -12 1 -26 3 -32 5 -5 1 -18 2 -28 1 -18 -1 -18 -3 3 -38 l21 -36 -25
-22 c-14 -12 -26 -27 -26 -32 0 -12 73 -83 86 -83 5 0 39 -26 75 -57 36 -32
80 -69 98 -83 69 -52 126 -104 132 -119 4 -9 19 -27 33 -40 14 -14 26 -30 26
-38 0 -7 11 -20 25 -29 13 -9 27 -24 30 -33 3 -10 13 -26 23 -37 11 -11 33
-40 51 -64 40 -57 72 -98 91 -119 8 -9 20 -28 27 -42 6 -15 34 -57 61 -95 28
-38 65 -98 83 -134 36 -71 80 -215 72 -236 -2 -7 0 -21 6 -31 5 -11 15 -69 21
-129 12 -118 35 -213 57 -230 7 -6 13 -22 13 -36 0 -14 12 -36 28 -52 32 -30
38 -27 63 31 7 17 17 29 21 27 4 -3 12 5 17 18 5 13 17 30 26 38 24 20 105
187 105 216 0 26 49 124 62 124 4 0 8 7 8 15 0 8 6 15 13 15 7 0 23 10 37 23
28 25 64 43 100 51 14 3 50 12 80 21 30 9 87 20 125 25 288 36 390 57 454 93
58 33 131 105 131 129 0 11 7 26 15 35 13 12 13 18 3 31 -10 12 -10 16 0 19 6
3 12 9 12 14 0 6 -4 7 -10 4 -5 -3 -10 -2 -10 4 0 6 -7 8 -15 4 -9 -3 -15 -2
-14 3 1 5 -1 17 -6 28 -5 11 -3 26 3 37 7 10 12 28 12 38 0 11 5 23 11 26 6 4
8 14 5 22 -3 8 -1 11 4 8 6 -4 10 15 10 48 0 42 5 59 23 78 41 44 79 69 107
69 19 0 30 7 38 26 8 17 9 23 1 19 -6 -4 -20 2 -32 12 -12 11 -34 27 -49 36
-15 10 -30 30 -34 45 -3 15 -10 37 -15 50 -6 15 -5 29 4 42 9 16 9 24 -1 38
-7 9 -15 23 -18 30 -12 24 76 92 144 112 23 7 42 19 42 25 0 7 7 18 16 26 25
20 46 68 39 89 -6 20 -35 28 -35 10 0 -5 -6 -10 -14 -10 -8 0 -17 -9 -21 -19
-3 -10 -14 -21 -25 -24 -11 -3 -23 -13 -26 -22 -7 -17 -51 -65 -60 -65 -14 0
-142 -91 -147 -105 -4 -8 -12 -15 -20 -15 -16 0 -61 -47 -70 -72 -4 -11 -17
-18 -30 -18 -14 0 -31 -9 -38 -21 -19 -28 -46 -16 -55 24 -4 18 -9 26 -11 20
-8 -23 -21 -14 -29 20 -6 28 -8 29 -14 12 -7 -18 -8 -19 -15 -2 -4 9 -13 17
-20 17 -8 0 -27 11 -43 25 -17 14 -34 25 -40 25 -5 0 -12 7 -16 15 -4 11 2 15
24 15 33 0 38 11 15 30 -9 8 -28 10 -50 6 -28 -6 -41 -2 -63 14 l-27 21 -16
-20 c-23 -29 -31 -27 -53 14 -15 28 -23 34 -41 29 -15 -4 -24 0 -28 11 -5 11
-14 14 -31 9 -16 -4 -27 -1 -33 9 -10 18 -43 25 -62 13 -9 -6 -20 0 -35 19
-20 25 -27 27 -64 21 -33 -5 -42 -3 -42 8 0 34 113 26 126 -9 11 -27 26 -16
19 14 -5 23 -1 33 17 46 14 11 16 15 6 12 -21 -7 -95 62 -78 73 8 5 8 9 -2 12
-21 8 -38 -2 -38 -22 0 -20 -27 -40 -54 -40 -10 0 -16 9 -16 25 0 14 5 25 10
25 6 0 10 5 10 11 0 19 -45 4 -55 -18 -5 -13 -22 -27 -37 -32 -16 -6 -28 -16
-28 -24 0 -8 -7 -18 -16 -21 -22 -8 -24 -8 -24 8 0 8 -7 16 -15 20 -19 7 -19
30 0 50 20 20 19 25 -5 19 -12 -3 -28 1 -38 9 -46 38 -109 58 -168 54 -38 -2
-46 -1 -21 3 35 6 37 7 20 21 -53 43 -52 43 -68 30 -13 -11 -20 -9 -39 9 -17
16 -31 21 -45 16 -17 -5 -21 -2 -21 17 0 34 61 98 94 98 14 0 26 3 26 8 -1 13
-27 42 -39 42 -6 0 -11 11 -11 26 0 19 8 28 34 39 19 8 37 24 41 35 3 11 11
20 16 20 6 0 7 9 4 20 -4 12 -2 20 5 20 6 0 9 4 6 9 -3 5 4 11 15 14 12 3 18
10 14 16 -7 13 19 54 28 44 4 -3 7 -1 7 5 0 16 37 15 43 0 4 -10 8 -10 15 1 7
10 14 10 30 2 13 -7 23 -8 27 -1 3 5 16 9 28 9 12 0 40 2 62 5 22 2 48 5 58 5
11 1 17 9 17 26 0 16 6 25 15 25 8 0 15 -4 15 -10 0 -5 17 -17 38 -26 32 -14
55 -20 109 -28 7 -1 16 -5 19 -9 4 -4 16 1 26 10 17 15 20 15 35 1 12 -13 20
-14 34 -5 15 9 22 6 43 -16 25 -27 40 -30 121 -27 33 1 45 -4 69 -29 26 -27
56 -32 56 -10 0 5 17 26 37 45 31 31 40 35 56 25 17 -11 17 -10 7 10 -9 16 -9
20 -1 14 12 -7 7 25 -11 74 -5 15 -5 28 0 33 15 15 21 -3 27 -83 5 -81 -4
-111 -28 -91 -7 7 -16 9 -20 6 -9 -9 5 -37 24 -52 14 -9 16 -21 12 -50 -7 -45
-10 -49 -25 -34 -16 16 -28 15 -28 -2 0 -20 21 -25 70 -19 42 6 43 5 38 -20
-6 -29 5 -52 24 -52 18 0 23 -36 6 -46 -10 -7 -9 -9 4 -9 11 0 15 -6 11 -19
-3 -12 2 -20 16 -24 18 -4 21 -13 21 -69 1 -64 15 -98 41 -98 8 0 23 -7 33
-15 10 -8 23 -12 28 -9 5 3 19 -1 32 -9 12 -9 36 -17 52 -19 24 -2 28 -7 26
-25 -3 -19 2 -23 22 -23 16 0 26 6 26 15 0 19 14 19 29 1 6 -7 22 -13 36 -13
20 0 24 4 23 23 -1 13 -8 24 -15 24 -16 0 -16 -1 2 50 8 24 13 51 10 60 -8 27
-80 42 -170 36 -103 -6 -122 5 -100 57 8 20 19 39 25 42 6 4 8 10 5 15 -3 5 1
22 8 37 16 32 14 167 -3 188 -5 6 -6 16 -2 20 4 5 1 5 -6 1 -6 -4 -12 -16 -12
-27 0 -21 -25 -26 -34 -6 -3 6 -3 0 0 -15 5 -21 2 -28 -10 -28 -10 0 -13 -6
-10 -15 4 -8 2 -15 -2 -16 -5 0 -17 -2 -26 -4 -11 -2 -18 3 -19 13 -1 10 -3
26 -4 37 -2 11 -6 50 -8 87 -3 36 -7 70 -10 75 -3 5 -8 29 -12 53 -4 25 -12
48 -18 52 -8 5 -7 11 2 21 14 17 9 95 -6 106 -16 10 -31 87 -21 105 5 9 7 30
3 45 -4 18 -1 34 8 42 27 28 37 59 37 121 1 35 7 76 14 93 13 31 10 75 -5 75
-5 0 -9 8 -9 18 0 27 -20 42 -57 42 -24 0 -33 -5 -34 -17 0 -10 -3 -13 -5 -6
-3 7 -12 9 -21 6 -8 -3 -18 -1 -22 5 -13 22 -141 -27 -141 -53 0 -8 -7 -15
-15 -15 -8 0 -15 -6 -15 -13 0 -7 -20 -23 -45 -35 -24 -12 -51 -32 -60 -46 -9
-13 -27 -27 -39 -30 -13 -3 -26 -15 -29 -27 -3 -11 -15 -23 -26 -26 -12 -3
-21 -13 -21 -23 0 -23 -34 -52 -56 -48 -11 2 -20 -5 -23 -19 -7 -24 -52 -63
-74 -63 -8 0 -17 -7 -21 -15 -3 -8 -10 -15 -17 -15 -17 0 -59 -36 -51 -45 4
-4 -3 -4 -16 -1 -23 8 -61 -17 -43 -28 5 -4 12 0 14 6 4 10 8 10 15 -1 9 -12
13 -12 26 -2 9 7 23 10 32 7 19 -7 132 15 220 43 103 33 124 31 146 -7 10 -18
16 -38 13 -43 -4 -5 1 -12 10 -15 14 -6 14 -8 -2 -19 -17 -13 -17 -14 1 -34
25 -27 15 -50 -18 -44 -14 3 -26 12 -26 19 0 11 -21 13 -102 12 -85 -2 -105
-6 -116 -20 -14 -20 -60 -35 -247 -83 -71 -18 -150 -40 -175 -48 -25 -8 -90
-27 -145 -42 -55 -14 -143 -40 -195 -57 -52 -16 -124 -36 -160 -43 -36 -7 -83
-18 -105 -24 -67 -18 -215 -26 -215 -12 0 7 -5 9 -10 6 -6 -4 -17 -1 -25 5 -8
7 -24 10 -35 7 -35 -9 -23 19 30 69 27 26 47 50 45 54 -6 9 35 21 88 26 20 2
47 9 60 15 12 7 67 23 122 35 55 13 136 32 180 43 44 12 96 23 115 27 54 9
159 33 220 49 30 8 62 15 71 15 9 0 22 7 29 15 7 9 21 13 31 10 21 -7 36 12
21 27 -6 6 -7 17 -2 27 5 9 11 28 15 44 3 15 12 27 20 27 19 0 19 14 0 30 -29
24 -7 60 25 40 17 -11 51 0 43 13 -4 6 -6 30 -4 54 2 32 -1 43 -12 43 -10 0
-16 18 -21 61 -9 92 -8 107 12 127 10 10 28 39 40 63 22 45 52 77 90 98 24 13
32 6 32 -27 0 -15 7 -26 20 -29 22 -6 27 -38 7 -46 -6 -3 -2 -6 10 -6 22 -1
53 23 53 41 0 5 -16 26 -35 45 -35 35 -35 36 -15 50 11 8 20 21 20 28 0 8 9
20 20 27 11 7 20 21 20 30 0 10 7 18 15 18 8 0 15 4 15 9 0 5 -7 14 -15 21 -8
7 -15 9 -15 5 0 -4 -12 4 -27 19 -19 20 -33 26 -50 21 -20 -5 -21 -3 -14 17 7
19 16 23 49 21 33 -1 42 2 47 18 4 10 4 23 1 28 -3 5 1 14 9 21 8 7 15 19 15
26 0 8 7 14 15 14 8 0 15 7 15 15 0 10 10 15 28 15 33 0 46 9 56 35 6 16 9 17
16 5 6 -8 10 -13 10 -10 10 75 8 99 -5 93 -26 -9 9 60 36 73 31 15 85 32 127
39 60 10 162 75 162 104 0 9 14 27 30 39 17 13 30 31 30 41 0 10 7 24 15 31 9
7 14 19 11 26 -3 7 2 18 10 24 8 7 14 23 14 36 0 12 5 26 10 29 6 3 10 5 10 3
1 -15 29 -79 30 -67 0 9 7 19 15 23 8 3 15 17 15 32 0 27 -50 136 -76 165 -8
8 -14 23 -14 32 0 9 -6 20 -12 24 -24 15 -41 44 -44 71 -16 169 -45 228 -107
217 -22 -4 -35 2 -60 28 -52 51 -79 65 -143 69 -32 3 -115 13 -184 22 -77 11
-150 15 -190 12 -100 -10 -154 -16 -167 -21 -7 -2 -38 0 -69 5 -31 5 -62 6
-68 2 -6 -3 -18 -5 -28 -4 -9 2 -19 -1 -22 -7 -9 -15 -116 -1 -159 21 -20 10
-72 26 -115 34 -84 18 -141 43 -187 83 -52 45 -175 100 -245 110 -36 6 -91 19
-122 30 -80 29 -215 38 -265 18 -43 -17 -66 -14 -198 27 -51 15 -82 19 -115
14 -30 -4 -72 0 -125 12 -104 24 -205 37 -335 45 -58 3 -132 7 -165 9 -33 2
-91 0 -130 -4z m314 -194 c-10 -9 -79 -16 -79 -8 0 5 19 9 42 10 23 1 39 0 37
-2z m2802 -943 c-2 -24 -13 -46 -31 -65 -28 -28 -60 -37 -60 -18 0 18 -18 10
-23 -10 -3 -11 -12 -20 -21 -20 -25 0 -22 67 3 75 10 3 32 18 47 32 33 31 76
55 83 47 3 -3 4 -21 2 -41z m-161 -107 c0 -20 -16 -36 -36 -36 -28 0 -31 15
-6 29 17 11 42 14 42 7z m-296 -400 c-6 -27 -43 -44 -64 -31 -13 8 25 45 47
45 7 0 13 5 13 12 0 6 2 9 5 6 4 -3 3 -17 -1 -32z m-78 -137 c3 -6 0 -15 -7
-20 -22 -14 -29 -11 -29 11 0 21 24 27 36 9z m404 -719 c0 -5 -7 -10 -15 -10
-8 0 -15 5 -15 10 0 6 7 10 15 10 8 0 15 -4 15 -10z m-993 -606 c-3 -3 -12 -4
-19 -1 -8 3 -5 6 6 6 11 1 17 -2 13 -5z m-1407 -29 c0 -7 -39 -45 -46 -45 -3
0 -19 -10 -36 -21 -26 -19 -33 -20 -54 -9 -13 8 -24 16 -24 19 1 16 31 43 55
49 32 9 105 13 105 7z m-59 -315 c14 0 19 -7 19 -25 0 -14 -4 -25 -10 -25 -6
0 -6 -9 -1 -22 6 -16 17 -23 35 -23 26 -1 73 -35 48 -35 -8 0 -11 -10 -7 -29
4 -26 2 -30 -22 -33 -16 -2 -27 -8 -26 -14 1 -7 -13 -14 -32 -16 -29 -3 -35 0
-40 20 -3 13 -15 36 -26 51 -13 18 -20 44 -21 87 -2 69 6 87 33 79 12 -4 19
-1 20 7 1 7 3 5 6 -4 2 -10 13 -18 24 -18z m1739 -10 c0 -5 -4 -10 -10 -10 -5
0 -10 5 -10 10 0 6 5 10 10 10 6 0 10 -4 10 -10z m367 -46 c-3 -3 -12 -4 -19
-1 -8 3 -5 6 6 6 11 1 17 -2 13 -5z m-183 -73 c6 -9 -35 -24 -43 -15 -6 5 18
24 31 24 4 0 9 -4 12 -9z m-1794 -21 c0 -5 -7 -10 -15 -10 -8 0 -15 5 -15 10
0 6 7 10 15 10 8 0 15 -4 15 -10z m2147 -77 c5 -13 -31 -23 -47 -13 -9 6 -7
11 6 19 21 12 36 10 41 -6z m-74 -10 c-7 -2 -19 -2 -25 0 -7 3 -2 5 12 5 14 0
19 -2 13 -5z m257 -123 c0 -5 -4 -10 -10 -10 -5 0 -10 5 -10 10 0 6 5 10 10
10 6 0 10 -4 10 -10z m-2300 -40 c0 -5 -5 -10 -11 -10 -5 0 -7 -4 -4 -10 3 -5
2 -10 -4 -10 -17 0 -41 12 -41 20 0 7 10 11 53 19 4 0 7 -3 7 -9z m2620 -59
c0 -6 -4 -13 -10 -16 -5 -3 -10 1 -10 9 0 9 5 16 10 16 6 0 10 -4 10 -9z m-96
-27 c9 -3 16 -10 16 -16 0 -14 -43 -5 -48 10 -4 13 7 15 32 6z m-594 -34 c11
-7 4 -10 -25 -9 -31 0 -36 2 -20 9 26 11 28 11 45 0z m94 -5 c15 -12 17 -18 8
-27 -9 -9 -13 -7 -18 5 -3 9 -12 17 -20 17 -8 0 -14 5 -14 10 0 14 22 12 44
-5z m-1761 -67 c26 3 37 0 37 -9 0 -10 3 -10 12 -1 20 20 65 15 71 -9 4 -15
-1 -22 -19 -30 -14 -5 -23 -13 -19 -18 3 -5 1 -12 -4 -15 -5 -4 -12 -2 -15 3
-4 5 -25 13 -49 17 -53 11 -59 11 -77 13 -31 3 -43 17 -31 39 9 17 16 20 34
13 12 -4 39 -6 60 -3z m191 -10 c15 -14 9 -51 -8 -45 -6 2 -10 12 -10 21 1 11
-6 16 -23 16 -13 0 -21 4 -18 10 9 14 43 13 59 -2z m1711 2 c3 -5 -1 -10 -9
-10 -9 0 -16 5 -16 10 0 6 4 10 9 10 6 0 13 -4 16 -10z m-1640 -10 c-3 -5 -10
-10 -16 -10 -5 0 -9 5 -9 10 0 6 7 10 16 10 8 0 12 -4 9 -10z m1345 -35 c0 -8
-4 -15 -10 -15 -5 0 -10 7 -10 15 0 8 5 15 10 15 6 0 10 -7 10 -15z m190 -35
c0 -5 -12 -10 -27 -9 -25 0 -26 1 -8 9 27 12 35 12 35 0z m-113 -12 c-28 -7
-42 -7 -50 1 -8 8 2 11 39 10 l49 -1 -38 -10z m123 -13 c-14 -17 -40 -20 -40
-6 0 8 18 16 44 20 5 0 3 -6 -4 -14z m70 5 c0 -5 -7 -7 -15 -4 -8 4 -15 8 -15
10 0 2 7 4 15 4 8 0 15 -4 15 -10z m-160 -10 c0 -5 -4 -10 -9 -10 -6 0 -13 5
-16 10 -3 6 1 10 9 10 9 0 16 -4 16 -10z m-2762 -703 c2 -10 -4 -15 -22 -13
-13 0 -22 4 -20 8 2 4 0 9 -5 13 -6 3 -8 12 -4 21 5 13 8 13 27 1 11 -8 22
-21 24 -30z m104 -604 c16 5 36 -7 79 -43 31 -28 61 -50 65 -50 5 0 20 -12 33
-25 13 -14 30 -25 37 -25 15 0 76 -39 82 -52 2 -4 19 -15 38 -24 19 -9 47 -32
61 -51 14 -19 52 -61 84 -94 44 -46 57 -66 56 -87 -2 -23 1 -27 21 -24 20 3
23 0 17 -17 -5 -16 -2 -21 13 -21 11 0 25 -7 32 -15 7 -8 19 -15 26 -15 8 0
14 -5 14 -10 0 -15 50 -60 66 -60 8 0 14 -5 14 -11 0 -6 9 -9 20 -6 11 3 20 1
20 -4 0 -5 -11 -9 -23 -9 -20 0 -24 -5 -22 -30 l2 -30 -58 1 c-32 1 -56 6 -53
10 3 5 -3 9 -13 9 -10 1 -97 3 -194 6 -138 4 -183 3 -210 -8 -20 -9 -44 -11
-59 -7 -14 4 -46 7 -72 8 -26 1 -58 5 -71 10 -32 12 -157 -15 -174 -38 -8 -10
-12 -12 -13 -3 0 6 -6 12 -12 12 -7 0 -40 13 -73 29 -42 20 -64 26 -72 19 -14
-11 -20 -2 -26 42 -2 14 -7 33 -12 43 -10 23 0 59 24 88 l20 24 -1 -35 c0 -43
17 -89 36 -96 8 -3 24 -1 35 6 17 9 21 20 21 60 0 28 5 50 12 52 22 8 -4 28
-36 28 -18 0 -35 3 -38 6 -11 11 4 40 25 49 12 6 32 26 45 45 13 19 32 45 42
57 26 30 50 78 50 101 0 10 5 23 10 28 6 6 12 28 14 50 2 21 4 44 5 51 0 7 8
10 16 7 10 -4 15 0 15 11 0 9 5 13 10 10 6 -3 10 3 10 14 0 12 5 21 10 21 6 0
10 8 11 18 0 12 3 11 10 -7 7 -17 15 -22 31 -18z m1596 -55 c19 -19 14 -28
-13 -28 -24 0 -34 18 -18 33 9 10 17 9 31 -5z m42 -32 c0 -3 -4 -8 -10 -11 -5
-3 -10 -1 -10 4 0 6 5 11 10 11 6 0 10 -2 10 -4z m720 -432 c0 -18 -14 -18
-29 0 -9 11 -9 15 1 19 17 6 28 -1 28 -19z m115 -54 c3 -5 1 -10 -4 -10 -6 0
-11 5 -11 10 0 6 2 10 4 10 3 0 8 -4 11 -10z m-1513 -65 c9 -10 -36 -95 -50
-95 -9 0 -11 7 -7 20 5 14 2 20 -9 20 -9 0 -16 -4 -16 -10 0 -5 -9 -10 -21
-10 -32 0 -17 25 17 28 16 2 36 5 44 8 13 5 12 7 -2 15 -10 6 -18 14 -18 19 0
10 53 14 62 5z m-174 -42 c-10 -2 -26 -2 -35 0 -10 3 -2 5 17 5 19 0 27 -2 18
-5z m197 -3 c3 -5 23 -10 43 -11 32 0 34 -1 15 -9 -35 -14 -27 -23 12 -16 40
8 65 -1 44 -15 -17 -11 -136 -12 -142 -1 -7 11 4 62 14 62 4 0 11 -4 14 -10z
m151 -37 c-3 -3 -13 0 -22 8 -15 12 -14 14 3 20 17 6 32 -15 19 -28z m135 26
c23 -12 18 -24 -22 -44 -26 -14 -29 -14 -29 0 0 8 9 15 20 15 11 0 20 5 20 10
0 6 -6 10 -14 10 -8 0 -18 5 -21 10 -8 13 21 13 46 -1z m-81 -14 c0 -8 -6 -15
-14 -15 -8 0 -16 7 -20 15 -4 10 1 15 14 15 11 0 20 -7 20 -15z m1033 3 c9 2
17 -3 17 -11 0 -20 -12 -28 -25 -17 -9 7 -14 6 -18 -3 -4 -11 8 -16 45 -20 28
-4 53 -8 55 -11 11 -11 -9 -86 -23 -86 -17 0 -19 -31 -2 -48 9 -9 7 -12 -12
-13 -34 -2 -54 2 -60 10 -3 5 -21 10 -41 14 -20 3 -56 17 -78 32 -23 14 -46
23 -51 20 -14 -9 -12 7 4 28 12 15 18 16 35 8 26 -14 67 1 74 28 2 11 0 22 -6
24 -17 5 2 27 24 27 11 0 19 7 19 16 0 10 4 12 13 7 6 -4 20 -6 30 -5z m-103
-62 c0 -8 -4 -18 -10 -21 -5 -3 -10 3 -10 14 0 12 5 21 10 21 6 0 10 -6 10
-14z m-2276 -12 c13 -5 14 -9 5 -20 -13 -16 -29 -9 -29 12 0 16 2 16 24 8z
m2123 -30 c-3 -3 -12 -4 -19 -1 -8 3 -5 6 6 6 11 1 17 -2 13 -5z m-2407 -34
c0 -6 -13 -19 -30 -28 -35 -20 -35 -53 1 -63 34 -10 114 -11 123 -1 4 4 17 7
29 8 12 0 47 7 77 16 30 8 78 21 105 28 64 16 276 22 293 8 7 -6 52 -12 100
-13 99 -3 132 -10 132 -30 0 -24 -18 -27 -90 -16 -57 9 -76 9 -98 -3 -15 -7
-54 -15 -87 -17 -54 -4 -60 -2 -57 15 3 17 -2 18 -58 13 -33 -3 -68 -11 -76
-18 -11 -9 -18 -9 -26 -1 -6 6 -17 7 -27 2 -9 -4 -53 -16 -98 -26 -46 -10 -83
-22 -83 -25 0 -4 -43 -12 -96 -19 -110 -15 -124 -9 -126 54 -1 20 -5 39 -10
42 -4 3 -8 14 -8 25 0 13 7 19 24 19 13 0 34 9 47 20 27 22 39 25 39 10z
m1228 -84 c18 -22 22 -63 9 -75 -17 -14 -65 7 -73 32 -5 17 -15 21 -46 18 -31
-4 -19 16 18 31 39 16 78 13 92 -6z m-261 -2 c-3 -3 -12 -4 -19 -1 -8 3 -5 6
6 6 11 1 17 -2 13 -5z m353 -29 c0 -8 -4 -15 -10 -15 -5 0 -10 7 -10 15 0 8 5
15 10 15 6 0 10 -7 10 -15z m-170 -59 c0 -18 -22 -36 -43 -36 -10 0 -32 -9
-48 -21 -16 -11 -33 -17 -39 -14 -5 3 -10 -1 -10 -9 0 -9 -3 -17 -7 -17 -5 -1
-21 -3 -36 -5 -16 -1 -39 -9 -50 -16 -39 -25 -101 -40 -147 -36 -35 3 -41 5
-25 12 58 24 85 38 90 46 3 6 15 10 26 10 10 0 38 9 62 19 23 11 58 24 77 30
20 6 51 22 70 34 34 24 80 25 80 3z m-926 -25 c11 -18 -7 -42 -36 -48 -16 -3
-35 -14 -41 -24 -16 -25 -53 -25 -60 0 -5 21 9 41 30 41 7 0 13 6 13 14 0 9
13 16 33 19 17 2 37 5 44 5 6 1 14 -2 17 -7z m-224 -61 c-14 -4 -19 -8 -12 -9
25 -2 6 -25 -25 -32 -43 -9 -58 2 -35 27 11 12 33 20 58 21 32 1 35 0 14 -7z
m498 -17 c2 -9 -7 -13 -27 -13 -17 0 -40 -6 -51 -12 -17 -11 -22 -10 -30 2 -6
10 -10 11 -10 3 0 -7 -5 -13 -12 -13 -26 0 22 33 59 40 49 10 65 8 71 -7z
m222 8 c0 -12 -28 -22 -34 -12 -3 5 -3 11 1 15 9 9 33 7 33 -3z m-352 -88
c-11 -23 -20 -28 -56 -31 -51 -3 -54 4 -7 24 19 8 35 19 35 25 0 5 4 8 9 4 5
-3 13 0 16 6 14 22 16 0 3 -28z m32 7 c0 -5 -4 -10 -10 -10 -5 0 -10 5 -10 10
0 6 5 10 10 10 6 0 10 -4 10 -10z m318 -7 c2 -8 -5 -13 -17 -13 -12 0 -21 6
-21 16 0 18 31 15 38 -3z m-92 -29 c-3 -18 -18 -28 -58 -38 -25 -6 -28 -4 -28
18 0 22 5 25 43 29 23 2 43 4 44 5 1 1 0 -5 -1 -14z m-166 -34 c0 -7 13 -8 35
-4 37 7 51 -11 18 -23 -10 -3 -24 -11 -32 -17 -14 -11 -21 -13 -68 -22 -29 -6
-32 -9 -28 -33 3 -14 2 -20 -1 -13 -3 6 -12 12 -20 12 -8 0 -14 -6 -14 -12 0
-7 -11 -21 -24 -30 -21 -15 -25 -15 -30 -3 -3 9 0 15 9 15 21 0 19 27 -5 60
-13 18 -16 31 -10 35 5 3 10 3 10 -2 0 -4 27 -8 60 -8 64 0 90 16 68 42 -8 10
-5 13 11 13 11 0 21 -5 21 -10z m926 -4 c3 -8 12 -12 20 -9 27 10 14 -12 -15
-25 -18 -8 -44 -10 -70 -6 l-42 7 22 23 c25 27 76 32 85 10z m-766 -51 c0 -14
-4 -25 -9 -25 -10 0 -21 36 -13 44 12 13 22 5 22 -19z m178 -9 c4 -19 16 -20
43 -5 33 17 137 19 143 3 3 -8 15 -14 26 -14 14 0 24 -10 32 -31 9 -25 15 -30
34 -25 12 3 26 1 30 -5 4 -7 21 -9 45 -5 21 3 49 2 63 -4 27 -10 35 -35 14
-42 -7 -3 -9 -12 -5 -22 5 -12 13 -15 27 -11 25 8 27 -20 3 -47 -16 -18 -15
-19 6 -34 17 -12 21 -22 17 -40 -6 -21 -3 -24 20 -24 15 0 34 -10 44 -22 24
-30 30 -22 33 41 2 50 2 51 35 51 17 0 32 5 32 10 0 18 28 11 58 -15 18 -15
42 -25 61 -25 17 0 31 -4 31 -10 0 -5 11 -10 23 -10 13 0 34 -9 47 -20 13 -11
31 -20 41 -20 10 0 21 -5 24 -10 4 -6 11 -8 16 -5 5 4 9 2 9 -4 0 -5 -9 -13
-20 -16 -11 -3 -20 -10 -20 -14 0 -13 65 -39 114 -46 34 -5 46 -11 42 -21 -5
-14 29 -44 51 -44 7 0 13 7 13 15 0 13 16 15 93 14 50 -1 106 -7 122 -14 17
-7 38 -15 48 -19 25 -8 21 -19 -12 -39 -32 -19 -91 -23 -91 -7 0 7 -21 9 -62
4 -35 -4 -67 -7 -73 -6 -83 7 -287 7 -292 -1 -3 -5 -25 -7 -49 -3 -29 4 -44 2
-44 -5 0 -6 -6 -9 -13 -6 -7 3 -19 -4 -25 -14 -15 -24 -33 -25 -26 -1 3 9 -5
4 -20 -13 -14 -16 -26 -33 -26 -37 0 -3 -15 -10 -32 -13 -18 -4 -36 -12 -39
-18 -4 -5 -19 -11 -34 -12 -15 -2 -34 -10 -43 -18 -10 -8 -35 -20 -57 -26 -58
-15 -102 -52 -132 -109 -26 -52 -46 -62 -124 -62 -15 0 -32 -7 -39 -15 -7 -8
-27 -17 -46 -21 -19 -3 -34 -12 -34 -19 0 -8 -9 -17 -20 -20 -11 -4 -27 -17
-36 -30 -8 -12 -29 -25 -46 -29 -30 -6 -31 -7 -13 -26 17 -18 17 -20 1 -20 -9
0 -27 -10 -40 -22 -13 -13 -41 -32 -62 -43 -24 -13 -40 -29 -44 -45 -5 -20
-12 -25 -40 -26 -36 -1 -90 20 -90 35 0 17 29 33 49 26 15 -4 30 3 56 29 20
20 46 36 58 36 19 0 23 5 22 33 0 31 -1 32 -42 32 -27 1 -50 8 -64 20 -16 14
-23 16 -26 8 -8 -22 -39 -14 -51 12 -15 33 -15 40 1 27 13 -11 67 -13 67 -3 0
3 -9 12 -20 19 -21 13 -28 42 -10 42 6 0 10 5 10 11 0 7 8 18 17 24 17 12 17
14 -1 34 -18 20 -18 21 -1 21 10 0 29 10 42 22 l23 22 41 -22 c23 -13 44 -21
46 -19 7 7 -27 77 -38 77 -7 0 -9 9 -4 23 4 12 7 30 6 40 0 17 8 20 39 18 10
0 11 1 3 5 -7 3 -13 20 -13 37 0 18 -7 44 -14 60 -16 29 -11 32 29 17 14 -5
24 -14 20 -19 -3 -6 4 -15 16 -22 19 -10 25 -8 40 12 24 33 9 48 -47 45 -34
-2 -44 1 -40 11 6 16 -6 17 -21 2 -6 -6 -16 -8 -22 -4 -8 4 -4 16 11 37 l22
31 -30 23 c-16 13 -32 24 -36 24 -5 0 -8 5 -8 10 0 6 10 10 23 10 16 0 27 9
37 33 7 17 15 35 17 38 2 4 -5 9 -17 12 -11 3 -23 13 -27 24 -4 10 -14 23 -22
30 -14 10 -14 12 1 18 23 9 12 28 -11 20 -9 -3 -26 1 -36 9 -18 13 -16 15 28
21 57 9 57 26 2 32 -58 5 -68 11 -62 33 3 11 1 20 -4 20 -5 0 -9 -8 -10 -17 0
-15 -2 -14 -11 4 -22 46 26 61 91 27 30 -16 49 -7 25 11 -12 8 -15 18 -9 31 5
12 9 15 12 7 6 -17 33 -17 33 0 0 20 114 13 118 -7z m655 -46 c67 0 51 -16
-37 -35 -82 -18 -121 -17 -121 4 0 16 62 41 90 35 11 -2 42 -4 68 -4z m187
-10 c0 -13 -30 -13 -50 0 -11 7 -7 10 18 10 17 0 32 -4 32 -10z m-381 -44 c-9
-8 -10 -7 -5 7 3 10 7 24 7 30 1 7 3 4 6 -7 3 -10 -1 -23 -8 -30z m-811 -38
c-3 -7 -12 -14 -21 -16 -12 -2 -15 1 -11 12 7 19 38 22 32 4z m922 -60 c0 -5
-9 -4 -20 2 -21 11 -25 22 -13 34 8 7 33 -21 33 -36z m-926 -7 c5 -8 -85 -23
-93 -15 -6 6 41 23 66 23 12 1 24 -3 27 -8z m78 -18 c-6 -2 -10 -9 -6 -14 3
-5 -2 -9 -10 -9 -9 0 -16 7 -16 15 0 9 9 15 23 14 12 0 16 -3 9 -6z m78 -13
c0 -5 -6 -10 -14 -10 -8 0 -18 5 -21 10 -3 6 3 10 14 10 12 0 21 -4 21 -10z
m1405 -101 c4 -5 -6 -14 -20 -21 -19 -8 -22 -14 -13 -20 8 -5 1 -6 -17 -2 -35
8 -55 22 -55 39 0 14 97 19 105 4z m-1405 -136 c0 -5 -4 -15 -10 -23 -11 -18
-25 -7 -17 15 6 15 27 21 27 8z m1705 -83 c4 -6 15 -8 24 -5 14 4 18 0 17 -17
-2 -24 -15 -26 -53 -6 -13 6 -23 17 -23 25 0 15 26 18 35 3z m-715 -290 c0 -5
-8 -10 -17 -10 -15 0 -16 2 -3 10 19 12 20 12 20 0z m-1080 -10 c0 -5 -5 -10
-11 -10 -5 0 -7 5 -4 10 3 6 8 10 11 10 2 0 4 -4 4 -10z m1070 -30 c0 -11 -7
-20 -15 -20 -8 0 -15 5 -15 10 0 18 -50 10 -62 -10 -15 -24 -48 -27 -48 -4 0
28 32 43 88 44 45 0 52 -2 52 -20z m-310 -76 c0 -8 -9 -14 -22 -14 -21 1 -22
2 -6 14 10 7 14 17 10 21 -4 5 -1 5 6 1 6 -4 12 -14 12 -22z m160 -14 c0 -5
-7 -7 -15 -4 -8 4 -12 10 -9 15 6 11 24 2 24 -11z m-290 -25 c-7 -9 -15 -13
-17 -11 -7 7 7 26 19 26 6 0 6 -6 -2 -15z m-636 -41 c12 -5 13 -10 5 -26 -9
-17 -13 -18 -20 -7 -9 15 -12 39 -5 39 2 0 11 -3 20 -6z m587 -13 c-7 -5 -10
-14 -7 -20 4 -6 0 -14 -8 -17 -11 -4 -13 -14 -10 -33 4 -21 1 -30 -11 -35 -9
-3 -21 -3 -26 0 -6 3 -15 1 -22 -4 -7 -5 -25 -6 -45 0 l-33 9 21 29 c12 17 28
30 36 30 8 0 14 6 14 14 0 9 17 19 43 24 56 13 65 13 48 3z m-646 -111 c0 -7
-6 -15 -12 -17 -8 -3 -13 4 -13 17 0 13 5 20 13 18 6 -3 12 -11 12 -18z m562
-26 c-3 -3 -12 -4 -19 -1 -8 3 -5 6 6 6 11 1 17 -2 13 -5z m-506 -27 c-13 -13
-26 -3 -16 12 3 6 11 8 17 5 6 -4 6 -10 -1 -17z m19 -27 c0 -5 -4 -10 -10 -10
-5 0 -10 5 -10 10 0 6 5 10 10 10 6 0 10 -4 10 -10z m-51 -40 c1 13 2 13 11 0
14 -22 12 -40 -4 -40 -15 0 -26 22 -25 48 0 14 2 13 9 -3 6 -13 9 -15 9 -5z
m4111 -258 c0 -21 -26 2 -33 29 -5 20 -5 20 14 3 10 -9 19 -24 19 -32z m-3980
30 c0 -4 -9 -13 -20 -20 -19 -12 -20 -11 -8 8 13 20 28 27 28 12z m4131 -154
c31 -61 35 -84 19 -108 -9 -13 -12 -13 -23 1 -7 9 -21 19 -32 22 -18 6 -20 17
-22 94 -2 81 -1 86 13 68 9 -11 29 -46 45 -77z m-71 -34 c0 -8 -4 -12 -10 -9
-5 3 -10 10 -10 16 0 5 5 9 10 9 6 0 10 -7 10 -16z m137 -336 c6 -7 18 -38 28
-68 9 -30 21 -63 26 -72 12 -23 11 -28 -2 -28 -7 0 -18 8 -25 18 -24 29 -64
113 -64 131 0 31 20 41 37 19z m293 -779 c29 -18 75 -62 106 -101 47 -58 68
-75 127 -103 63 -30 76 -41 101 -86 15 -28 41 -66 57 -84 16 -18 29 -36 29
-39 0 -20 54 -80 109 -122 68 -51 119 -120 145 -197 9 -26 32 -71 51 -100 46
-68 46 -81 -2 -75 -38 5 -69 22 -161 86 -26 17 -56 36 -67 41 -37 17 -84 66
-91 93 -9 40 18 47 57 13 37 -30 141 -85 164 -85 19 0 20 16 0 24 -8 3 -15 12
-15 19 0 17 -63 82 -115 119 -40 29 -86 89 -129 170 -30 54 -53 75 -42 37 3
-13 9 -49 12 -79 5 -44 3 -58 -10 -69 -18 -15 -23 -12 -103 63 -47 44 -51 57
-27 77 29 24 12 86 -38 135 -24 23 -52 58 -62 76 -10 18 -48 58 -83 88 -54 45
-93 98 -93 125 0 13 34 2 80 -26z m1377 -391 c-3 -8 -6 -5 -6 6 -1 11 2 17 5
13 3 -3 4 -12 1 -19z m-59 -29 c-3 -8 -7 -3 -11 10 -4 17 -3 21 5 13 5 -5 8
-16 6 -23z m-21 -11 c-3 -8 -6 -5 -6 6 -1 11 2 17 5 13 3 -3 4 -12 1 -19z
m-838 -804 c32 -51 44 -81 51 -137 6 -39 15 -76 20 -81 11 -11 13 -85 4 -110
-17 -44 -64 17 -64 83 0 16 -4 32 -9 36 -19 11 -69 111 -76 151 -4 28 -1 54
10 82 10 23 18 42 20 42 2 0 21 -30 44 -66z"/>
<path d="M1490 4629 c0 -5 5 -7 10 -4 6 3 10 8 10 11 0 2 -4 4 -10 4 -5 0 -10
-5 -10 -11z"/>
<path d="M1946 4558 c-9 -35 -8 -38 19 -38 33 0 43 26 19 45 -26 20 -31 19
-38 -7z"/>
<path d="M1840 4540 c0 -5 5 -10 11 -10 5 0 7 5 4 10 -3 6 -8 10 -11 10 -2 0
-4 -4 -4 -10z"/>
<path d="M2080 4540 c0 -5 7 -10 16 -10 8 0 12 5 9 10 -3 6 -10 10 -16 10 -5
0 -9 -4 -9 -10z"/>
<path d="M1825 4470 c3 -5 8 -10 11 -10 2 0 4 5 4 10 0 6 -5 10 -11 10 -5 0
-7 -4 -4 -10z"/>
<path d="M2098 4473 c-10 -2 -18 -8 -18 -12 0 -11 49 -1 56 10 5 9 -8 10 -38
2z"/>
<path d="M2267 4473 c-4 -3 -7 -14 -7 -23 0 -9 -9 -25 -20 -35 -11 -10 -17
-22 -13 -26 13 -12 93 2 93 16 0 8 6 15 13 18 21 7 -12 57 -38 57 -12 0 -25
-3 -28 -7z"/>
<path d="M1871 4401 c-9 -6 -10 -11 -2 -15 14 -9 51 2 51 15 0 11 -30 12 -49
0z"/>
<path d="M2570 4369 c0 -7 -7 -20 -15 -29 -13 -15 -11 -16 26 -14 66 3 73 30
12 48 -15 5 -23 3 -23 -5z"/>
<path d="M1984 4321 c19 -7 18 -8 -5 -14 -22 -7 -23 -8 -6 -18 21 -12 22 -12
31 19 6 18 4 22 -16 21 -21 0 -21 -1 -4 -8z"/>
<path d="M2666 4281 c-5 -8 -20 -11 -38 -9 -22 4 -28 1 -23 -9 3 -8 5 -17 5
-19 0 -2 11 -4 24 -4 26 0 50 23 44 42 -3 9 -6 9 -12 -1z"/>
<path d="M1875 4270 c-3 -5 -2 -10 4 -10 5 0 13 5 16 10 3 6 2 10 -4 10 -5 0
-13 -4 -16 -10z"/>
<path d="M2246 4271 c-37 -8 -44 -27 -14 -36 13 -5 24 -3 26 4 2 6 12 11 23
11 10 0 19 7 19 15 0 16 -7 17 -54 6z"/>
<path d="M2521 4258 c-11 -28 5 -50 19 -28 13 20 13 50 0 50 -6 0 -15 -10 -19
-22z"/>
<path d="M2800 4270 c0 -5 5 -10 11 -10 5 0 7 5 4 10 -3 6 -8 10 -11 10 -2 0
-4 -4 -4 -10z"/>
<path d="M2768 4243 c7 -3 16 -2 19 1 4 3 -2 6 -13 5 -11 0 -14 -3 -6 -6z"/>
<path d="M1920 4006 c0 -2 9 -6 20 -9 11 -3 20 -1 20 4 0 5 -9 9 -20 9 -11 0
-20 -2 -20 -4z"/>
<path d="M1885 3980 c3 -5 8 -10 11 -10 2 0 4 5 4 10 0 6 -5 10 -11 10 -5 0
-7 -4 -4 -10z"/>
<path d="M2095 3969 c-10 -15 3 -25 16 -12 7 7 7 13 1 17 -6 3 -14 1 -17 -5z"/>
<path d="M1974 3949 c-3 -5 2 -12 10 -15 9 -3 16 -16 16 -28 0 -28 18 -46 46
-46 55 0 20 93 -36 96 -17 1 -33 -2 -36 -7z"/>
<path d="M2080 3930 c0 -5 5 -10 11 -10 5 0 7 5 4 10 -3 6 -8 10 -11 10 -2 0
-4 -4 -4 -10z"/>
<path d="M1903 3923 c9 -2 25 -2 35 0 9 3 1 5 -18 5 -19 0 -27 -2 -17 -5z"/>
<path d="M1955 3880 c-3 -5 -1 -10 4 -10 6 0 11 5 11 10 0 6 -2 10 -4 10 -3 0
-8 -4 -11 -10z"/>
<path d="M1787 3802 c-39 -3 -48 -6 -45 -20 5 -26 53 -27 78 -2 12 12 20 22
18 23 -1 1 -25 1 -51 -1z"/>
<path d="M1703 3736 c13 -27 27 -25 27 5 0 12 -7 19 -19 19 -17 0 -18 -3 -8
-24z"/>
<path d="M1760 3695 c0 -8 9 -15 20 -15 11 0 20 7 20 15 0 8 -9 15 -20 15 -11
0 -20 -7 -20 -15z"/>
<path d="M9791 10204 c0 -11 3 -14 6 -6 3 7 2 16 -1 19 -3 4 -6 -2 -5 -13z"/>
<path d="M9846 9505 c4 -8 10 -12 15 -9 14 8 10 24 -6 24 -9 0 -12 -6 -9 -15z"/>
<path d="M4281 9424 c0 -11 3 -14 6 -6 3 7 2 16 -1 19 -3 4 -6 -2 -5 -13z"/>
<path d="M4242 9400 c0 -14 2 -19 5 -12 2 6 2 18 0 25 -3 6 -5 1 -5 -13z"/>
<path d="M9872 9220 c0 -14 2 -19 5 -12 2 6 2 18 0 25 -3 6 -5 1 -5 -13z"/>
<path d="M4901 9000 c0 -8 4 -22 9 -30 12 -18 12 -2 0 25 -6 13 -9 15 -9 5z"/>
<path d="M4912 8930 c0 -14 2 -19 5 -12 2 6 2 18 0 25 -3 6 -5 1 -5 -13z"/>
<path d="M9912 8825 c0 -16 2 -22 5 -12 2 9 2 23 0 30 -3 6 -5 -1 -5 -18z"/>
<path d="M9905 8771 c-3 -5 -1 -12 5 -16 5 -3 10 1 10 9 0 18 -6 21 -15 7z"/>
<path d="M9910 8693 c0 -35 1 -36 15 -17 19 25 19 40 0 48 -12 4 -15 -3 -15
-31z"/>
<path d="M5776 8685 c4 -8 8 -15 10 -15 2 0 4 7 4 15 0 8 -4 15 -10 15 -5 0
-7 -7 -4 -15z"/>
<path d="M5846 8686 c5 -12 0 -16 -20 -16 -14 0 -26 -4 -26 -10 0 -5 6 -10 14
-10 8 0 16 -5 18 -11 5 -15 48 10 48 27 0 7 7 15 16 18 9 4 14 9 11 13 -4 3
-13 0 -22 -7 -12 -10 -18 -10 -30 0 -13 11 -14 10 -9 -4z"/>
<path d="M6101 8654 c-9 -20 -9 -25 0 -22 7 2 14 14 16 26 4 29 -1 28 -16 -4z"/>
<path d="M6017 8635 c-12 -16 -14 -26 -6 -31 13 -8 29 13 29 39 0 22 -1 21
-23 -8z"/>
<path d="M5877 8633 c-10 -9 -9 -23 1 -23 5 0 9 7 9 15 0 17 -1 18 -10 8z"/>
<path d="M9920 8586 c0 -14 4 -26 10 -26 5 0 7 -6 4 -14 -3 -8 -1 -17 5 -21
17 -10 13 61 -4 75 -13 11 -15 8 -15 -14z"/>
<path d="M9936 8499 c-9 -25 8 -214 19 -210 6 1 8 8 6 15 -3 6 -6 53 -7 105
-3 91 -9 118 -18 90z"/>
<path d="M4640 8455 c0 -8 7 -15 15 -15 8 0 15 7 15 15 0 8 -7 15 -15 15 -8 0
-15 -7 -15 -15z"/>
<path d="M5296 8221 c-48 -26 -100 -79 -62 -65 9 3 16 10 16 15 0 5 10 14 23
20 33 15 67 35 80 48 17 17 -4 11 -57 -18z"/>
<path d="M9951 8223 c1 -22 2 -23 6 -8 3 11 10 23 17 27 7 5 5 8 -6 8 -13 0
-18 -7 -17 -27z"/>
<path d="M3703 8203 c-35 -7 -27 -26 17 -46 23 -11 40 -26 40 -35 0 -11 6 -6
15 12 19 35 19 41 -1 60 -15 16 -28 17 -71 9z"/>
<path d="M9961 8123 c-1 -29 3 -43 12 -43 7 0 12 13 13 31 1 18 -2 26 -6 18
-6 -8 -10 -4 -13 12 -3 15 -5 8 -6 -18z"/>
<path d="M9971 8013 c-1 -52 2 -63 15 -63 12 0 14 3 6 13 -6 7 -9 22 -6 33 2
10 0 33 -5 49 -8 26 -9 22 -10 -32z"/>
<path d="M3945 8010 c-3 -5 1 -10 10 -10 9 0 13 5 10 10 -3 6 -8 10 -10 10 -2
0 -7 -4 -10 -10z"/>
<path d="M3920 7970 c0 -5 5 -10 11 -10 5 0 7 5 4 10 -3 6 -8 10 -11 10 -2 0
-4 -4 -4 -10z"/>
<path d="M9991 7926 c-7 -8 -11 -31 -8 -53 l4 -38 1 43 c1 23 7 42 12 42 6 0
10 -5 10 -12 0 -6 3 -9 6 -5 3 3 2 13 -3 22 -8 14 -11 15 -22 1z"/>
<path d="M2746 7911 c-4 -7 -5 -15 -2 -18 9 -9 19 4 14 18 -4 11 -6 11 -12 0z"/>
<path d="M4270 7913 c0 -17 16 -28 40 -27 52 2 53 3 40 19 -13 15 -80 21 -80
8z"/>
<path d="M5137 7886 c-6 -16 2 -28 14 -20 12 7 11 34 0 34 -5 0 -11 -6 -14
-14z"/>
<path d="M4427 7797 c-7 -19 8 -41 22 -33 16 10 14 46 -3 46 -8 0 -16 -6 -19
-13z"/>
<path d="M9991 7785 c-2 -51 11 -135 20 -129 12 7 11 64 -1 64 -5 0 -10 9 -10
20 0 11 5 20 10 20 6 0 10 5 10 11 0 5 -4 8 -9 4 -5 -3 -12 5 -14 17 -3 18 -5
17 -6 -7z"/>
<path d="M1 7558 c0 -115 1 -208 4 -208 14 0 105 51 105 59 0 6 9 13 20 16 14
4 20 15 20 35 0 16 -4 31 -9 34 -5 3 -12 18 -16 33 -3 16 -13 36 -22 45 -8 9
-12 22 -8 27 8 14 -4 53 -14 47 -14 -9 -69 58 -74 89 -2 17 -5 -63 -6 -177z"/>
<path d="M4658 7683 c7 -3 16 -2 19 1 4 3 -2 6 -13 5 -11 0 -14 -3 -6 -6z"/>
<path d="M10043 7480 c0 -25 2 -35 4 -22 2 12 2 32 0 45 -2 12 -4 2 -4 -23z"/>
<path d="M10245 6380 c-8 -25 0 -39 23 -36 10 2 18 13 20 29 3 21 -1 27 -17
27 -11 0 -22 -9 -26 -20z"/>
<path d="M10281 6293 c0 -25 1 -26 9 -8 12 27 12 35 0 35 -5 0 -10 -12 -9 -27z"/>
<path d="M10311 5903 c0 -7 -13 -24 -27 -40 -23 -25 -24 -28 -7 -34 14 -5 21
1 31 23 7 17 11 38 9 47 -3 9 -5 11 -6 4z"/>
<path d="M10315 5801 c-18 -35 -18 -41 -5 -41 6 0 10 10 10 21 0 18 2 19 15 9
13 -10 15 -9 15 8 0 34 -18 35 -35 3z"/>
<path d="M10335 5750 c4 -6 11 -8 16 -5 14 9 11 15 -7 15 -8 0 -12 -5 -9 -10z"/>
<path d="M10325 5680 c3 -5 -1 -10 -7 -13 -10 -3 -10 -7 -1 -17 14 -15 43 -6
43 14 0 7 -9 16 -20 19 -11 3 -18 1 -15 -3z"/>
<path d="M4090 5551 c0 -24 115 -185 164 -230 14 -14 26 -28 26 -33 0 -5 13
-26 29 -46 16 -20 34 -54 40 -74 7 -20 19 -42 27 -48 7 -7 14 -19 14 -27 0
-27 88 -140 179 -230 181 -180 200 -193 221 -143 7 16 16 30 21 30 13 0 88
-82 95 -102 3 -9 -2 -31 -11 -48 -15 -29 -15 -35 -1 -65 9 -18 14 -39 11 -47
-3 -7 13 -33 36 -58 30 -33 39 -50 35 -67 -4 -13 -9 -34 -12 -47 -3 -13 0 -29
8 -37 7 -8 19 -26 27 -41 8 -16 18 -28 22 -28 4 0 17 -16 29 -35 12 -19 39
-56 60 -82 22 -26 58 -83 80 -127 23 -45 59 -108 80 -141 22 -33 47 -76 57
-95 18 -37 27 -48 77 -102 41 -44 113 -73 160 -64 20 4 38 11 42 17 3 6 7 66
8 134 2 96 6 128 19 148 9 15 24 46 32 71 18 54 13 66 -78 167 -51 57 -117
177 -117 212 0 5 -9 21 -19 36 -12 17 -22 53 -26 99 -4 40 -12 72 -16 72 -5 0
-9 8 -9 18 0 29 -32 52 -60 45 -21 -5 -23 -3 -12 8 16 17 15 29 -2 29 -7 0
-16 9 -19 20 -3 11 -12 20 -21 20 -9 0 -16 5 -16 10 0 6 -11 10 -25 10 -13 0
-28 6 -32 14 -5 8 -18 18 -29 23 -26 10 -77 48 -122 91 -19 17 -39 32 -45 32
-7 1 -30 12 -52 25 -69 42 -134 75 -148 75 -7 0 -23 9 -35 20 -12 11 -24 20
-28 20 -4 0 -12 7 -18 16 -7 8 -31 18 -54 21 -23 3 -39 9 -37 14 3 4 -4 13
-15 19 -11 6 -20 17 -20 24 0 8 -9 16 -20 19 -10 3 -27 21 -37 41 -9 20 -22
36 -29 36 -6 0 -29 21 -50 48 -53 65 -123 130 -182 172 -28 19 -58 47 -67 62
-9 16 -26 33 -38 39 -12 6 -39 27 -59 47 -36 34 -38 35 -38 13z m684 -763 c21
-30 11 -37 -14 -10 -12 12 -25 22 -30 22 -6 0 -10 7 -10 15 0 20 32 4 54 -27z"/>
<path d="M9658 5283 c7 -3 16 -2 19 1 4 3 -2 6 -13 5 -11 0 -14 -3 -6 -6z"/>
<path d="M5360 5136 c0 -8 5 -18 10 -21 6 -3 10 1 10 9 0 8 -4 18 -10 21 -5 3
-10 -1 -10 -9z"/>
<path d="M4985 4960 c3 -5 11 -10 16 -10 6 0 7 5 4 10 -3 6 -11 10 -16 10 -6
0 -7 -4 -4 -10z"/>
<path d="M5580 4890 c0 -15 -8 -22 -29 -26 -49 -10 -49 -84 0 -84 11 0 16 -5
13 -14 -3 -7 -15 -13 -27 -12 -31 1 -28 -27 3 -34 14 -3 25 -11 24 -18 -2 -28
-5 -32 -19 -32 -15 0 -15 -12 1 -72 3 -9 -3 -21 -13 -27 -10 -6 -13 -11 -8
-11 6 0 3 -5 -5 -10 -13 -9 -12 -12 5 -26 11 -8 21 -11 22 -7 0 4 4 19 7 33 4
19 12 26 31 28 15 1 36 9 48 17 23 16 62 21 53 6 -10 -16 19 -41 54 -47 l35
-6 -30 17 c-44 24 -48 30 -17 33 15 1 29 7 30 12 2 6 10 10 18 10 24 0 15 18
-13 25 -14 3 -38 15 -52 26 l-25 20 -8 -21 c-16 -44 -68 -29 -68 19 0 11 3 12
8 4 5 -8 12 -8 27 3 12 9 16 18 10 22 -6 4 -10 32 -10 62 0 60 -13 100 -32
100 -7 0 -13 7 -13 15 0 8 -4 15 -10 15 -5 0 -10 -9 -10 -20z"/>
<path d="M10940 4890 c0 -5 -9 -10 -20 -10 -26 0 -17 -20 19 -45 16 -10 27
-23 25 -27 -3 -4 2 -5 10 -2 17 7 36 -24 36 -60 0 -14 5 -28 10 -31 6 -3 19
-25 30 -48 11 -23 33 -55 49 -71 17 -16 28 -33 25 -37 -3 -5 0 -9 6 -9 6 0 13
-7 17 -17 3 -9 26 -36 49 -61 24 -24 46 -57 49 -73 4 -15 13 -33 21 -40 8 -6
14 -17 14 -24 0 -18 59 -67 71 -59 6 3 8 28 4 58 -5 38 -2 63 9 91 29 69 35
186 12 224 -11 18 -32 -9 -40 -51 -9 -49 -45 -57 -72 -16 -10 15 -33 32 -49
38 -17 5 -36 20 -44 31 -38 62 -53 96 -54 126 -1 18 -5 33 -9 33 -4 0 -14 13
-22 29 -9 17 -31 35 -56 45 -45 18 -90 21 -90 6z m427 -372 c-3 -8 -6 -5 -6 6
-1 11 2 17 5 13 3 -3 4 -12 1 -19z"/>
<path d="M11660 4836 c0 -2 9 -6 20 -9 11 -3 20 -1 20 4 0 5 -9 9 -20 9 -11 0
-20 -2 -20 -4z"/>
<path d="M11270 4796 c0 -16 18 -31 27 -22 3 3 -2 12 -11 21 -14 14 -16 14
-16 1z"/>
<path d="M5761 4742 c-12 -22 2 -47 22 -39 10 4 13 13 10 27 -8 29 -20 34 -32
12z"/>
<path d="M11290 4750 c0 -5 5 -10 10 -10 6 0 10 5 10 10 0 6 -4 10 -10 10 -5
0 -10 -4 -10 -10z"/>
<path d="M10480 4743 c0 -11 -62 -45 -69 -38 -3 3 1 10 9 15 11 7 2 10 -28 10
-24 0 -41 -4 -37 -9 3 -5 -7 -9 -22 -9 -16 0 -45 -6 -65 -15 -22 -9 -40 -12
-43 -6 -4 5 -13 9 -22 9 -11 0 -14 -6 -10 -20 4 -17 2 -20 -14 -15 -24 8 -24
-3 -2 -27 14 -15 14 -19 3 -16 -8 2 -18 7 -22 13 -4 5 -15 5 -30 -2 -13 -7
-32 -13 -42 -15 -11 -2 -19 -7 -18 -13 0 -5 -9 -20 -20 -32 -18 -19 -19 -25
-8 -38 31 -37 100 -57 265 -77 99 -13 116 -13 285 -5 63 3 130 6 148 6 17 1
32 5 32 10 0 17 -36 25 -127 26 -84 1 -107 6 -165 36 -10 5 -27 9 -37 9 -11 0
-22 4 -25 9 -3 5 -15 7 -26 4 -11 -3 -21 -1 -21 3 -8 62 -11 59 54 82 39 13
91 23 139 24 44 2 78 7 78 13 0 14 -60 39 -86 37 -14 -1 -24 5 -27 18 -5 19
-47 30 -47 13z"/>
<path d="M5760 4580 c0 -5 5 -10 10 -10 6 0 10 5 10 10 0 6 -4 10 -10 10 -5 0
-10 -4 -10 -10z"/>
<path d="M10903 4554 c-3 -8 -12 -13 -19 -10 -8 3 -11 0 -8 -9 4 -9 -3 -16
-20 -21 -29 -7 -36 -23 -8 -20 13 1 16 -6 14 -31 -1 -25 2 -33 15 -33 9 0 24
-7 34 -16 16 -14 25 -15 69 -4 27 7 53 16 56 21 3 5 -4 22 -15 38 -12 16 -21
34 -21 39 0 6 -9 14 -20 17 -11 3 -20 10 -20 14 0 4 -11 13 -25 19 -21 10 -27
9 -32 -4z m97 -93 c0 -14 -18 -23 -30 -16 -6 4 -8 11 -5 16 8 12 35 12 35 0z"/>
<path d="M5550 4494 c0 -5 10 -18 23 -29 12 -11 22 -27 22 -35 0 -9 15 -17 44
-22 24 -4 62 -14 85 -22 23 -8 57 -17 77 -21 31 -5 37 -2 42 16 3 11 3 19 0
16 -3 -3 -29 8 -58 24 -29 16 -57 29 -61 27 -5 -1 -18 3 -29 8 -32 18 -85 25
-85 12 0 -6 -3 -8 -7 -4 -5 4 -8 13 -8 19 0 7 -10 13 -22 15 -13 2 -23 0 -23
-4z"/>
<path d="M8642 4452 c-23 -2 -40 -7 -37 -12 3 -5 -6 -12 -20 -15 -14 -3 -37
-8 -52 -11 -16 -4 -44 -8 -63 -10 -19 -3 -60 -10 -90 -16 -30 -7 -88 -13 -127
-13 -67 -2 -113 -11 -185 -37 -16 -6 -47 -10 -70 -10 -23 1 -48 -4 -55 -10 -7
-5 -23 -8 -36 -4 -13 3 -47 -3 -78 -15 -30 -12 -65 -23 -79 -26 -14 -3 -33
-12 -42 -20 -9 -8 -20 -13 -25 -10 -16 10 -142 -21 -171 -42 -17 -11 -42 -21
-56 -21 -14 0 -41 -9 -61 -20 -19 -11 -35 -16 -35 -11 0 9 -118 -15 -135 -28
-5 -4 -28 -13 -51 -19 -22 -7 -49 -22 -60 -34 -15 -17 -16 -20 -3 -16 9 4 29
-2 45 -13 16 -10 38 -19 49 -19 12 0 25 -4 30 -9 6 -4 30 -13 55 -19 25 -6 77
-19 115 -28 129 -32 303 -126 417 -226 86 -75 90 -77 143 -67 29 5 86 31 135
60 159 95 241 129 337 141 48 6 92 14 97 19 11 10 -46 45 -97 61 -21 6 -36 15
-34 21 3 9 76 38 152 61 22 7 54 18 70 25 103 45 419 151 447 151 24 0 23 -16
-2 -33 -30 -21 -3 -38 57 -37 67 2 309 -9 363 -16 25 -3 95 -19 157 -35 61
-16 151 -32 200 -35 48 -4 97 -10 108 -14 11 -4 37 -5 57 -2 21 2 60 -1 88 -8
53 -13 235 -17 286 -6 45 9 83 14 164 21 41 4 94 8 118 11 23 2 50 8 60 13 10
5 37 10 59 9 46 0 113 19 113 33 0 5 9 9 19 9 34 0 31 15 -9 59 -43 46 -46 52
-55 133 -7 66 -18 73 -105 70 -49 -2 -53 -1 -37 11 16 13 16 15 1 21 -8 3 -23
6 -31 6 -12 0 -13 -3 -4 -14 8 -10 9 -16 1 -21 -17 -10 -11 -25 8 -18 15 6 15
5 3 -10 -7 -9 -22 -17 -32 -17 -12 0 -19 -7 -19 -20 0 -14 -7 -20 -23 -20 -13
0 -27 -3 -31 -7 -4 -4 -22 -9 -39 -10 -136 -8 -173 -14 -184 -30 -16 -21 -16
-21 42 -28 74 -8 84 -10 97 -23 14 -14 11 -18 -25 -27 -20 -6 -27 -4 -27 8 0
13 -4 13 -25 4 -14 -7 -25 -15 -25 -19 0 -5 -15 -8 -34 -8 -41 0 -95 -18 -120
-39 -15 -13 -49 -16 -205 -17 -328 -2 -421 12 -537 82 -34 20 -95 44 -146 57
-54 14 -88 27 -88 35 0 7 5 10 10 7 6 -3 10 -2 10 4 0 5 -4 12 -9 15 -5 3 -7
15 -4 25 3 13 -2 23 -16 30 -12 7 -21 18 -21 25 0 8 -12 16 -27 19 -16 2 -55
13 -88 22 -33 10 -78 20 -100 22 -51 6 -327 9 -383 5z"/>
<path d="M11032 4376 c-24 -6 -40 -14 -37 -18 4 -4 18 -3 32 3 31 11 36 11 28
-1 -12 -20 19 -50 52 -50 41 0 45 25 8 42 -15 7 -24 17 -21 25 6 15 -4 15 -62
-1z"/>
<path d="M5903 4353 c9 -2 23 -2 30 0 6 3 -1 5 -18 5 -16 0 -22 -2 -12 -5z"/>
<path d="M5630 4344 c0 -3 19 -40 42 -82 69 -128 72 -135 76 -189 4 -51 6 -53
34 -53 62 0 177 86 226 168 15 28 16 53 0 50 -7 -2 -14 7 -16 19 -4 24 -13 28
-87 38 -51 6 -181 31 -206 39 -34 11 -69 16 -69 10z"/>
<path d="M11007 4294 c-4 -4 -4 -18 -1 -31 5 -18 3 -22 -10 -17 -9 3 -16 1
-16 -5 0 -6 -8 -11 -17 -11 -10 0 -26 -7 -36 -15 -18 -13 -18 -14 0 -24 23
-12 60 -9 88 7 38 22 97 42 106 36 15 -9 10 -24 -6 -18 -8 4 -15 1 -15 -5 0
-6 5 -11 12 -11 6 0 4 -6 -6 -13 -16 -12 -12 -14 38 -13 31 1 56 2 56 4 0 1
-18 19 -40 41 -22 21 -40 41 -40 43 0 3 11 3 25 0 16 -3 25 0 25 8 0 8 -13 10
-48 5 -38 -5 -51 -3 -61 9 -14 16 -42 21 -54 10z"/>
<path d="M5577 4229 c4 -15 8 -17 14 -8 8 14 3 29 -11 29 -4 0 -6 -9 -3 -21z"/>
<path d="M5600 4200 c0 -19 3 -21 12 -12 9 9 9 15 0 24 -9 9 -12 7 -12 -12z"/>
<path d="M10275 4210 c-3 -5 1 -10 9 -10 9 0 16 5 16 10 0 6 -4 10 -9 10 -6 0
-13 -4 -16 -10z"/>
<path d="M10335 4200 c-3 -5 -1 -10 4 -10 6 0 11 5 11 10 0 6 -2 10 -4 10 -3
0 -8 -4 -11 -10z"/>
<path d="M10240 4160 c0 -5 5 -10 11 -10 5 0 7 5 4 10 -3 6 -8 10 -11 10 -2 0
-4 -4 -4 -10z"/>
<path d="M11380 4140 c0 -5 5 -10 11 -10 5 0 7 5 4 10 -3 6 -8 10 -11 10 -2 0
-4 -4 -4 -10z"/>
<path d="M11060 4136 c0 -2 7 -6 15 -10 8 -3 15 -1 15 4 0 6 -7 10 -15 10 -8
0 -15 -2 -15 -4z"/>
<path d="M7030 4080 c0 -6 7 -10 15 -10 8 0 15 2 15 4 0 2 -7 6 -15 10 -8 3
-15 1 -15 -4z"/>
<path d="M14097 3421 c-3 -12 -1 -21 3 -21 14 0 19 15 11 29 -6 9 -10 7 -14
-8z"/>
<path d="M14032 3359 c-15 -23 -2 -49 24 -49 8 0 14 -5 14 -11 0 -6 13 0 28
13 l28 23 -25 22 c-30 29 -52 29 -69 2z"/>
<path d="M9351 1840 c-21 -5 -16 -8 29 -18 36 -9 57 -9 64 -2 7 7 5 10 -7 10
-9 0 -17 5 -17 10 0 7 -6 7 -19 0 -11 -5 -21 -6 -23 -2 -2 5 -14 6 -27 2z"/>
<path d="M8865 1791 c-15 -6 -8 -8 23 -8 23 0 42 4 42 8 0 11 -38 11 -65 0z"/>
<path d="M8615 1774 c-22 -7 -62 -17 -88 -20 -40 -6 -86 -29 -75 -39 8 -7 103
14 106 24 2 6 8 11 13 11 6 0 8 -4 4 -9 -3 -6 22 -9 64 -9 58 1 70 5 74 20 3
10 2 20 -1 22 -23 12 -63 13 -97 0z"/>
<path d="M8808 1773 c-9 -2 -20 -14 -24 -26 -3 -12 -13 -30 -22 -40 -8 -9 -12
-20 -9 -23 10 -10 37 4 44 23 3 10 15 30 25 46 19 27 18 29 -14 20z"/>
<path d="M10022 1560 c-50 -12 -55 -21 -47 -89 l7 -61 33 0 c19 0 40 7 49 15
8 9 19 17 23 18 10 3 12 40 3 52 -5 6 -9 13 -9 18 -2 22 -14 57 -20 56 -3 -1
-21 -5 -39 -9z m-12 -40 c0 -5 -7 -10 -16 -10 -8 0 -12 5 -9 10 3 6 10 10 16
10 5 0 9 -4 9 -10z"/>
<path d="M8298 1543 c7 -3 16 -2 19 1 4 3 -2 6 -13 5 -11 0 -14 -3 -6 -6z"/>
<path d="M9805 1510 c-3 -5 -3 -14 0 -20 3 -5 1 -10 -5 -10 -7 0 -9 -8 -5 -21
5 -16 3 -20 -6 -17 -8 3 -13 15 -11 28 2 20 -1 22 -25 15 -16 -4 -46 -9 -68
-11 -164 -15 -163 -15 -168 -41 -6 -33 2 -63 18 -63 7 0 15 -9 18 -20 8 -29
37 -37 54 -14 8 10 19 18 24 17 14 -4 11 6 -11 29 -27 29 -25 33 13 35 28 2
30 1 15 -11 -22 -16 -23 -26 -4 -26 8 0 18 -9 21 -20 3 -11 11 -20 16 -20 6 0
21 -12 36 -26 14 -14 26 -24 27 -22 1 2 12 16 24 32 14 18 22 43 22 67 0 21 4
41 10 44 15 9 50 -14 44 -30 -4 -11 0 -12 22 -6 15 4 30 13 32 21 3 9 -2 11
-16 8 -13 -4 -23 0 -26 8 -4 9 2 14 17 14 20 0 23 5 23 35 0 34 -1 35 -42 35
-24 0 -46 -4 -49 -10z"/>
<path d="M9416 1415 c-3 -8 -16 -17 -30 -21 -13 -3 -26 -14 -29 -24 -7 -29 15
-100 32 -100 21 0 51 30 45 44 -3 7 2 19 11 26 21 17 21 84 -1 76 -8 -3 -12
-2 -9 4 3 6 2 10 -3 10 -6 0 -12 -7 -16 -15z"/>
<path d="M7799 1368 c23 -6 37 -6 44 1 8 8 -2 11 -33 10 l-45 -1 34 -10z"/>
<path d="M9511 1344 c0 -11 3 -14 6 -6 3 7 2 16 -1 19 -3 4 -6 -2 -5 -13z"/>
<path d="M10398 1333 c-45 -7 -54 -28 -26 -61 20 -24 27 -27 42 -18 32 19 64
54 57 64 -8 13 -41 20 -73 15z"/>
<path d="M9085 1310 c-3 -5 -18 -10 -33 -11 -15 0 -35 -4 -45 -8 -17 -6 -17
-8 2 -33 12 -14 21 -33 21 -42 0 -23 40 -56 67 -54 12 1 23 6 23 10 0 4 6 8
13 8 15 0 41 64 28 68 -6 2 -8 9 -5 17 9 23 -15 55 -41 55 -13 0 -27 -4 -30
-10z"/>
<path d="M8822 1288 c-21 -21 -14 -73 18 -116 17 -23 36 -42 43 -42 28 0 49
26 49 62 0 49 -17 77 -57 94 -41 17 -38 17 -53 2z"/>
<path d="M9756 1183 c3 -21 12 -58 20 -83 8 -25 17 -71 21 -103 5 -49 3 -62
-14 -86 -25 -32 -20 -79 9 -99 12 -9 17 -21 13 -32 -3 -9 -5 -35 -5 -56 0 -22
0 -51 0 -66 0 -29 14 -38 23 -15 3 6 6 -10 8 -38 3 -76 4 -79 10 -90 4 -5 9
-37 10 -70 l4 -60 -32 -3 c-19 -2 -33 1 -33 7 0 19 -18 12 -23 -10 -3 -12 -10
-19 -14 -16 -5 3 -18 -8 -28 -25 l-18 -31 59 7 c33 4 104 17 159 28 55 12 138
24 185 27 75 5 86 9 95 28 5 12 23 25 40 29 26 6 27 8 8 11 -12 2 -37 0 -56
-5 -18 -5 -78 -10 -134 -11 l-100 -2 -7 42 c-4 24 -11 48 -15 54 -5 5 -11 28
-14 50 -2 22 -10 54 -17 70 -26 62 -29 71 -35 110 -4 22 -9 50 -11 62 -3 13 2
26 12 31 12 7 15 17 9 40 -3 17 -11 30 -17 29 -12 -2 -36 56 -37 91 -1 12 -5
22 -10 22 -10 0 -11 33 -4 98 2 23 8 40 14 37 5 -4 9 2 9 13 0 15 -6 18 -29
14 -23 -3 -30 1 -36 17 -11 35 -24 23 -19 -16z"/>
<path d="M10318 1094 c-4 -3 -4 -12 -2 -19 3 -7 -2 -15 -10 -18 -8 -3 -12 -14
-10 -24 3 -10 -4 -28 -15 -40 -26 -28 -26 -45 -2 -67 25 -23 33 -56 15 -63 -8
-3 -14 -13 -14 -24 0 -10 -5 -30 -12 -44 -10 -22 -9 -28 3 -36 23 -14 29 -11
29 16 0 14 4 25 8 25 10 0 36 48 37 66 0 11 14 43 40 94 11 20 11 36 1 80 -11
47 -16 55 -37 58 -14 2 -28 0 -31 -4z m-3 -253 c3 -5 1 -12 -5 -16 -5 -3 -10
1 -10 9 0 18 6 21 15 7z"/>
<path d="M8197 1044 c-16 -14 -26 -31 -23 -38 21 -51 34 -67 56 -73 14 -3 37
-12 53 -20 26 -13 27 -13 27 12 0 14 -5 25 -11 25 -5 0 -8 4 -4 10 9 15 -38
110 -55 110 -8 0 -28 -12 -43 -26z"/>
<path d="M9207 773 c-7 -7 2 -52 13 -68 4 -5 10 -39 14 -75 3 -36 8 -78 10
-95 10 -70 21 -191 18 -209 -1 -10 -13 -29 -27 -40 -14 -12 -25 -27 -25 -33 0
-18 -13 -23 -87 -33 -127 -17 -136 -19 -155 -37 -10 -9 -16 -23 -14 -30 3 -7
-3 -17 -14 -23 -10 -5 -22 -20 -25 -32 -4 -13 -16 -30 -26 -38 -13 -10 -17
-22 -13 -37 6 -22 10 -23 134 -23 125 0 188 12 205 40 3 5 18 10 33 10 15 0
38 7 52 15 14 8 34 18 45 23 11 6 46 34 76 63 65 63 90 83 110 87 22 5 36 22
19 23 -10 0 -7 4 5 9 15 6 7 9 -30 9 -28 1 -56 -4 -62 -10 -7 -7 -25 -9 -45
-5 -29 6 -35 12 -51 59 -20 59 -30 96 -48 182 -7 33 -16 68 -21 77 -5 10 -10
52 -13 94 -2 43 -8 81 -13 86 -12 12 -57 20 -65 11z"/>
<path d="M10268 723 c7 -3 16 -2 19 1 4 3 -2 6 -13 5 -11 0 -14 -3 -6 -6z"/>
<path d="M9771 514 c0 -11 3 -14 6 -6 3 7 2 16 -1 19 -3 4 -6 -2 -5 -13z"/>
<path d="M9770 450 c0 -16 5 -30 10 -30 6 0 10 14 10 30 0 17 -4 30 -10 30 -5
0 -10 -13 -10 -30z"/>
<path d="M8762 398 c7 -13 17 -26 21 -29 5 -4 10 -27 12 -53 1 -25 8 -53 15
-61 7 -9 10 -18 7 -21 -8 -9 14 -66 34 -88 18 -18 18 -17 15 50 -3 38 -8 80
-12 94 -10 33 -52 102 -72 118 -25 19 -33 14 -20 -10z"/>
<path d="M9900 285 c0 -8 4 -15 9 -15 5 0 11 7 15 15 3 9 0 15 -9 15 -8 0 -15
-7 -15 -15z"/>
<path d="M10513 292 c-17 -2 -23 -10 -23 -29 0 -19 4 -24 16 -19 9 3 19 6 24
6 10 0 20 39 12 43 -4 2 -17 1 -29 -1z"/>
<path d="M9795 270 c-3 -5 3 -10 15 -10 12 0 18 5 15 10 -3 6 -10 10 -15 10
-5 0 -12 -4 -15 -10z"/>
<path d="M9780 236 c0 -8 -6 -16 -12 -19 -7 -2 -9 -8 -5 -13 5 -5 14 -2 21 8
7 10 24 22 37 27 23 9 23 10 -8 10 -22 1 -33 -4 -33 -13z"/>
<path d="M9866 234 c-4 -9 -4 -19 -2 -22 10 -9 36 8 36 23 0 20 -26 19 -34 -1z"/>
</g>
</svg>
