<?xml version="1.0" standalone="no"?>
<!DOCTYPE svg PUBLIC "-//W3C//DTD SVG 20010904//EN"
 "http://www.w3.org/TR/2001/REC-SVG-20010904/DTD/svg10.dtd">
<svg version="1.0" xmlns="http://www.w3.org/2000/svg"
 width="511.000000pt" height="541.000000pt" viewBox="0 0 511.000000 541.000000"
 preserveAspectRatio="xMidYMid meet">
<metadata>
Created by potrace 1.16, written by Peter Selinger 2001-2019
</metadata>
<g transform="translate(0.000000,541.000000) scale(0.100000,-0.100000)"
fill="#000000" stroke="none">
<path d="M2484 4057 c-81 -49 -97 -63 -115 -104 -10 -25 -19 -50 -19 -58 0 -9
-13 -11 -42 -9 -24 2 -172 6 -330 9 -235 4 -287 2 -291 -9 -7 -17 105 -24 423
-26 243 -1 250 -2 250 -56 0 -26 19 -73 37 -92 9 -9 10 -4 6 24 -4 27 -3 35 5
30 7 -4 12 -2 12 5 0 8 5 8 16 -2 10 -8 12 -15 5 -17 -6 -2 -8 -8 -5 -13 3 -6
1 -16 -5 -23 -9 -11 -6 -28 13 -70 25 -56 25 -57 6 -76 -10 -10 -26 -33 -35
-50 -22 -43 -47 -66 -89 -81 -55 -20 -69 -50 -78 -164 -19 -248 -20 -284 -14
-318 6 -33 11 -37 59 -52 85 -25 278 -39 369 -27 95 14 183 39 202 57 17 17
28 126 28 270 0 93 1 104 10 70 10 -43 5 -287 -7 -320 -6 -14 -5 -17 3 -10 20
18 34 184 27 310 -10 161 -26 185 -148 225 -39 12 -65 25 -59 29 6 4 -3 28
-26 64 -26 42 -38 54 -45 45 -5 -8 -7 6 -3 38 3 31 0 56 -6 62 -8 8 -8 15 1
25 6 8 8 23 5 33 -6 15 -4 17 6 7 7 -7 13 -26 12 -44 -1 -30 0 -30 13 -12 8
11 20 44 28 74 l13 54 221 5 c122 3 225 9 230 13 4 5 -48 8 -117 7 -69 -1
-173 -2 -231 -1 l-106 1 -21 58 c-25 66 -62 100 -132 119 -56 15 -51 15 -76 0z
m-8 -206 c-8 -12 -46 -21 -46 -11 0 9 18 18 38 19 7 1 11 -3 8 -8z m75 -108
c9 -11 10 -14 2 -9 -7 4 -22 2 -33 -4 -22 -12 -27 -1 -8 18 16 16 23 15 39 -5z
m-53 -197 c-2 -10 -7 -13 -17 -7 -8 6 -11 16 -7 27 8 21 30 4 24 -20z m264
-75 c110 -38 149 -73 147 -133 0 -19 -3 -17 -13 10 -18 52 -51 79 -124 103
-37 12 -71 25 -76 30 -15 14 5 11 66 -10z m-47 -232 c4 -5 -3 -8 -14 -6 -28 4
-34 12 -11 14 11 1 22 -2 25 -8z m-198 -151 c-3 -8 -6 -5 -6 6 -1 11 2 17 5
13 3 -3 4 -12 1 -19z m-10 -90 c-3 -7 -5 -2 -5 12 0 14 2 19 5 13 2 -7 2 -19
0 -25z"/>
<path d="M2748 3503 c7 -3 16 -2 19 1 4 3 -2 6 -13 5 -11 0 -14 -3 -6 -6z"/>
<path d="M2951 3172 c-1 -202 -1 -203 20 -192 11 6 22 17 25 25 7 17 -14 221
-30 305 -13 63 -14 58 -15 -138z"/>
<path d="M2933 3015 c0 -33 2 -45 4 -27 2 18 2 45 0 60 -2 15 -4 0 -4 -33z"/>
<path d="M2427 2304 c-4 -4 -7 -25 -7 -46 0 -31 -3 -38 -20 -38 -15 0 -20 -7
-20 -25 0 -18 5 -25 20 -25 18 0 20 -7 20 -55 0 -30 5 -65 11 -79 14 -30 55
-49 100 -44 29 2 34 7 34 28 0 20 -6 26 -30 30 -29 5 -30 7 -33 63 l-3 57 31
0 c25 0 30 4 30 25 0 21 -5 25 -29 25 -28 0 -30 3 -33 43 -3 39 -5 42 -33 45
-17 2 -34 0 -38 -4z"/>
<path d="M2885 2298 c-3 -8 -4 -79 -3 -158 l3 -145 29 -3 c16 -2 32 2 37 10 7
10 11 10 21 0 6 -6 31 -12 53 -12 54 0 85 32 92 93 13 109 -51 169 -139 132
-14 -6 -17 1 -20 42 -3 46 -4 48 -36 51 -20 2 -34 -2 -37 -10z m143 -140 c7
-7 12 -31 12 -55 0 -32 -5 -45 -20 -53 -35 -19 -60 4 -60 53 0 45 13 67 40 67
9 0 21 -5 28 -12z"/>
<path d="M3164 2297 c-2 -7 -3 -78 -2 -157 l3 -145 38 -3 37 -3 0 79 c0 88 11
109 54 98 24 -6 25 -10 28 -89 l3 -82 38 -3 37 -3 0 89 c0 74 -3 94 -20 115
-26 33 -71 43 -110 24 l-30 -15 0 54 0 54 -35 0 c-20 0 -38 -6 -41 -13z"/>
<path d="M3613 2303 c-36 -7 -73 -52 -73 -89 0 -45 26 -70 97 -90 71 -20 92
-36 73 -58 -16 -20 -74 -21 -90 -1 -14 17 -90 21 -90 4 0 -50 62 -82 148 -77
58 4 68 8 93 36 54 60 27 121 -63 142 -29 7 -61 17 -70 22 -43 22 0 66 46 48
14 -5 26 -14 26 -20 0 -13 67 -13 75 0 11 17 -24 61 -60 76 -33 14 -67 16
-112 7z"/>
<path d="M1320 2144 l0 -155 38 3 37 3 5 54 5 54 48 -56 c44 -51 52 -57 88
-57 21 0 39 3 39 7 0 3 -27 41 -59 83 l-59 76 53 64 c30 36 54 68 54 73 1 4
-18 7 -41 7 -39 -1 -46 -5 -83 -52 l-40 -50 -3 51 -3 51 -40 0 -39 0 0 -156z"/>
<path d="M1650 2212 c-19 -9 -36 -25 -38 -34 -3 -14 4 -18 32 -18 19 0 38 5
41 10 10 16 45 12 52 -5 8 -22 1 -26 -53 -36 -85 -16 -119 -72 -71 -117 26
-25 94 -30 116 -9 11 10 14 10 18 0 3 -7 20 -13 39 -13 l34 0 0 79 c0 100 -10
128 -55 146 -45 19 -72 19 -115 -3z m86 -158 c-6 -16 -62 -19 -71 -4 -10 16
13 38 43 42 28 3 38 -11 28 -38z"/>
<path d="M2191 2213 c-73 -38 -58 -98 32 -126 32 -11 57 -24 57 -32 0 -18 -39
-30 -53 -16 -13 13 -87 15 -87 2 0 -24 54 -51 101 -51 63 0 97 14 109 45 19
51 -11 83 -97 100 -41 8 -48 45 -9 45 14 0 28 -4 31 -10 3 -5 22 -10 41 -10
41 0 41 14 3 42 -37 28 -88 32 -128 11z"/>
<path d="M1870 2131 c0 -112 17 -141 84 -141 23 0 48 6 55 13 11 10 14 10 18
0 3 -7 20 -13 39 -13 l34 0 0 116 0 115 -37 -3 -38 -3 -3 -75 c-2 -56 -7 -78
-19 -87 -22 -17 -28 -16 -47 3 -12 11 -16 36 -16 90 l0 74 -35 0 -35 0 0 -89z"/>
<path d="M2602 2125 c3 -87 5 -99 27 -116 25 -21 81 -25 112 -9 13 7 19 7 19
0 0 -5 16 -10 35 -10 l35 0 0 115 0 115 -35 0 -35 0 0 -72 c0 -77 -5 -91 -32
-101 -33 -12 -47 14 -50 93 l-3 75 -38 3 -39 3 4 -96z"/>
<path d="M1542 1602 c-2 -25 -8 -35 -22 -39 -11 -3 -20 -9 -20 -14 0 -5 9 -9
20 -9 18 0 20 -7 20 -68 0 -70 10 -92 42 -92 26 0 22 18 -4 22 -21 3 -23 9
-26 71 -3 66 -3 67 23 67 14 0 25 5 25 10 0 6 -11 10 -24 10 -21 0 -25 5 -29
38 l-4 37 -1 -33z"/>
<path d="M2672 1602 c-2 -25 -8 -35 -22 -39 -11 -3 -20 -9 -20 -14 0 -5 9 -9
20 -9 18 0 20 -7 20 -68 0 -70 10 -92 42 -92 26 0 22 18 -4 22 -21 3 -23 9
-26 71 -3 66 -3 67 23 67 14 0 25 5 25 10 0 6 -11 10 -24 10 -21 0 -25 5 -29
38 l-4 37 -1 -33z"/>
<path d="M2783 1505 c0 -96 2 -112 6 -62 5 56 10 72 30 88 29 24 43 24 70 2
16 -15 21 -32 24 -88 l3 -70 2 76 c2 62 -1 79 -16 92 -20 19 -77 23 -87 7 -14
-22 -24 -8 -28 38 -2 26 -3 -11 -4 -83z"/>
<path d="M3310 1617 c-33 -17 -50 -52 -50 -108 0 -57 16 -106 40 -119 35 -19
89 -12 115 15 24 23 35 63 15 50 -5 -3 -10 -13 -10 -20 0 -36 -95 -48 -123
-17 -26 28 -24 145 3 172 31 31 76 26 111 -11 16 -17 29 -25 29 -18 -1 22 -24
47 -54 59 -35 13 -45 13 -76 -3z"/>
<path d="M3744 1616 c-39 -17 -44 -31 -44 -120 0 -63 3 -75 23 -94 33 -31 90
-30 122 3 22 21 25 33 25 97 -1 80 -10 101 -54 118 -34 12 -34 12 -72 -4z m93
-32 c23 -23 25 -31 21 -91 -5 -74 -20 -93 -75 -93 -52 0 -73 28 -73 100 0 51
4 65 25 85 31 32 69 32 102 -1z"/>
<path d="M1244 1500 c0 -69 1 -97 3 -62 2 34 2 90 0 125 -2 34 -3 6 -3 -63z"/>
<path d="M2260 1590 c0 -20 -5 -30 -15 -30 -8 0 -15 -4 -15 -10 0 -5 7 -10 15
-10 11 0 15 -13 15 -52 0 -64 18 -102 48 -106 12 -2 22 1 22 7 0 5 -10 11 -22
13 -21 3 -23 9 -26 71 -3 66 -3 67 23 67 14 0 25 5 25 10 0 6 -11 10 -25 10
-21 0 -25 5 -25 30 0 17 -4 30 -10 30 -5 0 -10 -13 -10 -30z"/>
<path d="M3489 1603 c5 -10 23 -36 39 -58 l30 -39 -45 -63 c-25 -35 -40 -63
-35 -63 5 0 27 25 47 55 21 30 40 55 41 55 3 0 40 -52 76 -104 4 -6 10 -8 13
-4 4 4 -12 31 -34 61 -23 29 -41 57 -41 60 0 4 16 30 36 57 20 28 34 53 31 56
-2 3 -21 -18 -42 -46 -20 -27 -38 -50 -39 -50 -2 0 -18 22 -37 50 -32 47 -61
70 -40 33z"/>
<path d="M1322 1470 l1 -95 6 73 c6 76 22 102 61 102 39 0 55 -26 61 -102 l6
-73 1 70 c2 86 -13 115 -62 115 -17 0 -38 -6 -44 -12 -10 -10 -15 -10 -22 2
-7 10 -9 -17 -8 -80z"/>
<path d="M1660 1540 c-28 -28 -28 -108 0 -138 26 -27 70 -28 101 -2 28 23 22
25 -15 6 -15 -8 -36 -11 -47 -9 -19 5 -49 39 -49 55 0 5 29 8 65 8 64 0 65 0
65 28 0 66 -74 98 -120 52z m90 -10 c37 -37 26 -50 -40 -50 -47 0 -60 3 -60
15 0 22 37 55 60 55 11 0 29 -9 40 -20z"/>
<path d="M1842 1469 l1 -94 6 70 c7 82 14 95 47 95 13 0 24 5 24 10 0 13 -37
13 -45 0 -5 -8 -11 -7 -21 1 -12 10 -14 -3 -12 -82z"/>
<path d="M1962 1469 l1 -94 6 68 c5 56 10 72 30 88 29 24 43 24 70 2 16 -15
21 -32 24 -88 l3 -70 2 76 c2 62 -1 79 -16 92 -21 19 -77 23 -87 7 -5 -8 -11
-7 -21 1 -12 10 -14 -3 -12 -82z"/>
<path d="M2386 1538 c-23 -33 -21 -113 4 -138 24 -24 67 -26 98 -4 18 13 22
25 22 73 0 69 -18 91 -73 91 -26 0 -40 -6 -51 -22z m94 -8 c36 -36 22 -125
-20 -130 -54 -7 -80 16 -80 71 0 44 27 79 60 79 11 0 29 -9 40 -20z"/>
<path d="M2996 1538 c-23 -33 -21 -113 4 -138 25 -25 71 -26 101 0 13 10 19
19 12 20 -6 0 -14 -4 -17 -9 -13 -21 -59 -19 -83 5 -36 36 -29 44 42 44 64 0
65 0 65 28 0 46 -25 72 -70 72 -29 0 -43 -6 -54 -22z m94 -8 c37 -37 26 -50
-40 -50 -47 0 -60 3 -60 15 0 22 37 55 60 55 11 0 29 -9 40 -20z"/>
</g>
</svg>
