<?xml version="1.0" standalone="no"?>
<!DOCTYPE svg PUBLIC "-//W3C//DTD SVG 20010904//EN"
 "http://www.w3.org/TR/2001/REC-SVG-20010904/DTD/svg10.dtd">
<svg version="1.0" xmlns="http://www.w3.org/2000/svg"
 width="300.000000pt" height="300.000000pt" viewBox="0 0 300.000000 300.000000"
 preserveAspectRatio="xMidYMid meet">
<metadata>
Created by potrace 1.16, written by Peter Selinger 2001-2019
</metadata>
<g transform="translate(0.000000,300.000000) scale(0.100000,-0.100000)"
fill="#000000" stroke="none">
<path d="M0 1500 l0 -1500 1500 0 1500 0 0 1500 0 1500 -1500 0 -1500 0 0
-1500z m2712 1388 c79 -37 142 -98 181 -177 l32 -66 0 -885 0 -885 -28 -60
c-36 -78 -104 -146 -181 -182 l-61 -28 -443 -3 -442 -3 -354 -264 c-377 -282
-391 -290 -436 -245 -19 19 -20 33 -20 264 l0 245 -307 3 -308 3 -61 28 c-77
36 -145 104 -181 182 l-28 60 0 885 0 885 26 56 c47 99 129 172 232 205 34 10
259 12 1182 11 l1140 -2 57 -27z"/>
<path d="M1077 2603 c-19 -103 -118 -996 -111 -1003 5 -5 52 -3 109 5 246 32
494 27 535 -10 30 -27 45 -118 30 -183 -30 -137 -183 -186 -509 -162 -86 6
-172 13 -192 16 l-36 6 -32 -162 c-18 -89 -29 -166 -24 -170 19 -17 377 -50
543 -50 433 0 686 132 755 395 19 75 19 231 0 313 -63 267 -270 400 -606 390
l-120 -3 5 25 c3 14 11 69 17 123 l12 97 319 0 318 0 0 200 0 200 -504 0 -503
0 -6 -27z"/>
</g>
</svg>
