<?xml version="1.0" standalone="no"?>
<!DOCTYPE svg PUBLIC "-//W3C//DTD SVG 20010904//EN"
 "http://www.w3.org/TR/2001/REC-SVG-20010904/DTD/svg10.dtd">
<svg version="1.0" xmlns="http://www.w3.org/2000/svg"
 width="1887.000000pt" height="1977.000000pt" viewBox="0 0 1887.000000 1977.000000"
 preserveAspectRatio="xMidYMid meet">
<metadata>
Created by potrace 1.16, written by Peter Selinger 2001-2019
</metadata>
<g transform="translate(0.000000,1977.000000) scale(0.100000,-0.100000)"
fill="#000000" stroke="none">
<path d="M9115 13920 c-3 -4 -20 -11 -39 -14 -21 -4 -52 -24 -81 -51 -25 -25
-51 -44 -58 -42 -8 1 -11 -10 -11 -30 1 -20 -4 -34 -14 -38 -12 -4 -12 -2 -4
8 15 18 5 27 -29 27 -31 0 -39 -15 -39 -74 0 -23 -5 -47 -12 -54 -9 -9 -8 -12
5 -12 11 0 17 -8 17 -25 0 -27 -14 -33 -26 -13 -9 13 -13 34 -18 83 -4 42 -16
75 -27 75 -5 0 -9 -6 -9 -12 0 -7 -5 -5 -11 5 -16 27 -36 20 -56 -20 -17 -35
-47 -59 -41 -32 2 7 -8 13 -27 13 -19 1 -29 -4 -27 -11 1 -7 -2 -13 -8 -13 -5
0 -10 4 -10 9 0 4 -11 6 -25 3 -14 -2 -24 -7 -21 -9 3 -3 0 -17 -5 -31 -11
-29 -4 -72 11 -72 6 0 10 7 10 15 0 8 9 15 20 15 29 0 25 -14 -15 -48 -29 -26
-39 -30 -64 -22 -19 5 -33 4 -40 -3 -14 -14 -14 -44 -1 -52 12 -7 14 -26 3
-24 -5 1 -20 1 -35 0 -26 -1 -28 -4 -28 -41 0 -28 -4 -40 -14 -40 -8 0 -18 5
-21 10 -4 6 -15 3 -30 -7 -12 -10 -20 -22 -17 -27 3 -5 -2 -7 -11 -3 -9 3 -19
2 -22 -3 -4 -6 -13 -5 -24 2 -25 15 -85 -19 -89 -50 -3 -21 -32 -32 -32 -12 0
19 -18 10 -25 -12 -4 -14 -8 -18 -12 -10 -8 20 -43 15 -43 -7 0 -12 -12 -25
-30 -33 -16 -7 -30 -16 -30 -20 0 -13 -48 -9 -53 5 -3 7 -6 5 -6 -5 -1 -11 -9
-18 -22 -18 -12 0 -23 -8 -26 -20 -3 -12 -14 -20 -26 -20 -16 0 -18 3 -9 12 7
7 12 21 12 31 0 17 -4 16 -34 -10 -37 -30 -46 -53 -21 -53 8 0 15 -6 15 -14 0
-8 3 -22 7 -31 5 -15 3 -16 -17 -5 -21 11 -22 11 -16 -14 7 -27 6 -27 -19 -10
-14 9 -25 25 -25 35 0 13 -5 16 -16 12 -11 -4 -14 -13 -9 -30 4 -17 1 -29 -9
-37 -9 -6 -22 -28 -31 -49 -14 -33 -14 -38 0 -43 8 -4 15 -15 15 -26 0 -16 -5
-19 -21 -15 -27 7 -115 -81 -124 -125 -4 -18 -14 -38 -22 -46 -10 -11 -13 -26
-8 -51 4 -23 2 -31 -3 -22 -12 17 -28 -69 -31 -162 -2 -50 1 -66 14 -70 27
-11 16 -27 -17 -25 -32 3 -33 2 -31 -36 2 -27 -2 -43 -14 -51 -15 -11 -15 -15
5 -53 l21 -40 -25 -5 c-13 -2 -27 0 -30 5 -8 12 -61 -47 -85 -95 -19 -36 -19
-41 -5 -72 9 -18 16 -42 16 -53 0 -12 5 -24 10 -27 6 -4 0 -15 -15 -27 -14
-10 -25 -30 -25 -42 0 -12 -9 -32 -20 -44 -14 -14 -22 -38 -23 -66 -1 -24 -5
-42 -9 -40 -4 2 -9 -5 -13 -16 -9 -29 -40 -43 -65 -30 -11 6 -20 16 -20 23 -1
7 -2 40 -3 74 -2 66 -20 100 -37 73 -8 -12 -10 -12 -10 -1 0 11 -11 12 -52 6
-29 -4 -84 -8 -123 -9 -43 -1 -81 -8 -100 -18 -51 -27 -137 -42 -176 -30 -19
6 -41 11 -49 10 -44 -3 -110 3 -106 11 5 8 -44 7 -151 -2 -24 -2 -43 -1 -43 3
0 8 -62 6 -76 -3 -14 -8 -64 -6 -64 3 0 4 -17 6 -37 5 -21 -1 -46 3 -57 8 -26
13 -98 17 -371 21 -234 3 -317 12 -250 27 l30 7 -28 1 c-16 0 -38 6 -49 12
-31 16 -116 24 -269 24 l-136 0 -37 -32 c-20 -18 -49 -35 -64 -39 -52 -11 -69
-22 -75 -51 -3 -15 -2 -30 3 -33 12 -8 -7 -48 -29 -59 -11 -6 -31 -11 -45 -11
-14 0 -36 -11 -50 -26 -34 -37 -53 -26 -59 33 -3 26 -9 63 -12 80 -10 46 -71
108 -125 127 -25 8 -63 22 -85 30 -29 11 -85 16 -205 17 -91 0 -212 4 -270 8
-63 4 -165 2 -255 -5 -82 -7 -193 -15 -245 -17 -52 -3 -128 -13 -169 -22 -79
-18 -207 -16 -306 5 -27 5 -120 14 -205 19 -85 6 -207 15 -270 21 -116 12
-226 9 -400 -9 -52 -6 -167 -13 -255 -16 -149 -5 -252 -14 -400 -35 -57 -7
-97 -10 -210 -15 -27 -1 -187 2 -355 7 -427 13 -498 11 -815 -20 l-70 -7 -3
-87 -3 -86 78 -7 c43 -4 141 -16 218 -27 251 -35 278 -37 485 -38 211 -2 275
-6 585 -34 283 -25 665 -39 857 -31 252 11 609 42 713 62 129 25 253 22 340
-7 65 -22 82 -24 230 -20 311 8 324 8 535 -31 30 -6 119 -13 197 -16 139 -6
144 -5 202 21 32 14 72 26 89 26 17 0 34 5 37 10 10 17 55 11 77 -10 18 -17
36 -20 101 -20 43 0 107 -7 141 -17 50 -13 115 -16 358 -17 225 -1 300 2 309
12 7 6 27 12 45 12 17 0 45 7 60 15 16 8 49 15 74 15 25 0 58 -7 74 -15 15 -8
36 -15 46 -15 10 0 21 -8 25 -17 6 -17 7 -17 19 -1 8 10 16 14 22 8 5 -4 62
-12 126 -16 100 -6 122 -4 154 11 30 14 38 15 45 4 13 -22 512 -31 639 -12 52
8 112 17 133 20 21 3 51 0 69 -8 24 -10 33 -10 36 -1 2 7 12 12 22 12 10 0 20
7 24 15 8 22 59 16 53 -7 -3 -10 -1 -20 3 -23 5 -3 9 -27 8 -54 0 -66 29 -114
90 -145 23 -12 33 -27 43 -64 8 -35 17 -49 28 -47 9 1 10 0 4 -2 -17 -6 -16
-34 2 -60 9 -12 11 -24 6 -27 -5 -4 -11 0 -13 6 -3 7 -5 -2 -5 -19 0 -21 5
-33 14 -33 16 0 16 -4 -1 -38 -47 -95 -36 -263 17 -246 16 5 17 3 8 -14 -17
-31 -14 -47 4 -32 29 24 40 -4 37 -90 -2 -65 1 -87 19 -122 12 -23 25 -67 29
-98 8 -61 60 -210 72 -210 4 0 8 38 8 84 0 46 3 98 6 116 l7 32 23 -28 c28
-32 29 -38 10 -57 -9 -9 -13 -30 -11 -60 2 -26 0 -49 -5 -52 -9 -5 -1 -95 10
-110 4 -5 17 -43 30 -82 13 -40 27 -73 32 -73 5 0 6 -11 2 -24 -3 -13 -1 -27
5 -30 6 -4 11 0 11 8 0 9 7 16 15 16 9 0 12 6 9 15 -4 10 0 15 14 15 12 0 24
5 27 10 3 6 22 10 41 10 19 0 34 5 34 10 0 6 -6 10 -14 10 -23 0 -28 68 -11
133 8 32 15 70 16 85 0 15 3 21 6 15 12 -31 23 -8 23 46 0 32 6 77 14 99 8 22
18 62 22 88 4 26 13 59 20 73 8 14 14 34 14 44 0 9 5 17 11 17 6 0 9 9 6 19
-3 14 -1 18 10 14 9 -4 14 0 13 8 -1 8 -2 23 -1 34 4 39 21 -24 41 -154 24
-148 43 -205 79 -230 40 -29 123 -50 250 -63 64 -7 101 -14 83 -16 -18 -2 -36
-10 -39 -19 -4 -11 -8 -12 -13 -3 -10 16 -30 4 -30 -17 0 -10 6 -13 16 -9 12
5 15 2 10 -10 -5 -12 -1 -14 17 -10 l22 6 -23 -12 c-15 -8 -21 -17 -16 -30 3
-12 0 -18 -9 -18 -8 0 -17 -9 -20 -20 -3 -13 0 -20 8 -20 21 0 29 -20 12 -33
-8 -7 -20 -29 -27 -49 -6 -21 -18 -38 -26 -38 -8 0 -14 -7 -14 -15 0 -8 5 -15
10 -15 6 0 10 -5 10 -11 0 -5 -5 -7 -10 -4 -6 4 -17 1 -25 -5 -13 -10 -15 -7
-15 18 0 18 7 35 16 40 13 7 14 13 5 30 -13 25 -53 19 -44 -6 4 -14 3 -14 -5
-3 -5 7 -15 10 -22 6 -9 -6 -9 -9 1 -16 11 -6 10 -9 -4 -15 -18 -6 -24 -34 -7
-34 5 0 7 -7 4 -15 -4 -10 -13 -13 -25 -10 -12 4 -21 1 -25 -9 -8 -21 -24 -10
-24 15 0 17 -3 18 -20 7 -13 -8 -16 -16 -10 -22 13 -13 13 -36 0 -36 -5 0 -10
7 -10 15 0 8 -4 15 -10 15 -5 0 -10 -12 -10 -27 0 -16 4 -23 8 -17 13 20 37 0
38 -31 0 -16 3 -37 6 -45 2 -8 3 -12 1 -7 -3 4 -8 7 -12 7 -12 0 -7 -156 6
-171 6 -8 13 -25 15 -39 2 -18 12 -28 36 -35 17 -5 32 -13 32 -17 0 -8 -3 -9
-32 -12 -7 0 -13 -8 -13 -16 0 -9 7 -14 18 -12 10 2 17 -3 17 -12 0 -8 5 -18
10 -21 7 -4 8 3 4 20 -5 21 -4 27 7 23 9 -3 13 -17 11 -41 -4 -40 -1 -40 58
-10 29 15 31 14 23 -16 -3 -13 -11 -20 -19 -17 -8 3 -14 -1 -14 -10 0 -9 5
-12 12 -8 8 5 9 2 5 -10 -4 -10 -7 -20 -7 -22 0 -2 -7 -4 -15 -4 -18 0 -19 -9
-1 -33 10 -13 11 -28 5 -55 -5 -22 -4 -41 1 -46 7 -7 10 -6 10 2 0 7 5 12 10
12 6 0 10 -18 10 -39 0 -50 8 -71 27 -71 12 0 13 -3 4 -14 -15 -18 14 -77 35
-69 10 4 12 0 8 -11 -4 -10 0 -18 10 -22 9 -3 15 -14 14 -23 -2 -10 9 -22 29
-31 25 -12 31 -20 26 -37 -3 -15 3 -29 19 -45 14 -13 27 -30 30 -39 4 -9 19
-22 35 -29 33 -15 84 -76 82 -99 -1 -14 -2 -14 -6 0 -2 9 -16 22 -31 30 -15 8
-33 20 -40 27 -7 6 -18 12 -23 12 -15 0 -10 -20 6 -26 14 -6 13 -8 -2 -19 -14
-11 -15 -15 -4 -28 7 -9 10 -20 7 -26 -3 -5 -2 -11 4 -13 12 -4 16 -46 6 -75
-6 -18 -4 -22 8 -17 11 4 16 0 16 -11 0 -9 -4 -13 -10 -10 -12 7 -14 -8 -3
-19 8 -8 9 -13 11 -59 1 -18 6 -26 14 -21 6 4 16 1 22 -7 6 -8 20 -19 31 -25
11 -6 21 -21 23 -33 2 -11 8 -21 13 -21 5 0 9 -7 9 -15 0 -9 10 -15 26 -15 22
0 24 3 19 23 -12 38 -11 42 17 41 15 0 30 6 32 13 3 7 2 13 -3 13 -8 0 -19 67
-24 141 -1 17 -7 25 -14 22 -16 -6 -18 43 -3 52 12 7 90 -72 90 -91 0 -7 8
-18 18 -23 15 -9 15 -12 2 -21 -12 -8 -9 -10 13 -10 20 0 27 -5 27 -19 0 -12
11 -23 28 -29 15 -6 22 -11 15 -11 -12 -1 -5 -42 9 -52 5 -3 10 -30 11 -60 1
-30 5 -56 9 -59 3 -3 3 -24 -2 -48 -4 -23 -3 -45 1 -48 5 -3 9 -17 9 -31 0
-15 9 -37 21 -49 18 -19 19 -25 8 -42 -11 -18 -10 -24 4 -40 24 -26 22 -62 -3
-62 -24 0 -26 -13 -5 -30 25 -21 17 -33 -17 -26 -46 9 -58 24 -34 42 19 13 19
14 -7 14 -20 0 -27 5 -27 20 0 13 -10 24 -25 30 -27 10 -32 25 -12 34 6 4 -3
4 -20 1 -25 -3 -33 -1 -33 10 0 8 -5 15 -11 15 -6 0 -9 -7 -5 -15 3 -8 2 -15
-3 -15 -4 0 -13 -19 -19 -42 l-11 -43 4 45 c3 33 2 38 -4 20 -7 -23 -8 -23
-13 -5 -3 11 -3 4 -1 -15 5 -57 -8 -65 -46 -29 -24 22 -30 34 -22 42 16 16 14
24 -8 30 -14 3 -21 16 -24 43 -3 33 -4 31 -6 -16 l-3 -55 -14 60 c-7 33 -23
103 -34 155 -12 52 -25 106 -30 120 -4 14 -19 64 -31 112 l-23 87 -26 -16
c-40 -24 -148 -160 -237 -298 -14 -22 -38 -53 -53 -70 -86 -92 -177 -266 -204
-390 -28 -128 -32 -140 -44 -138 -7 2 -9 -4 -5 -13 5 -13 2 -15 -14 -10 -12 4
-25 1 -33 -9 -7 -9 -8 -15 -2 -15 6 0 13 6 16 13 3 6 4 -1 3 -18 -3 -40 -131
-148 -202 -171 -27 -8 -57 -18 -65 -21 -8 -4 -17 -7 -20 -7 -3 -1 -11 -5 -17
-9 -7 -5 -13 -6 -13 -3 0 5 -70 -19 -125 -43 -11 -5 -36 -14 -55 -21 -19 -7
-44 -16 -55 -21 -11 -5 -42 -17 -69 -26 -88 -32 -64 -43 35 -17 51 13 107 24
123 24 34 0 168 30 176 39 3 3 16 15 29 26 41 34 -65 -105 -130 -171 -52 -53
-67 -63 -107 -69 -117 -16 -322 -75 -400 -114 -20 -10 -68 -29 -107 -42 -38
-13 -83 -31 -100 -41 -16 -9 -50 -27 -73 -39 -42 -21 -122 -90 -122 -105 0 -4
-7 -14 -15 -23 -30 -32 -63 -77 -80 -110 -17 -33 -91 -111 -106 -111 -3 0 -24
-37 -46 -82 -31 -65 -43 -103 -52 -175 -6 -50 -19 -111 -28 -135 -14 -35 -18
-97 -23 -333 -5 -208 -12 -311 -23 -365 -32 -148 -40 -314 -40 -815 0 -426 -1
-436 -24 -520 -20 -75 -43 -240 -43 -312 0 -18 -7 -58 -15 -90 -30 -111 -39
-257 -40 -658 0 -312 -4 -413 -15 -460 -19 -77 -21 -559 -3 -620 7 -22 19
-110 29 -195 19 -180 16 -242 -27 -507 -11 -68 -11 -98 0 -165 27 -177 33
-258 28 -378 -3 -69 -11 -138 -17 -155 -7 -16 -14 -76 -17 -132 -5 -82 -2
-114 12 -159 14 -44 17 -80 13 -180 l-4 -124 1296 0 1296 0 1 38 c0 20 4 79 9
130 5 50 6 92 2 92 -9 0 2 62 13 75 13 13 11 65 -2 65 -6 0 -3 7 5 16 24 23
38 53 31 64 -3 6 -2 10 3 10 5 0 9 20 9 44 0 25 7 56 16 70 14 20 15 30 6 50
-10 20 -8 29 8 50 14 17 20 38 18 71 -1 46 -1 46 16 24 27 -36 48 -12 41 46
-4 38 -2 45 12 45 16 0 16 2 1 28 -17 28 -71 41 -60 14 3 -8 5 -23 5 -33 0
-11 5 -17 10 -14 6 3 10 -3 10 -14 0 -27 -13 -26 -45 3 -24 22 -25 25 -9 34
15 9 16 13 5 26 -11 13 -11 17 2 22 9 3 14 11 11 19 -3 7 2 15 11 19 9 3 18 0
21 -9 4 -8 10 -15 15 -15 5 0 18 -9 29 -20 26 -26 40 -25 41 3 0 21 1 21 8 2
5 -11 5 -24 1 -30 -4 -5 -10 -22 -14 -37 -3 -16 -13 -28 -21 -28 -11 0 -14 -9
-12 -30 2 -17 7 -33 10 -37 4 -3 7 -20 7 -37 0 -17 5 -48 11 -70 10 -35 13
-38 40 -32 24 5 29 2 29 -15 0 -11 7 -22 15 -25 19 -8 19 -24 0 -24 -8 0 -15
-5 -15 -11 0 -23 -25 -1 -30 27 -4 23 -11 30 -33 32 -21 3 -31 11 -39 33 -5
16 -14 29 -20 29 -5 0 -8 9 -6 20 2 10 -1 19 -7 19 -5 0 -8 -10 -6 -22 3 -12
5 -34 5 -48 1 -20 5 -26 19 -24 9 2 17 -2 17 -10 0 -7 5 -15 11 -17 7 -2 7
-11 0 -28 -9 -24 -13 -22 -15 9 -2 21 -36 23 -36 2 0 -9 -8 -35 -19 -57 -21
-43 -36 -116 -32 -152 1 -13 -5 -32 -15 -43 -13 -14 -14 -19 -4 -19 11 0 11
-3 2 -12 -7 -7 -12 -22 -12 -35 l0 -23 22 22 c24 24 36 11 19 -21 -6 -11 -12
-32 -12 -48 -1 -17 -3 -21 -6 -10 -6 22 -9 21 -33 -3 -21 -21 -27 -74 -10 -85
6 -3 7 -18 4 -32 -5 -18 -3 -24 5 -19 7 5 11 0 11 -13 0 -12 7 -21 15 -21 8 0
14 -6 12 -13 -1 -9 392 -13 1934 -15 l1936 -2 22 142 c28 177 57 348 69 408
28 138 87 400 112 500 32 127 51 228 80 430 24 166 33 219 59 340 11 52 23
136 26 185 4 50 22 205 41 345 19 140 43 338 54 440 11 102 25 201 30 220 20
78 53 383 53 505 1 270 -27 915 -52 1170 -45 462 -28 741 61 1035 18 62 22 98
22 205 0 124 -2 135 -38 240 -52 153 -100 248 -166 324 -31 36 -75 93 -97 127
-86 126 -274 265 -478 352 -125 53 -501 172 -544 172 -17 0 -194 67 -268 101
-34 16 -95 38 -135 49 -41 11 -121 38 -179 61 -57 22 -147 54 -199 71 -55 17
-105 40 -120 54 -24 24 -24 24 -7 57 10 17 31 47 46 66 27 33 30 34 52 20 28
-19 145 -59 170 -59 10 0 55 -16 101 -36 45 -19 117 -44 158 -53 41 -10 154
-47 250 -82 96 -34 211 -73 255 -85 204 -58 256 -74 335 -103 202 -74 391
-172 526 -272 46 -34 221 -213 274 -282 12 -15 47 -73 77 -129 123 -226 170
-457 127 -623 -9 -33 -20 -85 -26 -115 -12 -68 -4 -816 11 -1010 45 -582 46
-1422 2 -1855 -11 -110 -25 -245 -30 -300 -24 -235 -99 -718 -140 -905 -22
-96 -32 -159 -61 -380 -23 -171 -34 -235 -80 -450 -57 -268 -101 -502 -130
-690 -7 -41 -16 -97 -21 -123 -5 -26 -9 -52 -9 -57 0 -6 40 -10 89 -10 l90 0
10 53 c25 121 62 332 76 430 8 58 26 150 40 204 47 184 83 425 105 708 12 162
18 203 90 690 19 123 43 314 76 580 8 66 18 140 23 165 11 53 25 187 45 430
34 395 38 909 12 1395 -8 154 -20 422 -26 595 -6 173 -15 365 -20 425 -5 61
-12 164 -15 230 -19 385 -30 458 -79 540 -14 22 -50 88 -82 147 -32 59 -81
138 -108 175 -55 73 -190 213 -246 256 -19 14 -62 47 -95 73 -34 26 -149 90
-263 145 -212 104 -250 117 -627 218 -181 49 -311 90 -565 179 -63 22 -155 52
-203 67 -49 14 -87 29 -85 33 28 61 71 132 79 132 6 0 20 -5 31 -11 12 -6 62
-22 112 -35 50 -13 129 -39 176 -59 111 -47 189 -71 460 -141 107 -28 122 -32
350 -109 216 -74 204 -70 196 -57 -4 7 -14 12 -22 12 -8 0 -32 11 -54 25 -22
14 -45 25 -52 25 -8 0 -29 11 -48 23 -19 13 -56 30 -82 37 -26 8 -45 17 -42
22 3 4 -8 10 -23 13 -38 8 -117 37 -123 44 -3 4 -41 23 -85 43 -80 37 -113 48
-320 112 -139 43 -370 123 -396 136 -23 13 -24 29 -2 90 l17 47 -40 48 c-21
25 -54 64 -71 85 -18 20 -33 43 -33 49 0 6 -4 11 -9 11 -5 0 -13 10 -17 23 -4
12 -22 44 -40 72 -19 27 -34 54 -34 60 0 6 -10 21 -23 35 -35 38 -109 140
-133 185 -29 52 -114 225 -114 232 0 12 -62 138 -82 165 -30 44 -97 88 -130
88 -16 0 -27 -4 -24 -9 9 -14 24 -222 19 -256 -3 -20 -14 -36 -34 -47 -28 -16
-29 -16 -29 3 0 11 -4 18 -9 14 -6 -3 -15 4 -21 15 -8 15 -8 20 2 20 6 0 3 6
-8 14 -16 13 -17 18 -6 36 11 17 10 21 -5 27 -9 4 -19 1 -21 -5 -2 -7 -11 -12
-20 -12 -15 1 -16 2 -1 13 19 15 14 37 -9 38 -11 0 -12 2 -4 6 19 7 14 41 -7
48 -24 7 -17 40 15 74 13 12 26 32 29 42 4 10 10 19 15 19 4 0 11 16 14 36 4
19 10 42 13 50 3 9 -1 14 -12 14 -14 0 -13 4 6 19 13 11 20 23 16 28 -5 4 -15
-1 -23 -11 -20 -28 -29 -12 -14 24 13 32 25 38 33 18 2 -7 8 -10 12 -6 4 4 0
15 -10 24 -36 36 -45 113 -10 84 13 -10 15 -9 15 12 0 13 -5 29 -11 35 -8 8
-3 23 17 54 16 24 29 47 30 52 1 4 2 10 4 15 1 4 1 23 0 43 -1 25 4 38 14 42
11 5 14 14 10 37 -4 17 -2 30 3 30 14 0 23 89 12 118 -6 15 -5 31 2 43 10 19
8 20 -25 13 -35 -6 -50 6 -26 21 16 10 0 27 -21 22 -11 -3 -17 -1 -13 4 3 5 1
9 -5 9 -5 0 -12 -6 -15 -12 -5 -10 -7 -10 -12 0 -8 18 -24 15 -25 -5 -2 -23
-21 65 -21 94 0 19 -3 20 -24 11 -13 -6 -24 -17 -24 -24 0 -16 -26 -8 -33 10
-7 18 13 46 20 29 6 -15 23 -17 23 -3 0 5 -10 21 -22 35 -24 28 -63 33 -72 10
-6 -16 -46 -21 -46 -7 0 17 13 22 27 11 10 -9 13 -8 13 5 0 11 -8 15 -25 14
-14 -1 -25 -8 -25 -15 0 -7 -4 -13 -9 -13 -6 0 -9 12 -7 28 1 15 8 26 14 25 7
-2 12 2 12 7 0 6 -7 10 -15 10 -18 0 -19 7 -3 24 9 10 17 10 30 3 13 -9 21 -7
36 10 11 14 23 19 31 14 7 -5 32 -3 56 5 24 7 45 10 48 8 8 -8 47 20 47 33 0
7 -7 13 -15 13 -8 0 -15 5 -15 11 0 6 -9 9 -20 6 -25 -6 -26 1 -2 20 16 13 16
14 -3 12 -42 -3 -38 2 15 22 30 11 60 21 66 23 19 3 42 26 65 62 13 22 31 90
49 194 16 88 32 165 35 170 3 5 14 2 25 -7 11 -10 15 -20 10 -23 -5 -3 -3 -16
5 -30 18 -31 17 -30 46 -115 36 -104 34 -270 -5 -415 -22 -83 -65 -366 -66
-427 0 -9 10 -11 33 -6 37 7 52 24 32 35 -20 12 -41 59 -37 84 4 29 64 40 98
17 24 -15 24 -15 24 15 0 17 7 37 15 46 19 18 19 26 1 26 -7 0 -26 12 -42 27
-17 15 -22 24 -11 20 10 -4 18 -2 18 6 1 7 3 21 5 32 2 11 6 31 7 45 3 21 8
24 33 22 34 -4 48 -16 50 -40 0 -9 1 -29 2 -44 1 -18 8 -28 18 -28 9 0 12 5 8
12 -4 6 1 17 11 24 14 10 19 29 21 70 1 36 8 62 20 75 13 14 18 37 18 83 1 36
5 62 10 58 5 -3 7 33 4 89 -3 52 -2 105 1 119 l7 25 7 -25 c4 -14 10 -61 13
-104 6 -69 9 -77 21 -61 7 11 13 26 13 35 0 9 9 34 20 55 12 22 25 72 30 112
5 39 14 92 21 117 12 47 5 121 -10 111 -18 -10 7 62 40 120 33 58 34 63 36
180 2 138 10 208 24 200 5 -4 9 -2 9 4 0 6 9 18 19 28 11 10 31 41 45 69 22
45 24 55 14 87 -6 20 -14 37 -17 37 -3 0 -7 34 -8 75 -2 71 -4 77 -34 104 -19
18 -29 35 -26 45 3 8 -3 26 -14 39 -10 14 -19 31 -19 39 0 7 -7 27 -16 43 -16
29 -35 92 -54 180 -5 22 -7 54 -4 72 5 27 1 36 -22 56 -24 21 -28 33 -31 88
-5 72 -29 139 -50 139 -11 0 -13 9 -9 38 4 20 2 44 -4 52 -8 12 -10 12 -10 1
0 -11 -3 -11 -15 -1 -21 17 -19 42 3 38 23 -4 28 34 6 52 -14 12 -18 12 -30
-4 -7 -11 -11 -22 -9 -27 3 -4 0 -20 -5 -35 -10 -26 -11 -26 -25 -8 -8 10 -15
27 -15 37 0 10 -4 16 -9 13 -7 -5 -4 21 14 95 10 38 -11 46 -40 15 l-24 -26 2
88 c1 107 -31 214 -82 269 -12 12 -21 25 -21 28 0 4 -14 18 -32 33 -32 27
-111 50 -175 51 -25 1 -38 9 -59 39 -16 20 -33 42 -38 47 -6 6 -20 28 -31 49
-11 21 -33 47 -50 57 -16 10 -43 35 -60 56 -70 87 -125 124 -224 149 -31 8
-85 25 -121 39 -36 13 -92 27 -125 31 -33 4 -63 11 -67 17 -7 12 -88 -8 -88
-22 0 -4 -17 -7 -37 -7 -31 1 -39 6 -41 23 -3 23 -19 32 -67 40 -16 3 -41 11
-55 18 -14 7 -47 16 -73 20 -31 5 -57 16 -73 32 -24 24 -41 26 -94 12 -11 -3
-15 6 -16 37 0 22 -4 46 -8 52 -10 16 -65 42 -71 32z m-60 -39 c3 -5 1 -12 -5
-16 -5 -3 -10 1 -10 9 0 18 6 21 15 7z m65 -32 c0 -18 -32 -38 -62 -39 -21 0
-28 5 -28 18 0 15 6 18 30 14 18 -3 30 0 30 7 0 6 7 11 15 11 8 0 15 -5 15
-11z m-100 -18 c0 -5 -7 -11 -15 -15 -9 -3 -15 0 -15 9 0 8 7 15 15 15 8 0 15
-4 15 -9z m355 -101 c3 -5 -3 -10 -14 -10 -12 0 -21 5 -21 10 0 6 6 10 14 10
8 0 18 -4 21 -10z m120 -30 c3 -5 -3 -10 -14 -10 -12 0 -21 5 -21 10 0 6 6 10
14 10 8 0 18 -4 21 -10z m-65 -25 c22 -27 5 -37 -19 -11 -19 20 -21 26 -9 26
9 0 21 -7 28 -15z m-730 -34 c11 -21 -2 -71 -19 -71 -15 0 -22 33 -9 42 10 6
8 8 -4 8 -10 0 -18 -4 -18 -10 0 -5 -5 -10 -10 -10 -6 0 -4 13 5 30 18 34 40
39 55 11z m52 -8 c-6 -3 -10 -9 -6 -14 3 -5 0 -9 -6 -9 -6 0 -13 7 -17 16 -7
20 18 38 32 22 7 -7 6 -12 -3 -15z m166 1 c27 -19 28 -41 2 -49 -11 -3 -20
-12 -20 -18 0 -7 -7 1 -15 17 -30 57 -13 83 33 50z m-118 -16 c22 -24 26 -38
9 -38 -6 0 -13 9 -16 20 -3 11 -9 20 -14 20 -5 0 -9 5 -9 10 0 15 7 12 30 -12z
m840 -8 c0 -13 -19 -22 -30 -15 -14 9 0 34 16 28 8 -3 14 -9 14 -13z m-1703
-482 c-3 -7 -5 -2 -5 12 0 14 2 19 5 13 2 -7 2 -19 0 -25z m-216 -305 c-9 -17
-10 -17 -17 0 -4 10 0 30 7 44 l14 27 3 -27 c2 -15 -1 -34 -7 -44z m-46 6 c9
-17 14 -33 11 -36 -5 -6 -66 16 -66 23 0 4 33 41 37 43 1 1 10 -13 18 -30z
m3165 -189 c0 -5 -4 -10 -10 -10 -5 0 -10 5 -10 10 0 6 5 10 10 10 6 0 10 -4
10 -10z m51 -91 c20 -8 26 -14 18 -20 -18 -11 -69 30 -61 50 6 15 7 15 10 -1
2 -9 17 -22 33 -29z m-3808 -696 c-7 -2 -21 -2 -30 0 -10 3 -4 5 12 5 17 0 24
-2 18 -5z m1477 -143 c0 -5 -5 -10 -11 -10 -5 0 -7 5 -4 10 3 6 8 10 11 10 2
0 4 -4 4 -10z m130 -16 c0 -2 -13 -4 -30 -4 -16 0 -30 4 -30 8 0 5 14 7 30 4
17 -2 30 -6 30 -8z m-1357 -11 c-18 -12 -21 -19 -12 -35 6 -11 8 -22 5 -25 -3
-3 -8 2 -12 11 -3 9 -12 16 -20 16 -22 0 -16 14 14 32 34 22 55 23 25 1z
m1522 -13 c-3 -5 -13 -10 -21 -10 -24 0 -15 -17 14 -26 19 -5 22 -8 10 -11 -9
-2 -26 1 -37 7 -17 9 -21 8 -21 -5 0 -8 -7 -15 -16 -15 -12 0 -14 -5 -8 -17 4
-10 8 -31 9 -47 1 -16 10 -35 20 -42 15 -11 15 -15 4 -27 -8 -7 -22 -16 -31
-20 -10 -3 -18 -12 -18 -19 0 -9 -16 -13 -45 -14 -24 0 -51 -7 -60 -14 -10 -8
-15 -9 -15 -1 0 22 -21 11 -40 -21 -16 -26 -20 -29 -20 -13 0 19 -2 18 -23 -5
-26 -29 -52 -39 -44 -15 7 18 -15 20 -44 5 -15 -8 -19 -7 -19 5 0 17 -2 18
-24 9 -9 -3 -13 -10 -10 -15 3 -5 10 -7 15 -4 5 4 9 2 9 -3 0 -15 -54 -56 -75
-57 -11 0 -20 -5 -20 -12 0 -10 -47 -53 -59 -53 -3 0 -24 -18 -46 -39 -35 -34
-39 -41 -27 -52 12 -12 6 -16 -42 -26 -31 -6 -71 -12 -88 -12 l-33 -1 20 35
c11 20 20 44 20 55 0 27 18 25 23 -2 4 -23 4 -23 14 2 9 20 8 27 -5 38 -16 12
-16 15 0 42 12 21 13 30 5 34 -8 3 -6 9 6 16 12 8 17 24 17 56 0 38 4 46 25
56 14 6 24 17 21 24 -6 17 5 26 19 14 6 -5 23 -6 41 -1 30 9 30 9 -23 27 -15
5 -14 8 7 16 15 6 20 12 12 15 -27 10 0 21 31 12 46 -13 48 -12 41 17 -5 19
-4 25 5 20 6 -4 11 -17 11 -29 1 -21 1 -21 14 -4 14 18 14 18 20 0 3 -10 3 2
1 27 -3 32 -1 39 5 25 8 -19 12 -16 14 14 1 8 7 16 14 19 9 3 12 -4 11 -19 -4
-42 1 -69 12 -69 6 0 8 9 4 20 -5 14 -2 20 9 20 22 0 20 17 -1 23 -12 3 -10 5
7 6 14 1 38 8 53 16 26 14 56 11 68 -7 3 -4 24 -9 47 -10 23 -1 42 -5 42 -10
0 -5 12 -8 27 -6 35 4 43 33 11 42 -22 6 -22 7 -4 18 15 8 21 8 24 0 6 -20 77
-14 97 8 18 20 51 28 40 10z m-440 -10 c3 -5 -1 -10 -9 -10 -9 0 -16 5 -16 10
0 6 4 10 9 10 6 0 13 -4 16 -10z m512 4 c-3 -3 -12 -4 -19 -1 -8 3 -5 6 6 6
11 1 17 -2 13 -5z m-306 -27 c-1 -12 -15 -9 -19 4 -3 6 1 10 8 8 6 -3 11 -8
11 -12z m259 -48 c0 -11 -4 -18 -10 -14 -5 3 -7 12 -3 20 7 21 13 19 13 -6z
m-1550 -13 c0 -42 -21 -86 -41 -86 -19 0 -25 11 -12 24 4 3 8 14 9 23 4 24 26
63 36 63 4 0 8 -11 8 -24z m2010 14 c0 -5 -4 -10 -10 -10 -5 0 -10 5 -10 10 0
6 5 10 10 10 6 0 10 -4 10 -10z m-475 -50 c4 -6 -8 -10 -30 -10 -22 0 -34 4
-30 10 3 6 17 10 30 10 13 0 27 -4 30 -10z m1498 -39 c-9 -12 -23 18 -16 35 6
17 8 17 13 -6 4 -14 5 -27 3 -29z m-1388 21 c-3 -3 -11 0 -18 7 -9 10 -8 11 6
5 10 -3 15 -9 12 -12z m-795 -1 c0 -6 -4 -13 -10 -16 -5 -3 -10 1 -10 9 0 9 5
16 10 16 6 0 10 -4 10 -9z m2160 -27 c0 -9 -9 -18 -20 -21 -11 -3 -20 -12 -20
-20 0 -8 -4 -11 -10 -8 -5 3 -10 2 -10 -4 0 -5 5 -13 10 -16 6 -3 10 -16 10
-29 0 -16 10 -27 33 -37 35 -15 43 -42 15 -47 -19 -4 -48 19 -48 37 0 6 -12
14 -26 17 -29 7 -28 19 6 98 14 33 25 46 40 46 12 0 20 -7 20 -16z m-1003 -20
c-3 -3 -12 -4 -19 -1 -8 3 -5 6 6 6 11 1 17 -2 13 -5z m1053 -24 c0 -5 -2 -10
-4 -10 -3 0 -8 5 -11 10 -3 6 -1 10 4 10 6 0 11 -4 11 -10z m-1516 -15 c-10
-8 -28 -14 -39 -14 -18 0 -17 1 5 14 34 20 60 20 34 0z m1366 -20 c0 -8 -4
-15 -10 -15 -5 0 -7 7 -4 15 4 8 8 15 10 15 2 0 4 -7 4 -15z m-1500 -13 c0 -4
-17 -8 -37 -9 -37 -1 -37 -1 -8 7 42 11 45 11 45 2z m1587 -24 c-3 -8 -6 -5
-6 6 -1 11 2 17 5 13 3 -3 4 -12 1 -19z m76 -13 c-3 -9 -8 -14 -10 -11 -3 3
-2 9 2 15 9 16 15 13 8 -4z m-1823 -25 c0 -5 -7 -10 -15 -10 -8 0 -15 5 -15
10 0 6 7 10 15 10 8 0 15 -4 15 -10z m1864 -130 c16 -19 38 -38 50 -42 15 -5
11 -6 -14 -5 -19 1 -36 8 -36 15 -1 6 -2 16 -3 20 0 5 -17 16 -36 25 -32 15
-44 35 -29 50 6 6 24 -11 68 -63z m268 -97 c12 -11 18 -31 19 -62 0 -40 14
-95 20 -81 7 18 5 87 -3 98 -19 22 8 13 51 -18 50 -37 53 -43 49 -108 l-3 -50
-65 38 c-36 22 -72 39 -80 40 -12 0 -15 16 -15 80 0 44 2 80 4 80 3 0 13 -7
23 -17z m-243 -71 c36 -39 37 -43 12 -59 -17 -11 -22 -8 -43 25 -12 20 -22 43
-20 50 2 6 -2 12 -8 12 -7 0 -7 7 1 22 12 22 12 22 20 3 4 -11 21 -35 38 -53z
m-2535 5 c-4 -11 -8 -46 -9 -76 -2 -44 -7 -57 -20 -59 -52 -11 -195 -116 -195
-143 0 -6 -5 -7 -10 -4 -17 10 -1 157 19 177 24 26 205 135 214 130 4 -2 5
-13 1 -25z m252 -5 c9 -14 8 -26 -7 -56 -10 -20 -16 -43 -14 -49 6 -17 -22
-50 -35 -42 -7 4 -10 16 -7 26 3 10 1 21 -4 24 -5 3 -7 18 -5 33 10 72 47 105
72 64z m931 -124 c-3 -7 -5 -2 -5 12 0 14 2 19 5 13 2 -7 2 -19 0 -25z m1450
0 c-3 -8 -6 -5 -6 6 -1 11 2 17 5 13 3 -3 4 -12 1 -19z m-3143 -5 c4 -9 1 -20
-6 -25 -21 -13 -25 -9 -20 17 5 29 17 32 26 8z m1686 -88 c-16 -98 -22 -125
-30 -130 -6 -4 -2 24 25 170 12 62 16 26 5 -40z m1370 55 c0 -5 3 -9 8 -8 11
2 46 -14 54 -26 25 -36 -17 -340 -49 -364 -25 -18 -140 -52 -193 -57 l-45 -5
43 11 c38 9 47 18 43 42 0 4 6 7 15 7 14 0 14 3 3 16 -10 13 -10 17 1 24 11 7
11 11 1 24 -11 13 -11 17 2 22 9 3 13 12 10 20 -3 7 2 17 11 20 10 4 16 18 16
41 0 20 4 32 10 28 6 -4 8 -11 5 -16 -4 -5 1 -9 9 -9 13 0 13 4 1 34 -13 32
-13 35 3 40 12 4 17 18 18 50 2 62 13 116 24 116 6 0 10 -4 10 -10z m-2329
-62 c1 -7 0 -28 -1 -45 -1 -26 2 -32 14 -27 19 7 21 20 4 27 -10 4 -10 6 0 6
6 1 26 -28 43 -64 16 -35 33 -64 37 -64 20 3 30 -3 35 -23 5 -18 8 -19 21 -8
11 8 16 9 16 1 0 -6 -5 -11 -11 -11 -7 0 -9 -12 -5 -35 5 -23 3 -35 -4 -35 -6
0 -8 -5 -4 -11 3 -6 15 -9 25 -6 11 3 19 0 19 -7 0 -23 50 -69 63 -58 8 7 16
6 25 -4 11 -12 10 -14 -3 -14 -8 0 -24 -9 -34 -19 -15 -15 -16 -21 -6 -25 8
-3 16 0 18 7 3 9 8 9 20 -1 12 -10 55 -12 189 -9 114 4 163 2 143 -4 -16 -5
-122 -10 -235 -11 -184 -1 -215 1 -298 21 -106 27 -117 36 -138 129 -20 84
-30 237 -15 228 6 -4 14 0 18 11 7 22 43 63 55 63 4 0 8 -6 9 -12z m1096 -46
c-7 -9 -6 -20 3 -37 8 -14 11 -40 7 -64 -3 -28 -1 -44 9 -52 8 -6 19 -29 24
-50 6 -22 15 -39 20 -39 15 0 12 38 -2 43 -7 2 -10 8 -6 12 4 4 17 0 30 -9 31
-22 59 -22 32 0 -10 8 -14 13 -7 10 6 -4 14 -2 18 4 4 6 10 8 15 5 5 -3 11 4
15 15 10 30 35 24 41 -10 4 -16 10 -27 15 -24 17 10 9 -28 -12 -54 -19 -24
-19 -27 -4 -38 10 -7 14 -17 11 -23 -4 -5 -2 -12 4 -16 6 -4 10 5 10 19 0 14
5 26 11 26 7 0 9 -11 6 -27 -3 -15 -1 -35 4 -45 6 -10 5 -19 -1 -23 -14 -9
-12 -25 3 -25 19 0 40 -37 24 -43 -8 -4 -6 -6 3 -6 9 -1 27 -14 41 -30 14 -16
49 -37 78 -47 41 -15 58 -28 82 -63 28 -43 39 -101 19 -101 -5 0 -10 4 -10 9
0 5 -14 12 -30 16 -17 4 -28 10 -25 15 3 4 -7 11 -23 15 -15 3 -34 12 -42 20
-19 16 -98 24 -104 10 -2 -5 -5 1 -6 15 0 22 -2 23 -11 8 -16 -27 -32 -22 -25
8 4 16 3 23 -3 20 -5 -4 -12 -2 -15 3 -4 5 -2 13 4 16 8 5 7 11 -1 21 -18 21
-29 17 -29 -12 0 -21 -4 -25 -17 -19 -10 4 -34 8 -55 8 -28 2 -34 -1 -26 -10
7 -9 3 -15 -18 -23 -16 -5 -37 -15 -47 -21 -11 -6 -21 -8 -24 -5 -3 3 -15 1
-26 -5 -15 -8 -18 -8 -12 1 6 9 2 9 -14 1 -11 -7 -21 -16 -21 -21 0 -6 -20 -9
-45 -8 -28 1 -52 -5 -62 -14 -17 -14 -49 -30 -65 -32 -4 -1 -14 -10 -22 -21
-14 -17 -17 -18 -27 -5 -9 12 -10 11 -6 -7 6 -27 0 -29 -25 -6 -26 24 -22 71
12 130 35 61 50 73 50 41 1 -20 2 -21 11 -5 5 9 17 17 24 17 8 0 15 5 15 11 0
5 5 7 10 4 20 -12 76 66 66 92 -3 7 -1 13 4 13 6 0 10 7 10 15 0 8 -7 15 -15
15 -8 0 -15 -7 -15 -15 0 -21 -17 -19 -23 3 -2 9 -8 24 -11 33 -5 11 -1 19 10
23 15 6 15 4 3 -11 -11 -14 -9 -13 13 2 14 11 22 22 17 23 -5 2 -9 8 -9 13 0
6 8 5 20 -1 16 -9 20 -8 20 5 0 9 -4 13 -10 10 -5 -3 -10 2 -10 11 0 10 3 14
7 11 3 -4 12 -2 20 4 9 9 13 8 13 0 0 -6 7 -11 17 -11 15 0 15 1 0 18 -22 24
-21 39 2 54 15 9 17 17 10 35 -6 17 -6 22 2 17 8 -5 10 3 7 25 -3 18 -1 34 4
37 4 3 8 22 8 42 0 47 35 97 55 79 9 -9 10 -16 2 -25z m133 -16 c0 -11 -19
-15 -25 -6 -3 5 1 10 9 10 9 0 16 -2 16 -4z m178 -14 c2 -7 -3 -12 -12 -12 -9
0 -16 7 -16 16 0 17 22 14 28 -4z m-498 -7 c0 -8 -7 -15 -15 -15 -9 0 -12 6
-9 15 4 8 10 15 15 15 5 0 9 -7 9 -15z m345 -25 c-3 -5 -10 -10 -16 -10 -5 0
-9 5 -9 10 0 6 7 10 16 10 8 0 12 -4 9 -10z m20 -40 c3 -5 -3 -10 -14 -10 -10
0 -28 -3 -38 -6 -16 -5 -16 -4 1 10 23 18 42 21 51 6z m-379 -79 c-32 -81 -93
-155 -139 -170 -56 -17 -104 -24 -87 -12 8 6 26 11 40 11 14 0 36 10 50 21 14
11 19 17 11 13 -9 -5 -12 -3 -7 5 4 6 11 9 15 6 16 -9 63 51 99 127 20 42 39
75 41 72 2 -2 -8 -35 -23 -73z m569 -28 c46 -89 82 -112 215 -138 50 -10 343
-6 353 4 6 6 18 11 26 11 13 0 13 -3 -2 -17 -14 -15 -41 -17 -199 -17 -276 0
-340 25 -410 162 -20 39 -20 42 -13 42 2 0 16 -21 30 -47z m-505 -7 c0 -3 -4
-8 -10 -11 -5 -3 -10 -1 -10 4 0 6 5 11 10 11 6 0 10 -2 10 -4z m-695 -66 c8
-13 -5 -13 -25 0 -13 8 -13 10 2 10 9 0 20 -4 23 -10z m1102 -32 c-3 -8 -6 -5
-6 6 -1 11 2 17 5 13 3 -3 4 -12 1 -19z m790 -4 c-3 -3 -12 -4 -19 -1 -8 3 -5
6 6 6 11 1 17 -2 13 -5z m447 -85 c-2 -4 0 -10 6 -14 5 -3 10 -29 10 -57 0
-41 -3 -49 -16 -44 -8 3 -13 2 -10 -3 3 -4 -1 -17 -9 -27 -14 -18 -15 -17 -9
11 4 17 11 32 15 35 5 3 6 35 4 70 -3 43 -2 60 4 50 5 -8 8 -17 5 -21z m-414
-36 c0 -5 -8 -17 -17 -28 -14 -18 -15 -18 -9 -2 3 10 6 23 6 28 0 5 5 9 10 9
6 0 10 -3 10 -7z m-1787 -10 c-7 -2 -21 -2 -30 0 -10 3 -4 5 12 5 17 0 24 -2
18 -5z m1842 -13 c-3 -5 -15 -10 -26 -10 -10 0 -19 5 -19 10 0 6 12 10 26 10
14 0 23 -4 19 -10z m-145 -50 c0 -5 -4 -10 -10 -10 -5 0 -10 5 -10 10 0 6 5
10 10 10 6 0 10 -4 10 -10z m-113 -72 c-3 -8 -6 -5 -6 6 -1 11 2 17 5 13 3 -3
4 -12 1 -19z m40 -10 c-3 -8 -6 -5 -6 6 -1 11 2 17 5 13 3 -3 4 -12 1 -19z
m-47 -28 c-24 -15 -36 -11 -14 4 10 8 21 12 24 10 2 -3 -2 -9 -10 -14z m190
-11 c0 -5 -7 -9 -15 -9 -15 0 -20 12 -9 23 8 8 24 -1 24 -14z m410 -85 c0 -22
-2 -23 -20 -12 -20 13 -26 29 -14 41 12 12 34 -6 34 -29z m-195 -144 c3 -5 1
-10 -4 -10 -6 0 -11 5 -11 10 0 6 2 10 4 10 3 0 8 -4 11 -10z m2 -82 c-3 -7
-5 -2 -5 12 0 14 2 19 5 13 2 -7 2 -19 0 -25z m-1572 -150 c4 -4 -6 -10 -21
-14 -16 -4 -35 -11 -42 -17 -18 -14 -25 -2 -12 20 12 18 61 25 75 11z m-781
-19 c-3 -6 -1 -15 5 -19 9 -5 8 -10 -4 -20 -12 -10 -15 -10 -15 3 0 8 -3 22
-6 31 -4 11 -1 16 11 16 9 0 13 -5 9 -11z m77 -132 c-13 -13 -26 -3 -16 12 3
6 11 8 17 5 6 -4 6 -10 -1 -17z m839 -42 c10 -13 9 -15 -9 -15 -25 0 -28 -17
-3 -23 10 -3 6 -5 -10 -6 -25 -1 -28 3 -28 29 0 23 5 30 19 30 10 0 24 -7 31
-15z m131 -6 c17 -15 33 -19 56 -16 40 7 57 -12 48 -51 l-6 -29 -71 4 c-81 4
-98 14 -98 53 0 63 27 77 71 39z m288 6 c15 -9 14 -58 -1 -77 -9 -12 -34 -17
-85 -20 l-73 -4 0 33 c0 33 24 55 63 58 10 1 22 6 28 12 11 11 50 10 68 -2z
m-369 -9 c0 -11 -19 -15 -25 -6 -3 5 1 10 9 10 9 0 16 -2 16 -4z m530 -50 c0
-2 -7 -7 -16 -10 -8 -3 -12 -2 -9 4 6 10 25 14 25 6z m-1357 -77 c-3 -10 -8
-19 -10 -19 -3 0 -3 9 0 20 3 11 1 20 -5 20 -5 0 -6 5 -2 11 10 16 23 -9 17
-32z m697 10 c0 -5 8 -9 18 -7 9 1 27 -6 40 -17 25 -22 28 -31 10 -33 -7 -1
-28 -5 -47 -8 -31 -6 -32 -5 -22 14 12 22 0 39 -19 27 -17 -11 -32 5 -19 21
13 16 39 19 39 3z m190 -41 c0 -5 -4 -8 -10 -8 -5 0 -10 10 -10 23 0 18 2 19
10 7 5 -8 10 -18 10 -22z m-32 -39 c3 -11 2 -11 -6 -1 -7 11 -12 10 -26 -3
-13 -14 -16 -14 -16 -2 0 28 41 33 48 6z m122 -13 c0 -8 -7 -17 -16 -20 -25
-10 -30 2 -8 19 24 18 24 18 24 1z m1072 -28 c-9 -9 -12 -7 -12 12 0 19 3 21
12 12 9 -9 9 -15 0 -24z m68 12 c0 -5 -4 -10 -9 -10 -6 0 -13 5 -16 10 -3 6 1
10 9 10 9 0 16 -4 16 -10z m0 -34 c0 -3 -4 -8 -10 -11 -5 -3 -10 -1 -10 4 0 6
5 11 10 11 6 0 10 -2 10 -4z m20 -406 c0 -5 -2 -10 -4 -10 -3 0 -8 5 -11 10
-3 6 -1 10 4 10 6 0 11 -4 11 -10z m-1801 -90 c0 -10 -3 -8 -9 5 -12 27 -12
43 0 25 5 -8 9 -22 9 -30z m51 4 c0 -17 -22 -14 -28 4 -2 7 3 12 12 12 9 0 16
-7 16 -16z m-66 -181 c18 -22 18 -22 -7 -19 -34 3 -57 29 -50 55 6 24 2 27 57
-36z m333 -315 c-3 -8 -6 -5 -6 6 -1 11 2 17 5 13 3 -3 4 -12 1 -19z m-190
-210 c-3 -8 -6 -5 -6 6 -1 11 2 17 5 13 3 -3 4 -12 1 -19z m-2205 -1290 c-8
-8 -9 -4 -5 13 4 13 8 18 11 10 2 -7 -1 -18 -6 -23z m2944 -827 c-3 -5 -6 -31
-7 -57 -1 -27 -8 -61 -15 -76 -8 -15 -14 -40 -14 -55 0 -15 -6 -40 -14 -55 -8
-15 -20 -53 -26 -85 -7 -32 -18 -65 -26 -73 -7 -9 -14 -36 -16 -60 -2 -25 -7
-48 -12 -51 -4 -4 -9 -19 -10 -35 -2 -16 -8 -45 -14 -64 -6 -19 -19 -75 -28
-125 -9 -49 -19 -94 -22 -100 -4 -5 -8 -21 -10 -35 -1 -14 -7 -38 -12 -54 -6
-16 -10 -60 -10 -97 0 -38 -4 -69 -8 -69 -4 0 -8 -8 -9 -17 -1 -16 -20 -123
-27 -148 -1 -5 -8 -50 -15 -100 -7 -49 -17 -99 -23 -109 -8 -15 -7 -22 6 -31
9 -7 16 -21 15 -31 0 -18 -1 -18 -9 1 -9 22 -13 15 -24 -40 -5 -22 -4 -26 4
-15 7 11 10 4 10 -30 0 -33 -3 -41 -10 -30 -11 18 -11 26 -16 -150 -2 -69 -8
-145 -13 -170 -5 -25 -10 -52 -11 -60 -2 -46 -12 -117 -17 -130 -3 -8 -7 -71
-9 -140 -2 -69 -6 -135 -9 -147 -3 -12 0 -25 5 -28 6 -4 7 -11 4 -17 -10 -16
-14 -130 -5 -143 12 -17 -2 -160 -16 -160 -7 0 -13 -3 -13 -7 0 -5 0 -24 0
-43 0 -27 3 -33 16 -28 11 4 12 8 4 13 -8 5 -9 10 -2 14 18 11 24 -12 16 -57
-4 -23 -7 -49 -5 -58 1 -9 -5 -19 -14 -23 -13 -5 -15 -17 -11 -63 4 -41 3 -49
-3 -28 -11 39 -12 7 -2 -63 6 -41 4 -55 -6 -59 -8 -3 -10 -10 -5 -20 11 -18 3
-73 -11 -73 -5 0 -2 -9 8 -20 10 -11 24 -20 31 -20 8 0 10 -8 6 -22 -5 -21 -6
-21 -12 -3 -6 16 -8 15 -13 -10 -3 -17 -1 -35 4 -41 5 -6 6 -13 3 -17 -3 -3 4
-8 15 -12 22 -7 29 -25 10 -25 -6 0 -9 -9 -6 -20 3 -11 1 -20 -4 -20 -5 0 -12
14 -15 30 -8 38 -20 39 -26 0 -3 -22 1 -34 20 -49 17 -14 22 -25 17 -40 -3
-12 -11 -21 -16 -21 -12 0 -11 -67 2 -91 6 -13 7 -25 1 -32 -5 -7 -13 -38 -16
-69 -9 -73 -24 -84 -22 -16 2 70 -20 75 -26 6 -4 -34 -1 -59 7 -71 7 -10 14
-14 16 -8 2 6 9 -1 16 -14 9 -20 8 -25 -3 -25 -8 0 -14 -6 -14 -14 0 -8 -5
-16 -10 -18 -6 -2 -11 -26 -12 -53 -1 -28 -6 -53 -10 -56 -5 -3 -4 -18 2 -33
12 -32 13 -83 2 -90 -4 -2 -8 -89 -7 -192 0 -103 -1 -180 -3 -171 -2 9 -9 17
-16 17 -7 0 -11 14 -9 43 4 54 -4 87 -21 87 -10 0 -13 -25 -13 -112 0 -65 3
-105 8 -93 7 19 8 19 8 -2 1 -12 9 -27 19 -32 19 -11 11 -14 -30 -11 -16 1
-28 -3 -28 -9 0 -6 9 -11 21 -11 11 0 17 -5 14 -10 -3 -5 -15 -10 -25 -10 -16
0 -18 -6 -15 -38 4 -32 3 -34 -5 -12 -8 20 -9 13 -6 -31 5 -64 -6 -93 -23 -62
-7 14 -7 31 -1 53 12 42 -3 74 -32 66 -13 -3 -31 3 -46 15 -24 19 -19 24 21
20 9 -1 17 3 17 8 0 6 -9 11 -20 11 -20 0 -21 4 -14 87 4 49 6 99 6 112 -3 34
8 45 24 24 14 -19 14 -20 18 29 0 10 5 17 10 17 18 -1 26 29 31 117 3 49 8
101 11 116 6 32 -12 61 -41 66 -28 5 -32 12 -8 12 15 0 20 7 21 27 1 44 12
127 17 132 3 2 5 -36 5 -84 0 -141 18 -89 25 70 9 225 15 299 25 309 12 12 14
176 2 176 -5 0 -4 20 2 45 8 33 12 41 18 28 4 -11 7 3 7 33 1 28 4 72 7 98 6
38 4 46 -10 46 -12 0 -16 10 -16 41 0 24 -4 38 -10 34 -5 -3 -10 -2 -10 4 0
23 20 20 26 -4 6 -24 8 -25 22 -11 12 12 15 42 16 138 1 68 5 126 11 130 5 4
9 39 9 77 -1 39 2 71 5 71 4 0 5 41 4 91 -2 55 0 88 6 85 13 -8 24 11 15 25
-4 8 -9 7 -15 -2 -7 -11 -9 -11 -9 2 0 8 6 21 13 28 10 11 9 12 -3 6 -13 -7
-13 -6 -2 7 11 14 25 100 37 226 3 26 7 68 11 94 3 26 1 55 -4 64 -7 13 -6 21
3 29 20 15 23 104 5 116 -13 8 -12 11 3 20 13 7 18 21 16 42 -3 54 1 88 10 83
4 -3 9 34 9 82 1 48 6 105 12 127 13 52 13 88 0 80 -6 -4 -2 11 9 32 11 21 25
74 31 118 13 93 15 104 30 165 6 25 13 61 15 80 2 19 8 55 14 80 6 25 15 74
21 110 5 36 17 103 26 150 9 47 19 105 24 130 4 25 8 36 10 25 1 -11 6 0 10
25 5 28 3 50 -3 58 -8 10 -7 12 3 10 8 -2 18 14 27 42 12 43 18 58 45 115 6
13 12 45 12 70 1 24 6 47 13 49 6 3 14 20 18 38 3 18 12 49 20 68 8 19 17 56
20 83 3 26 11 47 16 47 6 0 8 -4 5 -9z m-56 -101 c0 -5 -5 -10 -11 -10 -5 0
-7 5 -4 10 3 6 8 10 11 10 2 0 4 -4 4 -10z m-13 -52 c-3 -8 -6 -5 -6 6 -1 11
2 17 5 13 3 -3 4 -12 1 -19z m-7 -52 c0 -3 -4 -8 -10 -11 -5 -3 -10 -1 -10 4
0 6 5 11 10 11 6 0 10 -2 10 -4z m-300 -636 c0 -5 -4 -10 -10 -10 -5 0 -10 5
-10 10 0 6 5 10 10 10 6 0 10 -4 10 -10z m2035 -170 c-4 -80 -8 -146 -8 -146
-1 -1 -40 2 -86 5 -75 6 -86 9 -107 34 -32 38 -39 71 -24 117 17 51 60 75 124
68 l46 -6 0 33 c0 39 6 45 38 42 l24 -2 -7 -145z m76 140 c5 0 9 -13 9 -28 0
-26 -3 -28 -30 -24 -23 3 -30 9 -30 26 0 28 10 38 28 31 7 -3 18 -5 23 -5z
m246 -24 c1 -1 -2 -42 -7 -91 -5 -50 -10 -113 -10 -142 l0 -51 -74 2 c-63 1
-79 5 -100 25 -39 37 -51 75 -37 121 17 58 55 83 113 77 l46 -6 7 40 c7 38 9
40 33 34 15 -4 28 -8 29 -9z m-602 -29 l40 -2 -3 -90 c-5 -130 -1 -124 -80
-121 -78 4 -114 16 -136 48 -18 26 -21 90 -5 119 18 35 70 60 109 54 19 -3 53
-6 75 -8z m359 -49 c0 -16 -1 -64 -2 -108 l-2 -80 -30 0 c-34 0 -35 5 -23 144
6 76 6 77 32 74 21 -2 26 -8 25 -30z m444 1 c48 2 47 8 36 -136 l-7 -81 -71 0
c-76 0 -115 14 -140 50 -19 27 -21 77 -4 114 16 34 83 67 118 57 14 -3 44 -5
68 -4z m140 -29 c3 -21 2 -22 -12 -11 -17 14 -23 7 -27 -29 -4 -37 1 -44 17
-24 13 16 15 16 10 2 -3 -10 -1 -18 3 -18 5 0 9 -16 8 -35 -1 -26 -4 -32 -13
-24 -7 6 -10 17 -7 25 3 9 -2 14 -16 14 -39 0 -54 66 -25 108 21 31 58 26 62
-8z m-2742 -22 c5 -7 3 -8 -6 -3 -9 6 -10 2 -5 -16 6 -19 5 -22 -5 -12 -7 6
-10 19 -7 27 8 19 13 20 23 4z m-1396 -7 c0 -6 -4 -13 -10 -16 -5 -3 -10 1
-10 9 0 9 5 16 10 16 6 0 10 -4 10 -9z m4087 -110 c3 -13 10 -18 20 -14 11 4
14 1 11 -8 -2 -8 -16 -15 -30 -17 -20 -2 -26 2 -30 22 -8 39 19 54 29 17z
m-3737 -131 c0 -10 -4 -21 -9 -24 -4 -3 -8 8 -7 23 1 31 16 32 16 1z m2006
-157 c-8 -48 -18 -122 -22 -163 -5 -56 -19 -104 -56 -191 l-49 -116 -47 8
c-25 5 -50 13 -54 17 -12 12 10 68 98 261 99 214 134 284 140 278 3 -3 -1 -45
-10 -94z m-2015 -46 c-8 -8 -11 -3 -11 19 1 25 2 27 11 11 8 -14 8 -22 0 -30z
m-4 -64 c-3 -10 -5 -2 -5 17 0 19 2 27 5 18 2 -10 2 -26 0 -35z m-13 -334 c-8
-17 -9 -13 -9 21 0 34 1 38 9 21 5 -13 5 -29 0 -42z m1683 -145 c1 -25 -2 -33
-9 -26 -6 6 -17 8 -24 5 -10 -4 -14 4 -14 26 0 26 4 31 23 31 20 0 23 -5 24
-36z m57 26 c18 -6 26 -17 26 -33 0 -20 -5 -24 -30 -24 -27 0 -30 3 -30 34 0
37 -1 37 34 23z m93 -31 c10 -19 10 -27 -2 -38 -12 -13 -17 -12 -35 4 -23 21
-25 36 -8 53 16 16 30 10 45 -19z m101 -4 c1 -1 -2 -14 -7 -27 -6 -17 -19 -27
-38 -30 -26 -3 -28 -1 -30 35 l-3 39 38 -7 c20 -4 38 -8 40 -10z m28 -63 c-11
-10 -15 4 -8 28 l7 25 3 -23 c2 -13 1 -26 -2 -30z m-816 -32 c0 -5 -5 -10 -11
-10 -5 0 -7 5 -4 10 3 6 8 10 11 10 2 0 4 -4 4 -10z m-1150 -56 c0 -13 -4 -24
-10 -24 -5 0 -10 14 -10 31 0 17 4 28 10 24 6 -3 10 -17 10 -31z m1900 0 c0
-41 -20 -43 -31 -1 -7 28 -3 37 18 37 8 0 13 -13 13 -36z m58 3 c4 -21 -16
-49 -29 -41 -5 3 -9 19 -9 35 0 24 4 30 17 27 10 -2 19 -11 21 -21z m-1958
-41 c0 -3 -4 -8 -10 -11 -5 -3 -10 -1 -10 4 0 6 5 11 10 11 6 0 10 -2 10 -4z
m1122 -28 c-7 -7 -12 -8 -12 -2 0 14 12 26 19 19 2 -3 -1 -11 -7 -17z m8 -114
c0 -8 -5 -12 -10 -9 -6 4 -8 11 -5 16 9 14 15 11 15 -7z m-153 -426 c-3 -7 -5
-2 -5 12 0 14 2 19 5 13 2 -7 2 -19 0 -25z m-1030 -55 c-3 -10 -5 -2 -5 17 0
19 2 27 5 18 2 -10 2 -26 0 -35z m1153 27 c0 -5 -4 -10 -10 -10 -5 0 -10 5
-10 10 0 6 5 10 10 10 6 0 10 -4 10 -10z m-1157 -125 c-3 -9 -8 -14 -10 -11
-3 3 -2 9 2 15 9 16 15 13 8 -4z m1037 -75 c-1 -12 -4 -11 -15 4 -8 10 -12 23
-8 29 7 11 23 -12 23 -33z m121 -126 l-9 -39 -1 41 c-1 22 2 44 6 48 12 12 14
-8 4 -50z m-164 -320 c-3 -3 -12 -4 -19 -1 -8 3 -5 6 6 6 11 1 17 -2 13 -5z
m-32 -34 c3 -5 1 -10 -4 -10 -6 0 -11 5 -11 10 0 6 2 10 4 10 3 0 8 -4 11 -10z
m-15 -99 c0 -17 -12 -41 -21 -41 -10 0 -12 33 -2 43 9 10 23 9 23 -2z m196
-38 c-11 -11 -19 6 -11 24 8 17 8 17 12 0 3 -10 2 -21 -1 -24z m-1209 -15 c-3
-7 -5 -2 -5 12 0 14 2 19 5 13 2 -7 2 -19 0 -25z m990 -60 c-3 -8 -6 -5 -6 6
-1 11 2 17 5 13 3 -3 4 -12 1 -19z m-1 -125 c-10 -10 -19 5 -10 18 6 11 8 11
12 0 2 -7 1 -15 -2 -18z m0 -308 c-7 -28 -21 -33 -30 -10 -3 9 0 15 9 15 9 0
15 10 16 23 0 12 3 16 6 9 3 -7 2 -24 -1 -37z m-5 -89 c-6 -8 -12 -34 -13 -60
-2 -30 -7 -46 -15 -46 -10 0 -13 19 -11 75 1 67 4 74 22 77 24 3 34 -25 17
-46z m169 -346 c0 -5 -4 -10 -10 -10 -5 0 -10 5 -10 10 0 6 5 10 10 10 6 0 10
-4 10 -10z m0 -45 c0 -1 -7 -8 -15 -15 -13 -10 -15 -9 -15 8 0 15 5 20 15 16
8 -4 15 -7 15 -9z m-220 -87 c0 -6 7 -5 15 2 23 19 28 5 10 -29 -11 -23 -23
-31 -41 -31 -22 0 -25 3 -20 23 3 12 6 30 6 39 0 11 5 15 15 12 8 -4 15 -11
15 -16z m227 -40 c-3 -7 -5 -2 -5 12 0 14 2 19 5 13 2 -7 2 -19 0 -25z m-247
-43 c0 -8 -4 -15 -10 -15 -5 0 -10 7 -10 15 0 8 5 15 10 15 6 0 10 -7 10 -15z
m34 -10 c7 -29 -3 -103 -15 -111 -5 -3 -9 9 -9 25 0 22 -5 31 -16 31 -14 0
-14 1 0 16 9 8 16 26 16 40 0 31 16 31 24 -1z m116 -90 c0 -13 -4 -27 -10 -30
-6 -4 -10 8 -10 30 0 22 4 34 10 30 6 -3 10 -17 10 -30z m-67 8 c-7 -3 -13
-16 -13 -29 0 -13 -4 -24 -10 -24 -17 0 -11 48 7 59 10 5 20 7 23 4 3 -3 -1
-8 -7 -10z m127 -157 c0 -3 -4 -8 -10 -11 -5 -3 -10 -1 -10 4 0 6 5 11 10 11
6 0 10 -2 10 -4z m-70 -146 c0 -5 -4 -10 -10 -10 -5 0 -10 5 -10 10 0 6 5 10
10 10 6 0 10 -4 10 -10z m-20 -41 c0 -11 -4 -17 -10 -14 -5 3 -10 13 -10 21 0
8 5 14 10 14 6 0 10 -9 10 -21z m-210 -62 c0 -5 -4 -5 -10 -2 -5 3 -10 14 -10
23 0 15 2 15 10 2 5 -8 10 -19 10 -23z m300 -2 c0 -8 -4 -15 -10 -15 -5 0 -7
7 -4 15 4 8 8 15 10 15 2 0 4 -7 4 -15z m-309 -48 c-10 -9 -11 -8 -5 6 3 10 9
15 12 12 3 -3 0 -11 -7 -18z m237 -16 c10 -6 9 -10 -7 -14 -14 -3 -21 0 -21 9
0 16 9 18 28 5z m-9 -74 c8 -10 7 -17 -1 -25 -18 -18 -23 -15 -24 13 -2 28 8
32 25 12z m26 -77 c15 -6 23 -15 19 -21 -5 -8 -9 -8 -14 1 -6 9 -12 10 -26 1
-18 -10 -18 -11 3 -17 29 -8 20 -24 -13 -24 -18 0 -24 -5 -24 -21 0 -11 -4
-17 -10 -14 -5 3 -10 1 -10 -5 0 -8 -6 -8 -20 0 -24 13 -27 40 -5 40 9 0 18
12 21 29 4 20 14 31 28 34 11 2 22 5 23 6 1 0 14 -3 28 -9z m-120 -10 c3 -5 1
-10 -4 -10 -6 0 -11 5 -11 10 0 6 2 10 4 10 3 0 8 -4 11 -10z m42 -162 c-3 -7
-5 -2 -5 12 0 14 2 19 5 13 2 -7 2 -19 0 -25z m53 28 c0 -15 -14 -35 -21 -30
-15 9 -10 34 6 34 8 0 15 -2 15 -4z"/>
<path d="M8508 11607 c-7 -8 -19 -12 -26 -9 -6 2 -12 -1 -12 -7 0 -6 4 -11 10
-11 16 0 60 23 60 32 0 12 -17 10 -32 -5z"/>
<path d="M8716 11545 c-3 -8 -12 -15 -21 -15 -17 0 -20 -16 -5 -25 6 -3 13 1
16 9 3 9 12 16 20 16 16 0 19 16 5 24 -5 3 -11 -1 -15 -9z"/>
<path d="M8305 11500 c3 -5 12 -7 20 -3 21 7 19 13 -6 13 -11 0 -18 -4 -14
-10z"/>
<path d="M8320 11450 c0 -5 5 -10 10 -10 6 0 10 5 10 10 0 6 -4 10 -10 10 -5
0 -10 -4 -10 -10z"/>
<path d="M8326 11413 c-9 -9 -7 -53 2 -53 12 0 32 22 32 36 0 13 -25 26 -34
17z"/>
<path d="M8390 11400 c0 -5 5 -10 10 -10 6 0 10 5 10 10 0 6 -4 10 -10 10 -5
0 -10 -4 -10 -10z"/>
<path d="M7836 10991 c-17 -19 -17 -19 3 -14 26 7 28 -14 4 -33 -14 -10 -15
-15 -6 -24 17 -18 43 37 32 68 -10 27 -11 27 -33 3z"/>
<path d="M8145 11031 c-6 -11 9 -23 19 -14 9 9 7 23 -3 23 -6 0 -12 -4 -16 -9z"/>
<path d="M10400 10596 c0 -8 6 -17 13 -19 7 -3 4 -6 -6 -6 -23 -1 -17 -23 6
-27 13 -2 17 5 17 32 0 24 -5 34 -15 34 -8 0 -15 -6 -15 -14z"/>
<path d="M10400 10486 c0 -2 9 -6 20 -9 11 -3 18 -1 14 4 -5 9 -34 13 -34 5z"/>
<path d="M10368 10453 c7 -3 16 -2 19 1 4 3 -2 6 -13 5 -11 0 -14 -3 -6 -6z"/>
<path d="M8160 10718 c0 -9 5 -20 10 -23 13 -8 13 5 0 25 -8 13 -10 13 -10 -2z"/>
<path d="M8205 10630 c-3 -5 1 -10 9 -10 9 0 16 5 16 10 0 6 -4 10 -9 10 -6 0
-13 -4 -16 -10z"/>
<path d="M8240 10630 c0 -5 5 -10 11 -10 5 0 7 5 4 10 -3 6 -8 10 -11 10 -2 0
-4 -4 -4 -10z"/>
<path d="M9275 10517 c-4 -10 -5 -21 -1 -24 10 -10 18 4 13 24 -4 17 -4 17
-12 0z"/>
<path d="M9330 10510 c0 -21 15 -27 25 -10 4 6 11 8 16 5 5 -4 9 1 9 9 0 10
-9 16 -25 16 -18 0 -25 -5 -25 -20z"/>
<path d="M9356 10481 c-4 -5 -5 -15 -3 -23 2 -7 2 -10 0 -5 -10 16 -23 5 -23
-19 0 -19 4 -25 15 -20 9 3 15 0 15 -9 0 -9 -10 -15 -25 -15 -18 0 -23 -4 -19
-15 4 -8 1 -22 -6 -30 -10 -12 -10 -15 2 -15 23 0 68 24 68 36 0 10 31 20 78
26 23 3 12 15 -19 22 -22 4 -30 10 -25 21 3 9 -3 19 -17 26 -21 12 -21 12 -2
20 17 7 16 8 -7 8 -15 1 -29 -3 -32 -8z"/>
<path d="M9350 10320 c0 -5 5 -10 11 -10 5 0 7 5 4 10 -3 6 -8 10 -11 10 -2 0
-4 -4 -4 -10z"/>
<path d="M9321 10295 c0 -5 6 -19 14 -29 8 -11 15 -15 15 -10 0 6 -7 19 -15
30 -8 10 -14 15 -14 9z"/>
<path d="M9360 10271 c0 -16 28 -20 34 -5 4 9 -1 14 -14 14 -11 0 -20 -4 -20
-9z"/>
<path d="M9267 10224 c-8 -8 1 -24 14 -24 5 0 9 7 9 15 0 15 -12 20 -23 9z"/>
<path d="M9040 9320 c0 -11 5 -20 10 -20 6 0 10 9 10 20 0 11 -4 20 -10 20 -5
0 -10 -9 -10 -20z"/>
<path d="M9055 2320 c3 -5 8 -10 11 -10 2 0 4 5 4 10 0 6 -5 10 -11 10 -5 0
-7 -4 -4 -10z"/>
<path d="M9060 2267 c0 -9 -4 -17 -10 -17 -5 0 -10 -11 -10 -25 0 -14 4 -25 9
-25 9 0 23 71 16 79 -3 2 -5 -3 -5 -12z"/>
<path d="M9006 2105 c-3 -8 -1 -15 4 -15 6 0 10 7 10 15 0 8 -2 15 -4 15 -2 0
-6 -7 -10 -15z"/>
<path d="M9026 2015 c-3 -9 0 -15 9 -15 16 0 20 16 6 24 -5 3 -11 -1 -15 -9z"/>
<path d="M8965 1847 c4 -22 3 -27 -7 -21 -10 6 -9 3 1 -9 17 -22 35 -22 27 -1
-4 9 -1 24 6 32 11 13 10 15 -4 9 -9 -3 -19 -1 -22 6 -4 7 -4 -1 -1 -16z"/>
<path d="M8978 1774 c-5 -4 -8 -19 -8 -33 0 -18 3 -22 11 -14 6 6 9 21 7 33
-1 12 -6 18 -10 14z"/>
<path d="M8966 1693 c-6 -14 -5 -15 5 -6 7 7 10 15 7 18 -3 3 -9 -2 -12 -12z"/>
<path d="M8961 1604 c1 -11 5 -30 9 -44 l8 -25 1 28 c1 16 5 26 11 22 6 -3 10
2 10 11 0 10 -3 14 -7 11 -3 -4 -12 -2 -20 4 -10 9 -13 7 -12 -7z"/>
<path d="M9011 1594 c0 -11 3 -14 6 -6 3 7 2 16 -1 19 -3 4 -6 -2 -5 -13z"/>
<path d="M8892 1500 c0 -19 2 -27 5 -17 2 9 2 25 0 35 -3 9 -5 1 -5 -18z"/>
<path d="M8850 1423 c0 -29 5 -53 10 -53 13 0 13 70 0 90 -7 11 -10 0 -10 -37z"/>
<path d="M11042 4910 c-12 -5 -25 -16 -28 -25 -10 -26 5 -65 31 -77 55 -25
102 54 57 95 -21 19 -27 20 -60 7z"/>
<path d="M11352 4884 c-18 -12 -22 -24 -20 -52 2 -30 8 -38 30 -46 56 -20 95
64 46 98 -28 20 -28 20 -56 0z"/>
<path d="M10784 4915 c-18 -19 -23 -31 -19 -48 15 -50 74 -63 101 -22 21 32
12 68 -21 83 -34 16 -32 16 -61 -13z"/>
<path d="M11592 4864 c-24 -17 -30 -65 -9 -81 41 -33 97 -12 97 36 0 29 -27
61 -51 61 -8 0 -25 -7 -37 -16z"/>
<path d="M8497 13627 c-3 -9 -13 -17 -22 -17 -8 0 -15 -7 -15 -15 0 -8 7 -15
15 -15 8 0 15 6 15 14 0 8 5 16 12 18 6 2 9 10 6 18 -3 11 -6 10 -11 -3z"/>
<path d="M8412 13570 c0 -14 2 -19 5 -12 2 6 2 18 0 25 -3 6 -5 1 -5 -13z"/>
<path d="M8300 13490 c0 -5 7 -10 16 -10 8 0 12 5 9 10 -3 6 -10 10 -16 10 -5
0 -9 -4 -9 -10z"/>
<path d="M7201 11914 c0 -11 3 -14 6 -6 3 7 2 16 -1 19 -3 4 -6 -2 -5 -13z"/>
<path d="M11787 11824 c-4 -5 -31 -9 -60 -9 -92 -3 -193 -24 -207 -44 -8 -12
-100 -22 -100 -11 0 21 -52 9 -94 -22 -49 -36 -56 -48 -27 -48 11 0 26 -8 33
-18 7 -10 28 -28 46 -41 33 -23 36 -23 338 -25 167 -1 300 0 294 2 -5 2 -10 8
-10 13 0 5 46 8 103 7 69 -1 83 -3 42 -5 -113 -7 -74 -18 68 -19 246 -2 618
-13 628 -19 5 -4 89 -7 187 -7 97 -1 164 -5 147 -8 -23 -6 -25 -8 -8 -9 12 0
32 3 45 8 13 5 57 17 98 26 65 14 127 16 475 11 611 -8 1010 -4 1410 13 140 7
253 6 338 -1 262 -21 737 28 737 76 0 13 -73 49 -135 68 -16 4 -122 20 -235
34 -221 28 -519 34 -725 16 -61 -6 -198 -6 -350 0 -353 14 -646 -1 -815 -41
-80 -19 -222 -33 -335 -34 -138 -1 -475 17 -475 26 0 11 -291 3 -355 -10 -63
-13 -595 -9 -603 4 -4 6 -23 12 -42 14 -19 2 -40 6 -45 10 -6 4 -33 10 -60 13
-28 3 -64 9 -81 12 -18 3 -51 8 -75 10 -24 3 -67 7 -94 10 -28 3 -54 2 -58 -2z"/>
<path d="M11281 11754 c0 -11 3 -14 6 -6 3 7 2 16 -1 19 -3 4 -6 -2 -5 -13z"/>
<path d="M14105 11590 c-28 -7 -27 -8 13 -9 23 0 42 4 42 9 0 11 -11 11 -55 0z"/>
<path d="M7350 11261 c0 -5 5 -13 10 -16 6 -3 10 -2 10 4 0 5 -4 13 -10 16 -5
3 -10 2 -10 -4z"/>
<path d="M10445 10350 c4 -6 11 -8 16 -5 14 9 11 15 -7 15 -8 0 -12 -5 -9 -10z"/>
<path d="M8316 10272 c-3 -5 1 -12 9 -16 10 -4 13 -15 10 -38 l-5 -33 12 33
c9 27 8 36 -4 49 -10 9 -18 11 -22 5z"/>
<path d="M8197 10224 c-4 -4 -7 -17 -7 -28 1 -19 1 -20 11 -3 11 19 8 43 -4
31z"/>
<path d="M8230 10219 c0 -5 5 -7 10 -4 6 3 10 8 10 11 0 2 -4 4 -10 4 -5 0
-10 -5 -10 -11z"/>
<path d="M10243 10223 c-18 -7 -16 -23 2 -23 8 0 15 7 15 15 0 8 -1 15 -2 14
-2 0 -9 -3 -15 -6z"/>
<path d="M7860 10161 c0 -22 6 -44 15 -51 8 -7 15 -19 15 -26 0 -8 5 -14 10
-14 6 0 10 -7 10 -15 0 -23 -16 -18 -34 10 -13 19 -20 23 -39 16 -16 -6 -22
-16 -22 -40 0 -17 6 -33 13 -36 6 -2 12 -14 12 -25 0 -23 15 -27 24 -5 3 8 15
15 26 15 17 0 20 4 15 23 -6 21 -6 21 9 3 9 -11 16 -26 16 -34 0 -19 -51 -66
-59 -55 -3 5 -13 12 -22 15 -12 5 -18 -1 -23 -20 -3 -15 -8 -37 -12 -49 -5
-18 -2 -23 12 -23 11 0 28 7 38 15 25 19 36 19 36 -1 0 -9 5 -12 11 -8 7 4 27
8 45 9 31 2 34 0 34 -27 0 -15 -4 -28 -10 -28 -5 0 -10 -4 -10 -10 0 -5 -10
-20 -21 -31 -25 -25 -18 -32 45 -43 38 -7 39 -7 32 21 -4 15 -11 51 -15 78 -4
28 -12 59 -18 70 -6 11 -14 38 -18 60 -8 49 -45 158 -55 165 -4 3 -11 20 -15
38 -3 18 -11 30 -16 26 -5 -3 -9 0 -9 5 0 6 -4 11 -10 11 -5 0 -10 -17 -10
-39z"/>
<path d="M8175 10101 c-3 -10 -3 -25 0 -34 4 -8 2 -18 -4 -22 -6 -3 -11 -11
-11 -16 0 -22 30 21 32 46 2 19 7 25 19 22 12 -3 16 0 12 9 -8 20 -41 17 -48
-5z"/>
<path d="M10325 10090 c3 -5 8 -10 11 -10 2 0 4 5 4 10 0 6 -5 10 -11 10 -5 0
-7 -4 -4 -10z"/>
<path d="M10470 10036 c0 -9 9 -14 20 -13 11 1 20 7 20 14 0 7 -9 13 -20 13
-11 0 -20 -6 -20 -14z"/>
<path d="M10395 9070 c-21 -23 -4 -27 19 -4 18 17 20 24 8 24 -5 0 -17 -9 -27
-20z"/>
<path d="M10420 8985 c0 -8 5 -15 10 -15 6 0 10 7 10 15 0 8 -4 15 -10 15 -5
0 -10 -7 -10 -15z"/>
<path d="M8740 8395 c0 -8 2 -15 4 -15 2 0 6 7 10 15 3 8 1 15 -4 15 -6 0 -10
-7 -10 -15z"/>
<path d="M8654 8359 c-2 -5 -2 -20 2 -34 4 -18 13 -25 30 -25 25 0 32 14 12
26 -7 5 -4 10 11 16 16 5 27 3 37 -7 9 -8 21 -15 27 -15 7 0 4 5 -5 11 -10 5
-18 16 -18 23 0 14 -87 19 -96 5z"/>
<path d="M8900 8239 c0 -5 5 -7 10 -4 6 3 10 8 10 11 0 2 -4 4 -10 4 -5 0 -10
-5 -10 -11z"/>
<path d="M8856 8178 c-16 -19 -16 -19 10 -16 30 3 43 22 21 31 -8 3 -22 -4
-31 -15z"/>
<path d="M8835 8130 c-3 -5 3 -10 14 -10 12 0 21 5 21 10 0 6 -6 10 -14 10 -8
0 -18 -4 -21 -10z"/>
<path d="M12595 7410 c6 -10 138 -80 150 -80 16 0 1 21 -19 26 -13 3 -34 16
-47 30 -12 13 -25 21 -30 19 -4 -3 -19 -1 -34 5 -18 7 -24 7 -20 0z"/>
<path d="M12781 7311 c13 -10 43 -28 66 -39 66 -34 232 -172 308 -256 95 -105
146 -175 212 -286 30 -52 77 -127 103 -165 26 -39 55 -88 64 -109 17 -40 69
-298 81 -396 21 -183 36 -520 46 -1065 11 -623 9 -884 -11 -1115 -6 -69 -15
-237 -20 -375 -6 -137 -14 -308 -19 -380 -16 -246 -31 -470 -41 -630 -33 -498
-53 -733 -77 -875 -8 -47 -18 -168 -23 -270 -10 -212 -39 -473 -75 -688 -13
-81 -29 -178 -35 -217 -16 -100 -39 -228 -55 -316 -8 -42 -15 -88 -15 -102 l0
-27 85 0 c80 0 85 1 89 23 14 73 28 165 41 262 9 61 24 175 35 255 23 168 24
169 50 565 11 165 24 354 30 421 6 66 13 201 16 300 3 98 10 256 16 349 10
166 21 602 33 1255 3 179 10 393 16 475 13 192 19 1329 8 1583 -8 193 -34 594
-44 687 -4 28 -13 88 -21 135 -30 173 -45 212 -118 308 -23 31 -69 97 -102
145 -32 49 -66 98 -74 111 -43 63 -115 148 -171 201 -68 65 -160 135 -177 135
-5 0 -15 7 -22 15 -7 8 -36 22 -65 31 -30 8 -59 22 -66 30 -11 13 -72 44 -87
44 -2 0 6 -8 19 -19z"/>
<path d="M13581 6737 c-1 -10 7 -30 17 -45 63 -92 80 -122 96 -162 10 -25 22
-54 27 -65 15 -35 37 -165 53 -305 9 -74 20 -173 26 -220 34 -299 34 -314 33
-1385 -1 -903 -4 -1111 -18 -1335 -13 -184 -18 -379 -17 -635 1 -253 -5 -482
-18 -725 -20 -349 -29 -458 -70 -774 -11 -88 -20 -196 -21 -240 0 -143 -38
-572 -68 -789 l-8 -57 253 0 254 0 16 26 c10 14 21 51 26 82 5 31 15 70 23 86
12 27 25 99 30 171 1 11 6 31 12 45 17 40 61 227 73 309 13 91 5 1567 -11
1886 -6 116 -14 300 -19 410 -32 741 -60 1106 -105 1350 -8 44 -17 112 -20
150 -10 140 -17 192 -40 300 -13 61 -26 137 -30 170 -3 33 -12 83 -19 110 -8
28 -17 104 -20 170 -4 66 -15 152 -26 190 -10 39 -21 90 -25 115 -4 25 -12 63
-20 85 -15 45 -35 190 -35 251 0 21 -11 84 -25 139 -14 55 -25 113 -25 128 0
15 -8 44 -19 65 -10 20 -22 57 -26 82 -8 55 -39 149 -67 203 -5 10 -6 22 -3
27 4 6 2 10 -2 10 -5 0 -15 16 -22 35 -11 31 -21 39 -42 37 -4 -1 -12 12 -19
28 -7 17 -19 30 -26 30 -8 0 -19 9 -26 20 -7 11 -18 20 -25 20 -6 0 -14 6 -16
13 -3 7 -6 5 -6 -6z"/>
</g>
</svg>
