<svg version="1.1" viewBox="0.0 0.0 480.0 480.0" fill="none" stroke="none" stroke-linecap="square" stroke-miterlimit="10" xmlns:xlink="http://www.w3.org/1999/xlink" xmlns="http://www.w3.org/2000/svg"><clipPath id="p.0"><path d="m0 0l480.0 0l0 480.0l-480.0 0l0 -480.0z" clip-rule="nonzero"/></clipPath><g clip-path="url(#p.0)"><path fill="#000000" fill-opacity="0.0" d="m0 0l480.0 0l0 480.0l-480.0 0z" fill-rule="evenodd"/><path fill="#000000" d="m0 0.52098846l481.73227 0l0 480.0l-481.73227 0z" fill-rule="evenodd"/><path fill="#000000" fill-opacity="0.0" d="m26.25722 42.64042l371.1322 0l0 394.71835l-371.1322 0z" fill-rule="evenodd"/><path fill="#ffffff" d="m139.02284 242.41667l-47.9375 49.156235l0 56.1875l-15.578125 0l0 -213.73436l15.578125 0l0 137.40623l133.42188 -137.40623l18.9375 0l-94.046875 97.09375l100.453125 116.64061l-18.9375 0l-91.890625 -105.343735z" fill-rule="nonzero"/><path fill="#000000" fill-opacity="0.0" d="m228.74738 42.64042l342.26636 0l0 394.71835l-342.26636 0z" fill-rule="evenodd"/><path fill="#3d88d3" d="m334.18488 349.29166q-23.515625 0 -44.734375 -8.09375q-21.21875 -8.09375 -33.125 -20.921875l7.015625 -11.59375q11.296875 11.90625 30.375 19.390625q19.09375 7.46875 40.15625 7.46875q30.53125 0 46.09375 -11.59375q15.578125 -11.609375 15.578125 -30.234375q0 -14.34375 -8.25 -22.890625q-8.234375 -8.546875 -20.453125 -13.125q-12.203125 -4.5937347 -32.96875 -9.468735q-23.515625 -5.8125 -37.71875 -11.296875q-14.1875 -5.5 -24.109375 -16.953125q-9.921875 -11.453125 -9.921875 -30.6875q0 -15.5625 8.234375 -28.53125q8.25 -12.984375 25.1875 -20.609375q16.953125 -7.640625 42.296875 -7.640625q17.703125 0 34.796875 5.1875q17.109375 5.1875 29.625 14.046875l-5.796875 12.515625q-12.828125 -8.859375 -28.25 -13.4375q-15.40625 -4.578125 -30.375 -4.578125q-29.609375 0 -44.890625 11.90625q-15.265625 11.90625 -15.265625 30.84375q0 14.34375 8.25 22.890625q8.25 8.546875 20.453125 13.140625q12.21875 4.578125 33.28125 9.765625q23.515625 5.796875 37.5625 11.296875q14.046875 5.5 23.96875 16.64061q9.921875 11.140625 9.921875 30.078125q0 15.5625 -8.40625 28.390625q-8.390625 12.828125 -25.796875 20.46875q-17.40625 7.625 -42.734375 7.625z" fill-rule="nonzero"/></g></svg>