<?xml version="1.0" standalone="no"?>
<!DOCTYPE svg PUBLIC "-//W3C//DTD SVG 20010904//EN"
 "http://www.w3.org/TR/2001/REC-SVG-20010904/DTD/svg10.dtd">
<svg version="1.0" xmlns="http://www.w3.org/2000/svg"
 width="1078.000000pt" height="1076.000000pt" viewBox="0 0 1078.000000 1076.000000"
 preserveAspectRatio="xMidYMid meet">
<metadata>
Created by potrace 1.16, written by Peter Selinger 2001-2019
</metadata>
<g transform="translate(0.000000,1076.000000) scale(0.100000,-0.100000)"
fill="#000000" stroke="none">
<path d="M0 5380 l0 -5380 5390 0 5390 0 0 5380 0 5380 -5390 0 -5390 0 0
-5380z m5633 3009 c12 -7 25 -17 29 -23 4 -6 8 -101 8 -211 0 -232 -5 -248
-68 -243 -57 5 -62 24 -62 246 0 192 0 193 25 217 27 28 37 30 68 14z m-921
-576 c124 -124 148 -152 148 -177 0 -16 -7 -38 -17 -48 -36 -39 -59 -25 -215
129 -130 129 -148 151 -148 180 0 35 29 63 64 63 12 0 78 -58 168 -147z m2003
122 c14 -13 25 -32 25 -41 0 -10 -68 -86 -152 -171 -160 -161 -179 -172 -218
-133 -41 41 -29 64 108 203 123 125 173 167 200 167 7 0 24 -11 37 -25z m2807
-515 l186 -365 1 -1061 c1 -1142 3 -1102 -49 -1205 -29 -56 -109 -129 -180
-163 -60 -29 -73 -31 -170 -31 -93 0 -112 3 -162 27 -68 32 -147 103 -183 164
-55 93 -55 91 -55 1217 l0 1037 176 352 c97 193 183 362 191 375 36 55 47 40
245 -347z m-3746 241 c441 -91 744 -458 744 -902 0 -128 -30 -269 -80 -376
-49 -104 -82 -153 -190 -273 -192 -214 -237 -321 -249 -595 -8 -172 -17 -209
-69 -261 -56 -56 -71 -59 -292 -62 -237 -4 -293 4 -347 51 -58 51 -73 95 -73
217 0 246 -68 433 -217 603 -141 161 -166 194 -214 292 -177 359 -113 765 167
1050 217 222 523 317 820 256z m-3206 -158 c34 -18 65 -44 84 -71 l31 -44 3
-1285 c3 -1422 7 -1316 -62 -1384 -68 -68 -27 -64 -711 -67 -445 -2 -635 0
-674 8 -67 15 -143 84 -160 145 -14 53 -15 2514 -1 2565 11 41 49 95 81 118
58 40 72 41 725 42 l630 0 54 -27z m1938 -629 c27 -19 28 -54 3 -85 -19 -23
-24 -24 -197 -27 -193 -4 -235 0 -259 24 -20 20 -19 63 2 86 15 16 35 18 222
18 171 0 210 -3 229 -16z m2647 2 c23 -17 24 -71 1 -94 -14 -14 -43 -17 -189
-20 -221 -4 -252 0 -272 39 -16 30 -8 63 19 81 6 4 104 8 217 8 157 0 210 -3
224 -14z m-2307 -808 c6 -6 12 -25 12 -42 0 -28 -19 -51 -148 -179 -90 -89
-156 -147 -168 -147 -35 0 -64 29 -64 62 0 27 20 52 138 171 75 76 146 143
157 147 21 9 52 4 73 -12z m1745 -137 c81 -81 147 -154 147 -163 0 -8 -9 -27
-21 -42 -39 -50 -59 -39 -216 116 -78 78 -146 150 -149 161 -15 46 25 92 71
80 11 -2 86 -71 168 -152z m-633 -847 c20 -23 16 -75 -5 -90 -15 -11 -87 -14
-351 -14 -365 0 -364 0 -364 60 0 60 -2 60 369 60 294 0 340 -2 351 -16z m-5
-198 c21 -15 25 -67 5 -90 -11 -14 -57 -16 -351 -16 -371 0 -369 0 -369 60 0
58 10 60 370 60 259 0 330 -3 345 -14z m-155 -206 c23 -23 26 -58 6 -86 -13
-17 -30 -19 -177 -22 -89 -2 -172 -1 -185 2 -53 14 -71 69 -34 106 18 18 33
20 195 20 162 0 177 -2 195 -20z m-25 -960 c84 -27 185 -76 185 -91 0 -11 -87
-178 -101 -193 -4 -5 -21 1 -37 12 -69 50 -217 88 -293 76 -53 -9 -79 -34 -79
-77 0 -61 24 -77 180 -122 208 -59 290 -107 335 -196 85 -167 2 -372 -176
-435 -167 -58 -477 -15 -619 86 l-30 21 31 62 c17 34 42 81 55 103 l24 41 84
-42 c174 -87 357 -96 386 -19 24 61 -28 99 -213 153 -164 48 -242 93 -287 166
-45 73 -43 219 5 301 27 46 98 115 144 138 98 51 272 58 406 16z m-3545 -90
l0 -110 -165 0 -165 0 0 -420 0 -420 -125 0 -125 0 0 420 0 420 -160 0 -160 0
0 110 0 110 450 0 450 0 0 -110z m1164 74 c3 -9 6 -65 6 -124 l0 -109 78 -3
77 -3 0 -90 0 -90 -77 -3 -78 -3 0 -184 c0 -172 1 -185 19 -195 25 -13 82 -13
117 0 15 6 29 9 31 6 7 -7 43 -149 43 -172 0 -24 -59 -46 -175 -65 -138 -22
-247 28 -274 126 -6 24 -11 131 -11 263 l0 222 -50 0 -51 0 3 93 3 92 48 3 47
3 0 118 c0 65 3 121 7 124 3 4 57 7 119 7 93 0 113 -3 118 -16z m790 -239
c190 -50 306 -215 294 -419 -7 -110 -36 -182 -104 -255 -200 -216 -603 -150
-704 116 -42 109 -37 259 12 357 28 54 102 131 157 162 95 53 231 69 345 39z
m916 -99 l0 -113 -57 -6 c-86 -9 -129 -24 -168 -61 l-35 -33 0 -237 0 -236
-120 0 -120 0 0 395 0 395 110 0 110 0 0 -70 c0 -38 3 -70 8 -70 4 0 17 16 29
34 42 65 129 114 206 115 l37 1 0 -114z m1575 80 c32 -15 74 -38 93 -52 36
-28 92 -100 92 -118 0 -6 -52 -26 -115 -44 l-115 -33 -30 30 c-49 48 -144 54
-200 13 -85 -63 -104 -212 -39 -303 26 -37 88 -69 131 -69 38 0 108 32 121 55
4 8 15 15 25 15 34 0 222 -64 222 -75 0 -7 -13 -30 -29 -52 -137 -189 -470
-203 -646 -26 -184 184 -135 520 93 641 82 44 121 52 237 48 84 -2 110 -7 160
-30z m848 -4 c91 -42 150 -100 194 -189 32 -65 37 -86 41 -163 5 -100 -11
-164 -60 -242 -111 -176 -356 -237 -561 -140 -282 134 -295 556 -22 717 68 40
140 55 246 52 82 -3 106 -8 162 -35z m927 22 c70 -21 120 -53 163 -106 135
-167 139 -398 8 -575 -101 -138 -324 -161 -452 -45 l-49 43 -2 -213 -3 -213
-100 -3 c-55 -2 -110 0 -123 3 l-22 5 2 553 3 552 105 0 105 0 3 -58 3 -57 26
31 c75 88 205 121 333 83z m885 0 c179 -46 296 -200 296 -390 0 -35 -3 -68 -6
-74 -4 -6 -111 -10 -291 -10 -250 0 -284 -2 -284 -15 0 -28 29 -73 65 -101 70
-53 196 -39 248 27 l24 30 83 -21 c126 -32 126 -32 90 -84 -60 -88 -147 -138
-274 -158 -200 -31 -386 61 -463 229 -46 100 -42 265 7 364 27 52 104 134 154
163 93 54 236 71 351 40z m-6935 -244 c0 -269 5 -301 51 -334 52 -36 160 -4
204 62 25 36 25 38 25 279 l0 243 120 0 120 0 0 -264 c0 -265 6 -316 35 -316
13 0 15 -16 13 -107 l-3 -108 -45 -6 c-101 -15 -178 20 -194 87 -5 21 -11 41
-12 43 -2 2 -15 -11 -30 -28 -50 -60 -175 -110 -275 -111 -66 0 -141 29 -181
71 -63 66 -68 101 -68 441 l0 298 120 0 120 0 0 -250z"/>
<path d="M9283 7611 c-22 -54 -19 -61 30 -61 45 0 50 13 26 63 -13 26 -26 47
-29 47 -3 0 -15 -22 -27 -49z"/>
<path d="M9119 7284 c-54 -111 -99 -205 -99 -208 0 -3 133 -6 295 -6 l295 0
-103 206 -103 206 -93 2 -92 1 -100 -201z"/>
<path d="M8992 5948 l3 -1043 26 -55 c48 -100 130 -162 239 -179 62 -10 149 3
202 30 58 30 125 104 148 166 20 53 20 77 20 1088 l0 1035 -75 0 -75 0 0 -963
c0 -855 -2 -965 -16 -985 -18 -26 -27 -27 -48 -6 -14 14 -16 117 -16 985 l0
969 -95 0 -95 0 0 -975 c0 -923 -1 -975 -18 -984 -11 -6 -24 -6 -35 0 -16 9
-17 72 -17 984 l0 975 -75 0 -75 0 2 -1042z"/>
<path d="M5425 7534 c-85 -19 -152 -48 -245 -108 -161 -105 -266 -241 -331
-431 -21 -62 -24 -88 -24 -220 0 -116 4 -166 19 -220 33 -123 99 -239 191
-335 154 -162 235 -301 281 -484 9 -34 19 -130 22 -214 7 -152 7 -154 35 -178
28 -24 31 -24 233 -24 l206 0 27 28 c27 26 28 31 34 172 12 282 87 466 267
655 181 190 254 359 253 585 -2 350 -218 649 -548 757 -103 33 -309 42 -420
17z m340 -129 c123 -32 279 -124 291 -171 9 -36 -9 -70 -41 -78 -21 -5 -37 0
-67 21 -107 75 -182 105 -293 118 -85 10 -91 12 -105 45 -10 25 -10 34 4 55
15 23 23 25 84 25 37 0 95 -7 127 -15z m439 -378 c22 -16 54 -129 62 -218 6
-59 4 -69 -15 -88 -11 -11 -32 -21 -44 -21 -38 0 -58 32 -67 107 -4 37 -15 94
-25 125 l-19 58 24 25 c26 28 57 32 84 12z"/>
<path d="M1245 7355 c-23 -22 -25 -32 -25 -110 l0 -85 665 0 665 0 0 69 c0 78
-14 127 -40 141 -12 6 -250 10 -630 10 l-611 0 -24 -25z"/>
<path d="M1220 6090 l0 -920 663 2 662 3 3 918 2 917 -665 0 -665 0 0 -920z"/>
<path d="M1220 4935 c0 -78 2 -88 25 -110 l24 -25 605 0 c431 0 612 3 630 11
33 15 46 56 46 140 l0 69 -665 0 -665 0 0 -85z"/>
<path d="M3995 3256 c-118 -53 -144 -251 -44 -341 125 -112 295 -1 276 181 -8
77 -38 128 -90 153 -49 24 -98 26 -142 7z"/>
<path d="M7280 3259 c-68 -27 -110 -101 -110 -192 0 -85 29 -142 91 -175 88
-47 181 -13 225 82 77 165 -54 346 -206 285z"/>
<path d="M8215 3256 c-17 -7 -45 -30 -63 -50 -30 -35 -32 -41 -32 -117 0 -92
11 -119 69 -172 68 -61 144 -61 212 0 73 66 87 178 34 269 -42 72 -143 104
-220 70z"/>
<path d="M9140 3289 c-45 -18 -76 -56 -94 -116 l-7 -23 165 0 c152 0 166 2
166 18 0 32 -45 95 -80 113 -38 21 -109 24 -150 8z"/>
</g>
</svg>
